<?xml version="1.0" encoding="UTF-8"?>
<svg id="Capa_2" data-name="Capa 2" xmlns="http://www.w3.org/2000/svg" viewBox="0 0 120.64 123.32">
  <defs>
    <style>
      .cls-1 {
        fill: #fff;
        stroke: #fff;
        stroke-miterlimit: 10;
      }

      .cls-2 {
        fill: #bc84e7;
      }
    </style>
  </defs>
  <g id="Capa_3" data-name="Capa 3">
    <g>
      <ellipse class="cls-2" cx="60.32" cy="61.66" rx="60.32" ry="61.66"/>
      <g>
        <path class="cls-1" d="M60.31,85.34s-17.42-49.29-18.07-51.36c-.65-2.06-.9-1.55-.9-1.55,0,0-10.52.06-12.58-.06-2.06-.13-1.16,2.97-1.16,2.97l-17.1,49.87,9.82.18c.57.01,1.08-.35,1.26-.89l3.77-11.48,18.78.13s3.35,9.68,3.94,11.36c.58,1.68.9,1.1.9,1.1,0,0,6.71.06,9.29,0,2.58-.06,2.06-.26,2.06-.26ZM28.31,62.63l6.39-20.97,6.32,21.1-12.71-.13Z"/>
        <path class="cls-1" d="M67.82,85.74h10.54c.8,0,1.45-.65,1.45-1.45v-31.7c0-1.61.81-3.13,2.17-3.99s3.33-1.62,6.11-1.57c3.48.06,5.58,2.06,6.72,3.7.75,1.07,1.13,2.35,1.15,3.66l.48,29.68c.02,1.1.93,1.98,2.03,1.95l9.91-.23c.97-.02,1.75-.82,1.74-1.79l-.1-31.26c0-2.52-.45-5.02-1.41-7.35-2.03-4.93-6.95-11.28-18.71-10.07-5.59.75-11.08,4.62-11.08,4.62,0,0,.22-4.19-1.94-4.19s-11.08.32-11.08.32l.31,48.02c0,.92.75,1.66,1.67,1.66Z"/>
      </g>
    </g>
  </g>
</svg>