<?xml version="1.0" encoding="UTF-8"?>
<svg id="Capa_2" data-name="Capa 2" xmlns="http://www.w3.org/2000/svg" viewBox="0 0 370.28 440.54">
  <defs>
    <style>
      .cls-1 {
        fill: #fff;
      }

      .cls-2 {
        fill: #ff0;
      }
    </style>
  </defs>
  <g id="Capa_3" data-name="Capa 3">
    <g>
      <g>
        <g>
          <path d="M287.31,422.03l-2.61,2.94c1.06-.83,1.92-1.83,2.61-2.94Z"/>
          <path d="M286.25,420.97l-2.61,2.94c-.27.3-.44.65-.44,1.06,0,.37.16.81.44,1.06s.66.46,1.06.44l.4-.05c.25-.07.47-.2.66-.39,1.14-.89,2.08-2.02,2.84-3.24.2-.32.25-.79.15-1.16s-.36-.73-.69-.9c-.35-.18-.77-.28-1.16-.15s-.68.35-.9.69-.45.69-.7,1.02l.23-.3c-.55.72-1.19,1.36-1.9,1.92l2.12,2.12,2.61-2.94c.27-.3.44-.65.44-1.06,0-.37-.16-.81-.44-1.06s-.66-.46-1.06-.44-.8.14-1.06.44Z"/>
        </g>
        <g>
          <path d="M367.92,341.69c6.48-24.46-23.66-47.29-17.89-71.93,1.87-7.98,7.32-14.61,10.36-22.22,7.54-18.88-.68-40.02-8.81-58.66l8.09,4.5c3.33-3.43,1.93-9.4-1.27-12.95s-7.72-5.59-11.47-8.55c-11.69-9.25-14.3-25.69-15.5-40.55-1.46-18.06-2.13-36.36-6.96-53.83-4.83-17.47-14.4-34.4-29.81-43.95-19.47-12.07-44.27-10.39-66.13-17.24C211.2,10.87,194.69-.13,176.62,1.64c-18.18,1.78-32.24,15.88-47.07,26.55-24.02,17.27-55.75,29.78-64.64,58-3.17,10.05-2.88,21.05-6.93,30.78-5.13,12.33-16.66,21.29-21.09,33.88-8.48,24.08,10.87,54.87-5.42,74.54-4.03,4.87-9.7,8.06-14.3,12.39-13.7,12.89-16.07,33.64-15.63,52.45l3.49-3.61c.13,3.09.78,6.15,2.01,8.99-1.23-2.2-2.59-4.33-4.08-6.37l7.38,13.19c-.59-1.41-1.24-2.8-1.92-4.17.69,1.03,1.52,1.95,2.59,2.56.51.29,1.03.48,1.55.62l-1.27,1.61c22.67,24.12,27.87,62.62,54.91,81.71,7.68,5.42,16.58,8.81,25.53,11.67,4.5,1.44,9.21,2.78,13.9,2.17,4.69-.61,9.38-3.65,10.47-8.25,1.25-5.28-2.4-10.44-2.87-15.84-1.12-12.72,14.62-20.76,17.42-33.22,3.04-13.47-9.89-25.64-10.5-39.44,4.62,2.05,11.36,3.41,13.58-1.13,1.38-2.83-.22-6.27-2.49-8.45-2.27-2.18-5.16-3.64-7.34-5.91-6.27-6.54-4.61-16.95-4.66-26.02-.06-11.69-3.65-23.03-5.62-34.55-3.08-18.03-2.15-36.73,2.69-54.37,8.4-11.08,7.13-28.35,17.85-37.27,4.6-3.83,10.66-5.35,16.56-6.38,19.16-3.36,40.53-3.37,55.16-16.18,3.74-3.27,6.86-7.27,10.96-10.07,12.21-8.33,31.63-1.64,36.13,12.43.84,2.63,1.24,5.45,2.6,7.85,3.53,6.26,12.09,7.64,17.01,12.88,4.02,4.28,5.05,10.48,5.9,16.29,3.36,23.03,6.58,47.4-2.39,68.88-5.49,13.14-15.14,24.07-25.18,34.17-7.93,7.97-16.37,15.69-26.48,20.6-6.17,2.99-12.93,4.93-18.4,9.06-8.87,6.71-12.8,18.01-15.45,28.81-8.96,36.57-8.4,75.42,1.62,111.71,2.11,7.64,7.93,16.99,15.42,14.38,3.49-1.21,5.67-4.8,9.03-6.35,5.46-2.51,11.95,1.1,17.83-.14,9.53-2,11.88-14.2,17.42-22.21,2.66-3.85,6.4-6.96,10.67-8.86,7.25-3.24,16.55-2.62,22.26,2.9,4.74,4.58,5.81,12.68,2.45,18.09,7.52-8.47,15.03-16.94,22.55-25.41.99-1.11,2.07-2.28,3.52-2.63,1.67-.4,3.37.4,4.87,1.23,11.15,6.17,20.62,15.35,27.13,26.3,7.68-1.91,10.17-11.89,8.69-19.66-1.47-7.78-5.4-15.23-4.86-23.12.95-13.95,15.13-23.53,18.71-37.05Z"/>
          <path d="M369.36,342.09c2.33-8.99-.07-17.96-3.64-26.27-3.74-8.68-8.79-16.78-12.08-25.66-1.53-4.13-2.69-8.45-2.84-12.87-.18-5.18,1.2-10.02,3.48-14.64,2.64-5.34,5.99-10.32,8.02-15.96s2.78-11.85,2.49-17.89c-.68-14.25-6.3-27.77-11.93-40.68l-2.05,2.05,8.09,4.5c.56.31,1.36.26,1.82-.23,3.54-3.84,2.67-9.7-.17-13.69-3.33-4.66-8.85-6.82-13.14-10.39-8.14-6.77-11.47-17.28-13.14-27.38-.92-5.59-1.33-11.24-1.75-16.88-.5-6.75-.97-13.5-1.64-20.24-1.28-12.77-3.3-25.61-7.88-37.65-3.9-10.27-9.52-20.03-17.35-27.82s-18.38-13.13-29.42-16.05c-11.42-3.02-23.23-4.11-34.81-6.38-5.77-1.13-11.45-2.6-16.98-4.62-5.87-2.13-11.57-4.69-17.36-7.02-11.05-4.44-22.75-7.92-34.73-5.56-10.97,2.16-20.48,8.59-29.24,15.22-4.52,3.42-8.94,6.98-13.53,10.33-4.08,2.97-8.3,5.74-12.55,8.43-8.56,5.43-17.31,10.58-25.53,16.52s-15.25,12.08-20.85,20.03c-2.79,3.96-5.04,8.28-6.66,12.85-2.04,5.75-2.82,11.82-3.79,17.82s-2.26,12.23-5.2,17.75c-2.57,4.83-5.96,9.15-9.26,13.5s-6.72,8.93-9.01,14.01c-2.08,4.62-3.16,9.52-3.49,14.56-.69,10.36,1.5,20.64,2.72,30.87,1.1,9.28,1.74,19.48-3.01,27.93-2.8,4.97-7.22,8.39-11.66,11.82s-8.46,7.22-11.57,11.98c-5.85,8.94-8.29,19.67-9.24,30.19-.47,5.2-.56,10.43-.44,15.66.03,1.27,1.64,2.02,2.56,1.06l3.49-3.61-2.56-1.06c.16,3.24.81,6.4,2.06,9.39l2.74-1.16c-1.24-2.2-2.6-4.32-4.08-6.37-1.11-1.54-3.55-.2-2.59,1.51,2.46,4.4,4.92,8.79,7.38,13.19.81,1.44,3.41.44,2.74-1.16s-1.33-3.04-2.07-4.52l-2.59,1.51c1.28,1.86,2.85,3.23,5.04,3.87l-.66-2.51-1.27,1.61c-.52.65-.61,1.47,0,2.12,11.11,11.87,17.86,26.93,25.03,41.32,7.02,14.1,14.79,28.57,27.37,38.51,7.75,6.12,16.85,10,26.16,13.11,8.43,2.81,20.01,6.19,26.64-2.07,2.96-3.7,2.77-8.17,1.47-12.5-1.19-3.98-2.83-7.84-1.91-12.06,1.53-6.95,7.36-12.25,11.49-17.73,2.21-2.93,4.19-6.09,5.28-9.63,1.19-3.87,1.06-7.98.13-11.89-1.94-8.17-6.89-15.23-9.17-23.28-.56-1.97-.94-3.98-1.04-6.03l-2.26,1.3c4.4,1.92,11.5,3.96,15-.67,1.97-2.6,1.54-6.04-.06-8.71-1.81-3.02-4.86-4.71-7.54-6.83-5.26-4.15-6.19-10.49-6.21-16.83-.01-3.26.18-6.51.17-9.77-.02-3.99-.46-7.97-1.08-11.91-1.27-7.97-3.39-15.78-4.7-23.74s-1.81-16.05-1.54-24.11,1.29-15.93,3.08-23.72c.42-1.81.65-3.98,1.72-5.52.81-1.17,1.53-2.4,2.18-3.67,1.34-2.64,2.37-5.43,3.28-8.25,1.8-5.57,3.08-11.4,5.74-16.65,1.27-2.52,2.86-4.85,4.93-6.78,2.49-2.32,5.58-3.86,8.8-4.9,6.45-2.09,13.38-2.77,20.07-3.68s13.19-1.77,19.67-3.3,12.52-3.65,18.06-7.04c2.85-1.75,5.48-3.83,7.89-6.16,2.6-2.52,5.01-5.29,7.92-7.48,8.42-6.32,20.77-4.86,28.56,1.82,1.89,1.62,3.52,3.52,4.74,5.7,1.57,2.79,2.02,5.88,3.04,8.87s2.81,5.36,5.3,7.28c2.3,1.77,4.91,3.06,7.43,4.49s5.09,3.07,6.82,5.51c1.93,2.73,2.89,5.97,3.55,9.21,1.48,7.27,2.3,14.77,3.1,22.14,1.62,14.95,2.05,30.44-2.45,44.96s-13.7,25.84-23.85,36.36c-5.09,5.28-10.34,10.47-16.07,15.06s-12,8.12-18.79,10.95-12.85,5.57-17.57,10.99c-4.3,4.93-7.08,10.96-9.11,17.13-2.3,6.99-3.83,14.27-5.14,21.5-1.39,7.74-2.38,15.56-2.96,23.4-1.17,15.88-.61,31.85,1.58,47.62,1.1,7.89,2.62,15.72,4.56,23.45,1.54,6.11,3.34,12.44,7.9,17.05,1.84,1.86,4.14,3.29,6.77,3.58,2.97.32,5.6-.99,7.85-2.82,2.45-1.99,4.51-4.38,7.84-4.76s6.84.64,10.23.9c3,.23,6-.21,8.63-1.73,2.24-1.29,4.01-3.2,5.5-5.29,3.22-4.51,5.07-9.82,7.94-14.54,3.41-5.6,8.89-9.88,15.36-11.25,5.87-1.24,12.7.02,16.85,4.61,3.75,4.14,4.49,10.86,1.61,15.65-.86,1.43,1.21,3.11,2.36,1.82,3.87-4.36,7.74-8.72,11.61-13.08s7.53-8.69,11.45-12.89c.65-.69,1.39-1.48,2.35-1.69,1.29-.27,2.62.49,3.71,1.08,2.14,1.17,4.21,2.47,6.21,3.87,3.85,2.68,7.41,5.75,10.65,9.13,3.72,3.88,6.97,8.16,9.73,12.77.34.57,1.05.86,1.69.69,5.23-1.39,8.38-6.05,9.56-11.11,1.42-6.1.02-11.95-1.77-17.81-2-6.56-4.02-13.14-1.99-19.96,1.63-5.45,5.06-10.16,8.32-14.74,3.81-5.36,7.71-10.83,9.46-17.26.51-1.87-2.39-2.66-2.89-.8-3,11.03-12.41,18.73-16.75,29.14-2.44,5.85-2.45,11.83-.93,17.94s4.44,12.38,4.16,18.93c-.23,5.22-2.41,11.31-7.97,12.78l1.69.69c-5.23-8.73-12.21-16.32-20.46-22.27-2.09-1.51-4.26-2.9-6.5-4.17s-4.83-2.59-7.43-1.54c-2.44.98-4.12,3.5-5.81,5.39-2.05,2.3-4.09,4.61-6.14,6.91-4.7,5.29-9.4,10.59-14.09,15.88l2.36,1.82c3.06-5.1,2.77-11.86-.29-16.9-3.31-5.43-9.65-8.14-15.83-8.31-6.59-.18-12.95,2.48-17.79,6.89-4.53,4.13-6.93,9.67-9.66,15.02-2.22,4.37-4.96,9.47-10.02,10.95-6.53,1.9-13.39-2.67-19.73.84-2.68,1.49-4.54,4.11-7.26,5.53-2.39,1.25-5,.76-7.11-.81-4.98-3.71-6.81-10.33-8.27-16.04-3.98-15.54-6.24-31.49-6.75-47.52-.51-15.95.67-31.95,3.59-47.63,1.34-7.21,2.9-14.47,5.32-21.41,2.12-6.09,5.13-12.06,9.85-16.56,5.32-5.07,12.46-7.22,19-10.19s12.69-7.29,18.24-12.06,10.76-10,15.75-15.36,9.72-11.01,13.68-17.17,7.09-12.89,9.04-19.98,2.87-14.77,3.04-22.27-.42-15.48-1.3-23.17c-.44-3.8-.95-7.6-1.49-11.39-.5-3.51-.92-7.06-1.69-10.52-.71-3.2-1.78-6.44-3.69-9.14-1.76-2.49-4.11-4.34-6.7-5.89s-5.24-2.78-7.67-4.47c-2.62-1.83-4.3-4.16-5.2-7.23s-1.53-5.95-3.09-8.68c-1.28-2.24-2.97-4.27-4.91-5.97-3.96-3.48-8.97-5.82-14.19-6.61s-10.56-.18-15.27,2.25c-6.12,3.16-10.03,9.18-15.46,13.26-10.7,8.05-24.45,10.11-37.37,11.89-6.69.92-13.5,1.6-20.06,3.24s-12.33,4.67-16.27,10.2c-6.91,9.71-6.63,22.68-13.51,32.4-1.04,1.48-1.3,3.43-1.71,5.17-.47,1.99-.9,4-1.28,6.01-.73,3.93-1.28,7.89-1.65,11.87-.74,8.01-.72,16.08.07,24.09s2.6,16,4.27,23.96,2.66,15.22,2.46,23.05c-.16,6.29-.57,12.97,2.11,18.83,1.42,3.1,3.76,5.34,6.48,7.32s5.85,3.96,6.41,7.44c.43,2.68-1.6,4.36-4.08,4.52-2.62.17-5.33-.65-7.7-1.68-.96-.42-2.32.04-2.26,1.3.44,8.41,4.82,15.72,8.01,23.29,1.5,3.56,2.81,7.34,2.94,11.23s-.93,7.18-2.77,10.38c-3.56,6.19-9.1,10.99-12.55,17.25-1.64,2.97-2.72,6.3-2.6,9.72.16,4.57,2.6,8.58,3.11,13.07s-1.99,7.64-5.8,9.33c-4.57,2.03-9.77.98-14.37-.37-9.52-2.79-19.11-6.35-27.31-12.04-12.8-8.88-20.81-22.7-27.72-36.31-7.13-14.05-13.47-28.72-23.46-41.07-1.21-1.5-2.48-2.95-3.79-4.36v2.12l1.27-1.61c.69-.87.51-2.16-.66-2.51-1.42-.41-2.42-1.29-3.25-2.49-1.1-1.59-3.46-.23-2.59,1.51.62,1.25,1.23,2.52,1.77,3.81l2.74-1.16c-2.46-4.4-4.92-8.79-7.38-13.19l-2.59,1.51c1.48,2.05,2.83,4.17,4.08,6.37.81,1.43,3.41.45,2.74-1.16-1.15-2.75-1.81-5.62-1.95-8.59-.06-1.26-1.62-2.03-2.56-1.06l-3.49,3.61,2.56,1.06c-.24-10.62.32-21.44,3.46-31.66,1.51-4.93,3.67-9.66,6.64-13.88,3.2-4.55,7.42-7.94,11.78-11.32s8.26-6.88,10.86-11.7c2.21-4.1,3.32-8.63,3.75-13.25.91-9.94-1.21-19.91-2.44-29.72s-1.95-20.03,1.93-29.26c4.26-10.12,12.69-17.71,18.03-27.19,2.95-5.25,4.57-10.95,5.61-16.85s1.71-12.25,3.49-18.18c2.72-9.08,8.2-16.91,14.94-23.48,14.14-13.78,32.38-22.32,48.36-33.65,9.06-6.43,17.39-13.92,26.96-19.64,4.65-2.78,9.58-5.09,14.85-6.38,5.54-1.36,11.29-1.43,16.91-.45,11.87,2.06,22.68,7.78,33.84,12.01s22.65,6.01,34.29,7.85c11.19,1.77,22.67,3.69,32.91,8.77s17.81,12.73,23.63,22.04c13.32,21.3,14.82,46.94,16.63,71.32.8,10.73,1.52,21.82,5.53,31.93,1.83,4.62,4.33,8.98,7.78,12.59,3.85,4.03,8.99,6.24,13.09,9.92,3.14,2.81,6.19,8.51,2.72,12.26l1.82-.23-8.09-4.5c-1.41-.79-2.63.74-2.05,2.05,4.96,11.38,9.91,23.24,11.25,35.68.65,6.05.4,12.2-1.3,18.07s-4.81,10.67-7.56,15.86c-2.53,4.78-4.5,9.78-4.83,15.23-.26,4.37.48,8.78,1.73,12.95,2.67,8.91,7.47,17,11.48,25.35,4.24,8.82,7.98,18.65,5.43,28.52-.48,1.87,2.41,2.67,2.89.8Z"/>
        </g>
      </g>
      <g>
        <path class="cls-1" d="M111.09,205.56c3.84-18.55,8.74-36.89,14.66-54.89,1.35-4.09,2.85-8.34,5.94-11.33,3.16-3.06,7.56-4.41,11.8-5.57,10.41-2.84,20.98-5.13,31.64-6.83,6.15-.99,12.44-1.81,18.12-4.36,8.81-3.95,15.33-11.62,23.31-17.04s19.46-8.24,26.87-2.05c6.78,5.66,7.18,16.37,13.55,22.49,2.2,2.12,4.96,3.53,7.46,5.28,14.73,10.34,18.13,30.89,16.29,48.79-4.42,43.04-33.27,82.73-72.86,100.21-10.47,4.62-21.96,7.8-33.29,6.27-13.17-1.78-24.71-9.72-34.54-18.67-17.18-15.64-31.57-38.27-26.54-60.95"/>
        <path d="M112.53,205.96c2.19-10.55,4.71-21.02,7.57-31.4,1.42-5.15,2.92-10.28,4.5-15.39,1.46-4.72,2.72-9.74,4.93-14.18,2.08-4.19,5.37-6.79,9.73-8.36,4.68-1.69,9.63-2.78,14.46-3.92,5.17-1.23,10.38-2.32,15.61-3.27s10.33-1.57,15.43-2.65c4.71-1,9.24-2.58,13.36-5.1,3.88-2.37,7.36-5.33,10.82-8.26,6.46-5.47,13.39-11.1,22.18-11.87,3.85-.34,7.85.34,10.96,2.76s4.79,5.93,6.29,9.39,2.82,7.14,5,10.29c2.67,3.87,6.55,5.92,10.3,8.56,13.15,9.24,16.52,26.88,15.94,41.95-.62,16.15-5.33,32.28-12.57,46.68-7.36,14.64-17.55,27.81-29.89,38.59-6.11,5.34-12.75,10.06-19.82,14.05-8.04,4.55-16.69,8.35-25.74,10.33-9.64,2.11-19.41,1.49-28.51-2.41-8.44-3.61-15.88-9.31-22.59-15.5-12.93-11.94-24.78-27.99-26.34-46.07-.37-4.31-.13-8.64.79-12.88.41-1.88-2.48-2.69-2.89-.8-4.05,18.71,4.5,37,16.2,51.19,6.02,7.3,13.05,13.88,20.74,19.39s16.5,9.82,26.03,11c10.4,1.29,20.92-1.3,30.5-5.21,7.99-3.27,15.61-7.41,22.7-12.34,13.92-9.67,25.81-22.16,34.93-36.44s15.45-30.34,18.15-47.05c2.55-15.78,2.3-33.9-6.94-47.65-2.24-3.34-4.98-6.27-8.18-8.7-3.68-2.79-7.89-4.65-10.51-8.63-4.32-6.56-5.34-15.21-11.91-20.21-6.92-5.27-16.49-3.64-23.77-.05-8.35,4.11-14.48,11.48-22.19,16.54-4.19,2.75-8.73,4.46-13.62,5.51-5.25,1.13-10.61,1.78-15.89,2.74s-10.91,2.15-16.31,3.45c-4.89,1.18-9.97,2.24-14.65,4.13-4.39,1.77-7.89,4.54-10.12,8.77-2.35,4.45-3.65,9.5-5.15,14.28-3.31,10.59-6.27,21.29-8.87,32.07-1.27,5.27-2.46,10.57-3.56,15.88-.39,1.88,2.5,2.69,2.89.8h0Z"/>
      </g>
      <g>
        <path class="cls-1" d="M212.33,150.9c-.91,2.19-1.82,4.38-2.73,6.57.76-.21,1.53-.41,2.29-.62"/>
        <path d="M210.89,150.5c-.91,2.19-1.82,4.38-2.73,6.57-.2.48.04,1.12.39,1.46.38.38.94.53,1.46.39.76-.21,1.53-.41,2.29-.62s1.3-1.08,1.05-1.85-1.03-1.27-1.85-1.05c-.76.21-1.53.41-2.29.62l1.85,1.85,2.73-6.57c.14-.33.02-.86-.15-1.16-.18-.31-.54-.61-.9-.69-.38-.09-.81-.07-1.16.15s-.53.51-.69.9h0Z"/>
      </g>
      <g>
        <path d="M148.62,141.82l-1.65,1.54c-.14.13-.29.28-.26.43.04.25.48.38.86.46,11.19,2.44,22.38,4.88,33.58,7.32,5.97,1.3,12.3,2.76,16.11,5.94,2.17-.55,4.4-1.13,6.05-2.18s2.59-2.68,1.64-4.03c-.45-.64-1.27-1.14-2.12-1.58-1.72-.89-3.67-1.58-5.65-2.23-14.74-4.79-31.73-6.78-48.22-5.65"/>
        <path d="M147.56,140.76c-1.11,1.04-3.54,2.82-1.66,4.37.73.6,1.84.69,2.73.88,1.22.27,2.43.53,3.65.8,4.7,1.03,9.41,2.05,14.11,3.08s9.57,2.08,14.35,3.13c3.93.86,7.99,1.68,11.69,3.33.8.36,1.58.76,2.33,1.22.7.43,1.47,1.3,2.29,1.41.92.12,2.1-.41,2.98-.67,1.01-.3,2.02-.66,2.98-1.11,1.65-.78,3.34-2.11,3.73-3.99s-.79-3.34-2.28-4.29c-3.52-2.24-8-3.31-11.98-4.4-4.23-1.16-8.53-2.07-12.87-2.77-10.13-1.62-20.43-2.1-30.66-1.42-1.92.13-1.93,3.13,0,3,8.79-.59,17.64-.34,26.38.8s16.95,2.82,24.77,5.98c1.02.41,2.12.86,3.02,1.5.77.55.86,1.05.22,1.77-1.51,1.68-4.39,2.14-6.47,2.67l1.46.39c-2.94-2.38-6.5-3.72-10.11-4.73-4.27-1.2-8.66-2.03-12.99-2.98-4.7-1.03-9.41-2.05-14.11-3.08-2.27-.49-4.54-.99-6.81-1.48-1.14-.25-2.27-.49-3.41-.74-.65-.14-1.3-.28-1.95-.42-.32-.07-.65-.14-.97-.21-.41-.15-.39-.07.04.23l.15,1.16c-.19.28-.17.3.04.08l.49-.46.99-.92c1.41-1.32-.71-3.44-2.12-2.12h0Z"/>
      </g>
      <g>
        <path d="M242.89,164.29c-.55,1.03-1.12,2.1-1.24,3.26s.3,2.45,1.33,3.04c.67.39,1.49.42,2.27.46,11.96.64,23.43,5.17,35.39,5.76.3-1.53.6-3.06.89-4.6.09-.44.17-.91.03-1.33-.27-.81-1.21-1.17-2.04-1.42-11.72-3.53-23.99-5.35-36.26-5.36"/>
        <path d="M241.6,163.53c-.9,1.68-1.76,3.51-1.35,5.47.34,1.61,1.46,2.89,3.06,3.32,1.93.52,4.14.36,6.13.61,2.1.26,4.19.62,6.27,1.03,8.29,1.61,16.47,3.91,24.95,4.36.61.03,1.33-.49,1.45-1.1.21-1.07.42-2.14.63-3.22.17-.87.45-1.79.42-2.67-.05-1.74-1.41-2.68-2.9-3.21-3.9-1.37-8.07-2.24-12.12-3.04-8.18-1.62-16.51-2.45-24.85-2.48-1.93,0-1.93,2.99,0,3,7.28.02,14.54.64,21.71,1.93,3.52.63,7.02,1.41,10.48,2.34.84.23,1.69.46,2.53.71.45.13,1.67.28,2.02.69.38.45-.15,1.79-.26,2.4-.18.92-.36,1.84-.54,2.76l1.45-1.1c-7.26-.39-14.32-2.2-21.41-3.7-3.48-.73-6.97-1.38-10.5-1.77-.85-.09-1.7-.17-2.55-.23-.7-.05-1.81.08-2.45-.32-1.45-.9-.09-3.24.45-4.24.91-1.7-1.68-3.22-2.59-1.51h0Z"/>
      </g>
      <g>
        <path class="cls-1" d="M261.35,164.09c1.59-.76,2.99-1.9,4.06-3.3"/>
        <path d="M262.11,165.39c.91-.44,1.74-1.01,2.53-1.64s1.45-1.39,2.07-2.19c.22-.29.24-.83.15-1.16-.1-.35-.36-.73-.69-.9-.35-.18-.77-.28-1.16-.15l-.36.15c-.23.13-.4.31-.54.54l-.04.05.23-.3c-.59.76-1.27,1.43-2.03,2.02l.3-.23c-.62.47-1.28.88-1.99,1.22-.32.16-.6.56-.69.9-.1.36-.05.84.15,1.16s.51.6.9.69c.41.09.78.03,1.16-.15h0Z"/>
      </g>
      <g>
        <path class="cls-1" d="M137.8,162.57c-.61-.06.06-.97.67-1.04,16.45-1.83,34.21-.97,47.86,8.39,2.9,1.99,5.55,4.32,7.89,6.94"/>
        <path d="M138.2,161.12l-.19-.07,1.05,1.05c.18.48-.48.65.02.87.19.08.6-.06.82-.09.41-.04.82-.08,1.23-.12,1.03-.09,2.06-.18,3.09-.25,1.86-.13,3.73-.21,5.6-.24,3.87-.07,7.74.07,11.58.5,7.4.83,14.75,2.86,21.23,6.6,3.95,2.28,7.47,5.17,10.53,8.56,1.3,1.44,3.41-.69,2.12-2.12-12.47-13.83-31.35-17.34-49.2-16.41-2.47.13-4.95.32-7.41.61-1.03.12-1.99.56-2.43,1.57-.48,1.11.11,2.03,1.16,2.44,1.8.71,2.58-2.19.8-2.89h0Z"/>
      </g>
      <g>
        <path class="cls-1" d="M232.99,197.53c9.8-2.52,20.07-3.2,30.11-2,3.68.44,7.52,1.22,10.3,3.67.39.35.4,1.31-.07,1.06"/>
        <path d="M233.38,198.98c6.86-1.74,13.89-2.6,20.96-2.51,3.38.04,6.79.23,10.13.76,1.45.23,2.89.54,4.27,1.03.68.24,1.34.53,1.97.89.34.19.68.4.99.63l.32.24c.37.4.41.33.14-.18l.69-.9-.11.08,1.16-.15-.17-.04c-1.88-.4-2.69,2.49-.8,2.89,1.76.37,2.71-1.36,2-2.86s-2.73-2.39-4.11-2.99c-3.66-1.59-7.8-1.93-11.74-2.21-8.89-.62-17.87.24-26.5,2.43-1.87.47-1.08,3.37.8,2.89h0Z"/>
      </g>
      <g>
        <path class="cls-1" d="M234.09,189.22c3.05-1.3,6.45-1.77,9.74-1.34"/>
        <path d="M234.49,190.67c3.05-1.28,6.06-1.7,9.34-1.29.78.1,1.53-.76,1.5-1.5-.04-.9-.66-1.4-1.5-1.5-3.42-.43-6.96.06-10.14,1.39-.75.31-1.28.99-1.05,1.85.19.7,1.09,1.36,1.85,1.05h0Z"/>
      </g>
      <g>
        <path class="cls-1" d="M192.76,167.01c3.04.94,5.5,3.56,6.24,6.66"/>
        <path d="M192.37,168.46c.19.06.37.12.55.19.1.04.35.19,0,0,.08.05.18.08.27.12.34.16.66.34.98.54.16.1.32.21.48.33.23.17.04-.03-.03-.03.05,0,.18.14.23.18.3.25.58.52.85.8.13.14.26.29.39.44.04.05.24.2.07.08s.04.06.09.12c.22.3.42.62.6.94.09.17.18.34.27.52.04.09.07.18.12.27-.19-.35-.04-.1,0,0,.14.36.25.73.35,1.11.19.76,1.09,1.29,1.85,1.05s1.25-1.03,1.05-1.85c-.89-3.62-3.75-6.59-7.28-7.7-.75-.24-1.67.28-1.85,1.05-.19.82.25,1.59,1.05,1.85h0Z"/>
      </g>
      <g>
        <path class="cls-1" d="M138.87,154.8c.05,1.68.68,3.33,1.75,4.62.78.94,2,1.72,3.17,1.39"/>
        <path d="M137.37,154.8c.07,1.8.63,3.6,1.71,5.06,1.19,1.6,3.02,2.94,5.12,2.39.76-.2,1.29-1.08,1.05-1.85s-1.03-1.26-1.85-1.05c-.04.01-.34.06-.07.03s-.01,0-.07,0c-.09,0-.18-.02-.27-.01.07,0,.33.06.13,0-.09-.02-.18-.05-.26-.07-.26-.08.22.11.06.03-.14-.07-.28-.14-.42-.23-.07-.04-.13-.09-.2-.13-.23-.15.17.15.04.03-.12-.11-.24-.21-.35-.33-.12-.13-.24-.26-.35-.39-.13-.15.02,0,.05.07-.03-.08-.13-.18-.18-.25-.19-.28-.36-.57-.51-.86-.04-.07-.07-.15-.11-.23-.09-.2-.03-.11.01.04-.04-.16-.12-.32-.18-.47-.11-.33-.2-.68-.27-1.02-.01-.08-.02-.17-.04-.25.05.13.03.29,0,.05-.02-.18-.03-.37-.04-.55-.03-.78-.67-1.54-1.5-1.5s-1.53.66-1.5,1.5h0Z"/>
      </g>
      <g>
        <path class="cls-1" d="M145.88,154.54c-.34,1.27-.59,2.62-.26,3.89s1.4,2.43,2.71,2.49"/>
        <path d="M144.44,154.14c-.47,1.76-.73,3.66,0,5.39.68,1.61,2.13,2.78,3.9,2.89.78.05,1.53-.73,1.5-1.5-.04-.85-.66-1.45-1.5-1.5-.22-.01.09,0,.13.03-.05-.03-.16-.03-.22-.05-.07-.02-.43-.15-.2-.06s-.02-.02-.06-.04c-.05-.03-.1-.06-.15-.09s-.1-.08-.15-.1c.06.03.23.2.09.06-.1-.1-.2-.19-.29-.29-.03-.04-.17-.21-.03-.03s0,0-.02-.04c-.08-.12-.15-.24-.21-.36-.03-.05-.05-.12-.08-.17.07.09.11.29.03.06-.04-.12-.08-.24-.11-.37-.02-.08-.04-.15-.05-.23-.01-.06-.02-.12-.03-.18l.02.16s-.03-.41-.03-.47c0-.18,0-.36.01-.53,0-.08.01-.16.02-.24,0-.04.04-.3,0-.1-.04.22.02-.11.03-.16.01-.08.03-.16.04-.24.07-.35.16-.7.25-1.05.2-.76-.25-1.66-1.05-1.85s-1.63.24-1.85,1.05h0Z"/>
      </g>
      <g>
        <path class="cls-1" d="M269.33,196c2.48.27,5.01.08,7.43-.56"/>
        <path d="M269.33,197.5c2.62.28,5.28.05,7.82-.61.76-.2,1.29-1.08,1.05-1.85s-1.03-1.26-1.85-1.05c-.59.15-1.19.29-1.79.39-.14.02-.28.04-.42.07-.18.03-.19.03-.02,0-.07,0-.14.02-.21.03-.3.04-.61.06-.91.09-1.22.09-2.45.06-3.67-.07-.78-.08-1.53.75-1.5,1.5.04.88.66,1.41,1.5,1.5h0Z"/>
      </g>
      <g>
        <path class="cls-1" d="M136.58,170.14l3.06-.32"/>
        <path d="M136.58,171.64l3.06-.32c.21,0,.4-.04.58-.13.19-.06.35-.16.48-.31.26-.26.46-.69.44-1.06s-.14-.79-.44-1.06c-.28-.25-.67-.48-1.06-.44l-3.06.32c-.21,0-.4.04-.58.13-.19.06-.35.16-.48.31-.26.26-.46.69-.44,1.06s.14.79.44,1.06c.28.25.67.48,1.06.44h0Z"/>
      </g>
      <g>
        <path class="cls-1" d="M139.37,175.94l3.32-.76"/>
        <path d="M139.77,177.39l3.32-.76c.36-.08.71-.38.9-.69s.27-.8.15-1.16c-.26-.8-1.03-1.24-1.85-1.05l-3.32.76c-.36.08-.71.38-.9.69s-.27.8-.15,1.16c.26.8,1.03,1.24,1.85,1.05h0Z"/>
      </g>
      <g>
        <path class="cls-1" d="M265.27,215.82l1.55,1.25"/>
        <path d="M264.21,216.88l1.55,1.25c.14.15.3.25.48.31.18.09.37.14.58.13.21,0,.4-.04.58-.13.19-.06.35-.16.48-.31.26-.29.46-.66.44-1.06l-.05-.4c-.07-.25-.2-.47-.39-.66l-1.55-1.25c-.14-.15-.3-.25-.48-.31-.18-.09-.37-.14-.58-.13-.21,0-.4.04-.58.13-.19.06-.35.16-.48.31-.26.29-.46.66-.44,1.06l.05.4c.07.25.2.47.39.66h0Z"/>
      </g>
      <g>
        <path class="cls-1" d="M269.08,211.5l1.84,1.99"/>
        <path d="M268.02,212.56l1.84,1.99c.14.15.3.25.48.31.18.09.37.14.58.13.21,0,.4-.04.58-.13.19-.06.35-.16.48-.31.26-.29.46-.66.44-1.06s-.16-.76-.44-1.06l-1.84-1.99c-.14-.15-.3-.25-.48-.31-.18-.09-.37-.14-.58-.13-.21,0-.4.04-.58.13-.19.06-.35.16-.48.31-.26.29-.46.66-.44,1.06s.16.76.44,1.06h0Z"/>
      </g>
      <g>
        <path class="cls-1" d="M202.71,235.88h1.91c4.35,0,9.2-.18,12.27-3.27.64-.64,1.18-1.41,1.44-2.28.38-1.27.13-2.62.01-3.94-.16-1.82-.07-3.66.27-5.45"/>
        <path d="M202.71,237.38c4.43,0,9.37.23,13.29-2.18,2.07-1.28,3.73-3.21,3.99-5.69.14-1.34-.15-2.68-.21-4.02s.03-2.77.28-4.14c.14-.8-.22-1.62-1.05-1.85-.73-.2-1.7.25-1.85,1.05-.24,1.33-.4,2.67-.4,4.03,0,1.18.16,2.35.24,3.53.07,1.05-.02,1.98-.65,2.85-.54.73-1.28,1.32-2.06,1.78-3.42,1.99-7.78,1.66-11.58,1.65-1.93,0-1.93,3,0,3h0Z"/>
      </g>
      <g>
        <path class="cls-1" d="M179.97,252.12c4.02,1.63,8.49,2.16,12.79,1.52"/>
        <path d="M179.57,253.57c4.32,1.73,9,2.19,13.58,1.52.8-.12,1.24-1.13,1.05-1.85-.24-.86-1.04-1.16-1.85-1.05-4.05.59-8.2,0-11.99-1.52-.75-.3-1.65.33-1.85,1.05-.23.85.29,1.54,1.05,1.85h0Z"/>
      </g>
      <g>
        <path d="M164.88,163.28c-1.32-1.3-3.52-.78-5.24-.09-1.73.69-3.55,1.57-4.41,3.22-.82,1.57-.57,3.45-.29,5.19.23,1.43.55,3.01,1.72,3.86.73.53,1.67.68,2.58.78,2.83.31,6.02.21,8.08-1.76,1.19-1.14,1.82-2.74,2.2-4.34.27-1.15.42-2.38-.01-3.48-.54-1.35-1.87-2.22-3.22-2.74-3.02-1.18-6.62-1.02-9.31.78-2.69,1.79-4.25,5.31-3.41,8.43.22.8.58,1.57,1.17,2.15.76.76,1.82,1.14,2.87,1.38,1.86.41,3.78.42,5.67.23,1.59-.16,3.25-.51,4.43-1.59,1.38-1.26,1.8-3.24,2.12-5.08.35-2.04.48-4.57-1.25-5.72-.45-.3-.98-.46-1.5-.6-2.22-.61-4.49-1-6.78-1.19"/>
        <path d="M165.94,162.22c-1.5-1.36-3.46-1.44-5.34-.94-1.78.47-3.61,1.29-5.05,2.45-1.65,1.33-2.4,3.26-2.39,5.35.01,1.87.31,4.04,1.11,5.75.95,2.03,2.87,2.69,4.96,2.92,1.84.2,3.75.21,5.56-.26,4.06-1.05,6.27-4.95,6.48-8.97.23-4.5-4.41-6.56-8.23-6.83s-7.75,1.45-9.8,4.8c-1.91,3.13-2.13,8.03,1.11,10.4,1.66,1.21,3.93,1.51,5.93,1.59s4.23-.03,6.12-.74c2.22-.82,3.62-2.51,4.33-4.73.56-1.76.94-3.83.79-5.68-.19-2.27-1.31-4-3.52-4.74-2.45-.82-5.14-1.18-7.7-1.39-.81-.07-1.5.74-1.5,1.5,0,.87.69,1.43,1.5,1.5,1.74.15,3.47.42,5.17.82,1.13.27,2.54.4,2.92,1.66.33,1.07.15,2.28-.05,3.36-.23,1.27-.46,2.73-1.29,3.76s-2.18,1.36-3.41,1.52c-1.55.21-3.2.25-4.75.03-1.24-.18-2.76-.47-3.46-1.63-.61-1.01-.72-2.33-.49-3.47.52-2.58,2.45-4.58,4.97-5.29,2.36-.66,5.75-.42,7.6,1.37,1.03,1,.83,2.36.51,3.64s-.86,2.69-1.94,3.59c-1.91,1.6-5.22,1.55-7.53,1.05-1.58-.35-1.86-1.65-2.11-3.09s-.61-3.34.27-4.69c.75-1.16,2.21-1.78,3.45-2.26,1-.39,2.74-1.1,3.67-.25,1.43,1.3,3.55-.82,2.12-2.12h0Z"/>
      </g>
      <g>
        <path d="M252.99,196.22c-1.91-.59-4.13.21-5.32,1.82s-1.31,3.9-.41,5.68,2.76,3.02,4.74,3.28c1.05.14,2.12.03,3.17-.14,2.11-.33,4.42-1.04,5.42-2.92,1.24-2.33-.32-5.37-2.65-6.6s-5.12-1.12-7.74-.81"/>
        <path d="M253.39,194.77c-3.46-.98-7.18,1.23-8.01,4.73-.87,3.68,1.26,7.18,4.69,8.54,1.83.72,3.8.56,5.7.24,1.48-.25,3.02-.68,4.26-1.56,1.44-1.01,2.39-2.5,2.5-4.28.1-1.5-.47-3.03-1.36-4.22-2.58-3.46-7.02-3.65-10.96-3.2-.8.09-1.5.62-1.5,1.5,0,.74.69,1.59,1.5,1.5,2.44-.28,5.52-.57,7.59.98,1.49,1.12,2.35,3.23,1.21,4.64-.6.74-1.6,1.15-2.55,1.41-1.28.36-2.65.57-3.98.49-2.14-.13-4.14-1.82-4.31-4.01-.09-1.23.34-2.51,1.34-3.28.91-.7,2.03-.89,3.06-.6,1.86.53,2.66-2.37.8-2.89h0Z"/>
      </g>
      <g>
        <path class="cls-1" d="M186.1,129.28c3.93,2.35,8.95,1.34,13.29-.12,9.4-3.16,18.2-8.07,25.81-14.41,4.45-3.7,8.65-8.14,10.21-13.72"/>
        <path d="M185.34,130.57c3.61,2.05,7.79,1.84,11.7.85s7.95-2.66,11.7-4.42c7.56-3.56,14.88-8.3,20.85-14.19,3.25-3.2,5.97-6.96,7.27-11.38.54-1.86-2.35-2.65-2.89-.8-2.09,7.16-8.45,12.34-14.29,16.5-6.32,4.51-13.31,8.12-20.68,10.58-3.85,1.29-8.38,2.41-12.14.27-1.68-.96-3.19,1.63-1.51,2.59h0Z"/>
      </g>
      <g>
        <path class="cls-1" d="M193.76,135.58l7.17-1.14"/>
        <path d="M194.16,137.03l7.17-1.14c.78-.12,1.28-1.13,1.05-1.85-.27-.84-1.01-1.18-1.85-1.05l-7.17,1.14c-.78.12-1.28,1.13-1.05,1.85.27.84,1.01,1.18,1.85,1.05h0Z"/>
      </g>
      <g>
        <path class="cls-1" d="M206.52,131.67c11.52-.71,21.28-8.72,28.81-17.47,2.14-2.48,4.25-5.26,4.57-8.52.24-2.44-1.16-5.38-3.61-5.49"/>
        <path d="M206.52,133.17c7.62-.53,14.45-3.95,20.37-8.63,2.96-2.34,5.66-4.98,8.18-7.78s5.31-5.89,6.12-9.68-.78-7.99-4.89-8.39c-1.92-.19-1.91,2.82,0,3,1.6.15,2.19,2.35,2.13,3.67-.09,2.02-1.18,3.89-2.32,5.49-2.33,3.27-5.29,6.25-8.26,8.95-5.92,5.39-13.16,9.8-21.32,10.37-1.92.13-1.93,3.13,0,3h0Z"/>
      </g>
      <g>
        <path class="cls-1" d="M239.32,101.78c2.64,1.43,4.38,4.14,5.32,6.99s1.15,5.87,1.43,8.86c.59,6.38,1.62,13.07,5.58,18.11,2.8,3.56,6.78,5.94,10.3,8.78s6.79,6.58,7.14,11.1"/>
        <path d="M238.56,103.07c3.66,2.09,4.99,6.3,5.56,10.23.62,4.3.73,8.63,1.69,12.88.89,3.96,2.44,7.77,5.03,10.93s6.17,5.43,9.4,7.95,6.91,6.07,7.35,10.55c.18,1.9,3.19,1.92,3,0-.88-9.15-9.73-12.94-15.66-18.53-3.21-3.02-5.06-6.84-6.08-11.09s-1.17-8.98-1.83-13.48c-.7-4.73-2.59-9.55-6.94-12.03-1.68-.96-3.19,1.63-1.51,2.59h0Z"/>
      </g>
      <g>
        <path class="cls-1" d="M243.36,108.16c2.14,3.63,3.02,7.84,4.27,11.86s3.05,8.12,6.42,10.65c2.52,1.89,5.7,2.73,8.27,4.56,4.73,3.38,6.57,9.43,8.11,15.04"/>
        <path d="M242.06,108.92c3.53,6.15,3.62,13.75,7.85,19.58,2.11,2.91,4.88,4.53,8.06,6.04,3,1.43,5.43,3.14,7.18,6.02,1.89,3.1,2.88,6.64,3.83,10.12.51,1.86,3.41,1.07,2.89-.8-1.67-6.07-3.74-12.67-9.31-16.29-2.91-1.89-6.45-2.74-8.92-5.28s-3.65-5.71-4.63-8.9c-1.26-4.08-2.21-8.28-4.36-12.01-.96-1.67-3.56-.16-2.59,1.51h0Z"/>
      </g>
      <g>
        <path class="cls-1" d="M79.39,180.37c-5.98-6.29-8.73-15.51-7.16-24.04s7.41-16.18,15.24-19.93c2.57-1.23,5.41-2.07,8.26-1.87,3.69.26,7.08,2.27,9.71,4.86,3.26,3.21,5.56,7.39,6.51,11.87.72,3.35.69,6.81.57,10.23-.48,13.42-2.44,26.8-5.84,39.79-.41,1.57-1.06,3.38-2.62,3.85-.99.3-2.06-.05-3.01-.46-10.12-4.36-15.96-14.83-21.07-24.59"/>
        <path d="M80.45,179.31c-7.16-7.64-9.28-19.39-4.75-28.92,2.1-4.41,5.36-8.28,9.45-10.96,4.66-3.06,10.26-4.72,15.42-1.86,4.69,2.6,8.07,7.43,9.55,12.52,1.71,5.92.97,12.53.51,18.58-.48,6.41-1.3,12.78-2.47,19.1-.57,3.07-1.21,6.12-1.93,9.15-.34,1.43-.67,2.86-1.07,4.27-.26.93-.62,2.32-1.72,2.52-1.26.23-3.06-.98-4.12-1.58-1.22-.69-2.39-1.48-3.48-2.36-2.11-1.71-3.99-3.71-5.67-5.84-3.54-4.48-6.25-9.57-8.88-14.61-.9-1.71-3.49-.2-2.59,1.51,5.09,9.71,11.03,20.57,21.61,25.13,2.79,1.21,5.6.91,7.03-2.03.63-1.3.93-2.73,1.28-4.12.43-1.71.83-3.42,1.21-5.14,1.54-7,2.67-14.1,3.39-21.23.36-3.5.61-7.01.76-10.53s.24-7.15-.32-10.69c-.92-5.85-4.02-11.48-8.63-15.23-2.29-1.86-4.97-3.34-7.91-3.81-3.3-.53-6.55.2-9.57,1.53-5.11,2.25-9.45,6.1-12.51,10.75-7.34,11.17-5.79,26.24,3.3,35.95,1.32,1.41,3.44-.71,2.12-2.12h0Z"/>
      </g>
      <g>
        <path class="cls-1" d="M94.18,190.54c-1.4,2.81-3.41,5.26-5.11,7.9s-3.12,5.61-3.1,8.75c0,.39.04.82.29,1.12.38.48,1.15.47,1.67.15s.86-.86,1.16-1.39c2.62-4.51,4.64-9.38,5.98-14.42.2-.76.33-1.73-.31-2.2"/>
        <path class="cls-2" d="M92.88,189.78c-2.86,5.65-8.27,10.35-8.41,17.09-.03,1.51.54,2.96,2.17,3.26s2.83-.8,3.61-2.07c1.71-2.76,3.07-5.79,4.24-8.81.67-1.72,1.26-3.48,1.77-5.25.44-1.54.91-3.36-.43-4.6-1.42-1.31-3.54.81-2.12,2.12.08.06.09.04.03-.07,0,.11,0,.22,0,.33-.07.37-.18.74-.28,1.11-.2.73-.42,1.46-.66,2.19-.5,1.55-1.06,3.09-1.69,4.59s-1.31,2.94-2.06,4.37c-.38.72-.77,1.44-1.18,2.14-.14.24-.26.5-.43.71-.08.1-.17.2-.28.28-.11.03-.09.04.04.04.37.84.25-.19.26-.33,0-.31.02-.62.06-.93.1-.79.31-1.57.57-2.33.5-1.47,1.26-2.84,2.09-4.15,1.73-2.74,3.81-5.26,5.28-8.16.87-1.72-1.72-3.24-2.59-1.51h0Z"/>
      </g>
      <g>
        <path class="cls-1" d="M101.55,195.91l-2.91,8.47c-1.15,3.35-2.31,6.73-2.63,10.26-.11,1.16.06,2.62,1.15,3.03,1.25.46,2.39-.89,2.95-2.09,2.52-5.39,2.89-11.49,3.23-17.43.05-.85.09-1.73-.16-2.55-.07-.23-.17-.46-.35-.62-.3-.27-.81-.26-1.1.02s-.32.79-.06,1.1"/>
        <path class="cls-2" d="M100.11,195.51c-1.48,4.29-3.09,8.56-4.37,12.92-.6,2.05-1.12,4.2-1.24,6.34-.09,1.5.27,3.25,1.67,4.07,1.63.95,3.4.07,4.45-1.27,1.19-1.52,1.82-3.56,2.35-5.38,1.18-4.03,1.52-8.26,1.78-12.43.11-1.85.66-4.85-1.16-6.09-2.15-1.47-4.31,1.11-3.22,3.17.9,1.71,3.49.19,2.59-1.51-1.04.05-1.42.38-1.14,1.01.04.23.05.46.05.69,0,.37-.02.74-.04,1.1-.05.95-.11,1.9-.17,2.84-.12,1.76-.26,3.53-.51,5.28-.27,1.86-.64,3.72-1.2,5.52-.28.9-.59,1.8-.98,2.66-.25.56-.56,1.38-1.13,1.7-.31.17-.3.01-.37-.51-.1-.73.07-1.57.18-2.28.3-1.89.82-3.73,1.4-5.55,1.23-3.86,2.61-7.67,3.93-11.49.63-1.83-2.27-2.62-2.89-.8h0Z"/>
      </g>
      <g>
        <path class="cls-1" d="M83.38,153.46c2.22-2.86,6.54-3.17,9.96-2,2.52.86,4.81,2.39,6.57,4.39,1.33,1.51,2.35,3.26,3.37,5.01,1.45,2.5,2.9,4.99,4.36,7.49.37-.26.75-.52,1.12-.78"/>
        <path d="M84.44,154.52c3.09-3.76,8.84-2.12,12.2.35,2.19,1.61,3.65,3.87,5.01,6.19,1.57,2.68,3.12,5.37,4.68,8.05.38.66,1.38,1,2.05.54.37-.26.75-.52,1.12-.78,1.58-1.09.08-3.69-1.51-2.59-.37.26-.75.52-1.12.78l2.05.54c-1.81-3.12-3.57-6.28-5.46-9.35-1.64-2.65-3.63-4.98-6.31-6.63-4.38-2.69-11.19-3.66-14.84.79-1.22,1.48.89,3.61,2.12,2.12h0Z"/>
      </g>
      <g>
        <path class="cls-1" d="M77.03,75.11c-4.55,7.62-1.83,17.41-3.51,26.12-.57,2.93-1.64,5.76-1.97,8.73-.17,1.6-.11,3.29.66,4.71s2.37,2.47,3.95,2.19c.98-.18,1.82-.82,2.52-1.53,2.05-2.07,3.31-4.91,3.47-7.82.22-4.04-1.57-7.88-3.13-11.62-2.67-6.44-4.74-13.66-2.6-20.29"/>
        <path d="M75.74,74.36c-3.07,5.29-3.05,11.43-3.07,17.37-.01,3.04-.02,6.12-.6,9.11-.64,3.32-1.92,6.53-2.08,9.94-.14,2.85.86,5.91,3.63,7.17s5.44-.53,7.17-2.75,2.82-5.18,2.89-8.12c.07-3.3-1.08-6.47-2.32-9.48-2.81-6.8-5.75-14.19-3.47-21.58.57-1.85-2.32-2.64-2.89-.8-1.72,5.57-.81,11.46,1.01,16.89s5.57,10.89,4.52,16.6c-.43,2.32-1.76,5.19-3.9,6.4-1.09.62-2.24.13-2.91-.86-.76-1.11-.79-2.57-.68-3.87.25-3.05,1.43-5.94,1.99-8.94.49-2.65.62-5.34.66-8.03.07-5.9-.41-12.23,2.67-17.53.97-1.67-1.62-3.19-2.59-1.51h0Z"/>
      </g>
      <g>
        <path class="cls-1" d="M176.91,62.35c-2.29.62-3.93,2.62-5.14,4.66-1.56,2.63-2.71,5.5-3.37,8.49-.45,2-.67,4.13.02,6.05s2.49,3.58,4.53,3.52c2.62-.07,4.4-2.71,5.17-5.21s1.04-5.27,2.67-7.32c1.26-1.59,3.3-2.69,3.79-4.66.47-1.87-.79-3.87-2.51-4.74s-3.77-.84-5.67-.48"/>
        <path d="M176.51,60.9c-4.61,1.39-7.06,6.56-8.56,10.75-1.59,4.45-2.82,10.72,1.72,13.89,1.79,1.25,4.15,1.35,6.03.22s3.01-3.07,3.71-5.05c.76-2.14.92-4.54,2.07-6.53s3.23-2.92,4.18-4.94c1.07-2.27.26-4.92-1.6-6.52-2.26-1.94-5.28-1.99-8.07-1.49-1.9.33-1.09,3.23.8,2.89,1.73-.31,3.85-.39,5.28.83,1.23,1.05,1.42,2.54.39,3.78s-2.46,2.22-3.38,3.65-1.4,3.18-1.81,4.84c-.55,2.21-1.91,7.47-5.29,6.2-3.8-1.43-2.4-7-1.52-9.82.67-2.14,1.6-4.2,2.78-6.11.98-1.58,2.23-3.13,4.07-3.68s1.06-3.45-.8-2.89h0Z"/>
      </g>
      <g>
        <path class="cls-1" d="M182.98,91.01c.9-6.68,3.63-13.11,7.81-18.4,1.36-1.71,2.96-3.38,5.05-4.02s4.74.08,5.61,2.08c.56,1.27.29,2.79-.37,4.01s-1.67,2.21-2.68,3.16c1.71-.97,3.46-1.96,5.39-2.31s4.12.06,5.43,1.53c1.58,1.77,1.4,4.64.07,6.61s-3.57,3.14-5.84,3.82-4.65.96-6.94,1.55c-4.42,1.15-8.71,3.51-13.24,2.99"/>
        <path d="M184.42,91.41c.89-6.36,3.34-12.46,7.28-17.56,1.53-1.98,3.85-4.63,6.68-3.86,1.29.35,2.05,1.36,1.83,2.72-.28,1.69-1.69,2.95-2.87,4.07-1.25,1.18.35,3.19,1.82,2.36,2.35-1.34,6.69-3.81,9-1.01s-.81,6.01-3.18,7.18c-3.33,1.64-7.27,1.73-10.78,2.85s-7.09,2.73-10.93,2.38c-1.92-.18-1.91,2.82,0,3,3.72.35,7.21-.96,10.67-2.13s7.45-1.49,10.99-2.83c2.95-1.12,5.74-3.12,6.64-6.29.84-2.99-.27-6.32-3.19-7.66-3.7-1.71-7.47.08-10.71,1.93l1.82,2.36c1.49-1.41,2.98-2.96,3.54-4.99.52-1.86.19-3.95-1.21-5.35-2.7-2.69-6.83-1.84-9.52.33-3.05,2.46-5.33,6.24-7.04,9.72-1.86,3.78-3.11,7.82-3.7,12-.11.81.2,1.6,1.05,1.85.7.2,1.73-.25,1.85-1.05h0Z"/>
      </g>
      <g>
        <path class="cls-1" d="M238.34,33.54c.73,15.01-4.53,29.57-7.32,44.34-.23,1.21-.44,2.48-.06,3.66.51,1.61,2.08,2.73,3.74,3.06s3.38-.02,4.97-.59c3.37-1.23,6.34-3.52,8.39-6.47,2.9-4.18,4.08-9.74,8.23-12.69,2.13-1.51,4.75-2.11,7.11-3.23s4.62-3.15,4.71-5.76c.07-2.08-1.33-3.99-3.05-5.16s-3.76-1.77-5.73-2.47c-6.7-2.38-13.34-6.63-15.75-13.32-.41-1.15-.7-2.37-1.41-3.37s-1.98-1.73-3.14-1.35-1.63,2.23-.58,2.86"/>
        <path d="M236.84,33.54c.53,11.99-2.68,23.62-5.38,35.19-.68,2.9-1.34,5.82-1.88,8.75-.49,2.64-.47,5.29,1.76,7.13,4.25,3.51,10.51.71,14.24-2.26,3.94-3.14,5.57-7.58,7.93-11.84,1.13-2.04,2.5-3.87,4.57-5.03,2.24-1.25,4.81-1.77,7.02-3.09,1.92-1.15,3.71-2.88,4.29-5.11.61-2.35-.28-4.7-1.88-6.44-1.7-1.85-4.1-2.78-6.41-3.59s-4.57-1.69-6.72-2.88c-2.35-1.31-4.53-2.9-6.33-4.91s-2.71-4.35-3.7-6.89c-.91-2.36-3.29-4.95-6.09-3.68-2.24,1.02-2.49,4.01-.58,5.45,1.54,1.16,3.04-1.44,1.51-2.59.44.33-.07-.04.25-.08.36-.04.49-.09.89.14.96.57,1.26,1.92,1.6,2.91.64,1.9,1.52,3.68,2.72,5.29,2.44,3.27,5.77,5.75,9.39,7.58,1.83.92,3.74,1.68,5.67,2.35,2.07.72,4.34,1.44,5.8,3.16,1.35,1.59,1.4,3.54.02,5.12s-3.33,2.32-5.22,3.04c-2.01.77-3.99,1.56-5.67,2.96-1.52,1.26-2.68,2.92-3.64,4.62-2,3.56-3.32,7.47-6.35,10.35-1.54,1.46-3.4,2.65-5.39,3.37s-4.89,1.26-6.45-.69c-.72-.9-.62-2.07-.44-3.14.22-1.31.5-2.61.78-3.91.54-2.54,1.13-5.06,1.73-7.59,2.63-11.05,5.46-22.24,4.95-33.69-.09-1.92-3.09-1.93-3,0h0Z"/>
      </g>
      <g>
        <path class="cls-1" d="M276.99,54.19c-1.35.37-2.67.96-3.67,1.94s-1.62,2.41-1.4,3.79c.27,1.69,1.8,3.02,3.48,3.35s3.45-.21,4.88-1.17c1.06-.71,1.99-1.68,2.4-2.88s.21-2.66-.69-3.55c-.39-.39-.89-.65-1.4-.87-1.37-.59-2.86-.89-4.35-.89"/>
        <path d="M276.59,52.74c-2.61.73-5.08,2.26-5.95,4.97-.83,2.55.5,5.29,2.87,6.46s5.33.7,7.54-.77,3.93-4.02,3.17-6.78c-.9-3.25-5.02-4.19-7.97-4.21-.81,0-1.5.69-1.5,1.5s.69,1.49,1.5,1.5c1.03,0,1.95.15,2.95.46.44.14.83.29,1.23.5.11.06.32.18.38.23.08.07.17.16.24.24-.13-.15.13.2.13.21.01.02.13.25.05.07.04.09.07.2.1.3s.05.21.07.31c-.01-.08,0-.22,0,.08,0,.08,0,.16,0,.24,0,.03-.02.36,0,.2s-.03.16-.04.2c-.03.13-.07.26-.11.38-.09.29-.06.17-.03.1-.04.1-.1.2-.15.29-.11.19-.22.38-.36.55.1-.13-.08.08-.08.08-.08.08-.15.16-.23.24-.18.18-.36.35-.56.5-.21.17.13-.09-.09.07-.09.07-.18.13-.28.19-.2.13-.4.25-.61.36-.44.24-.72.34-1.21.48-.78.21-1.5.25-2.27.01-.54-.17-1.18-.57-1.55-1.08-.18-.25-.27-.42-.36-.75-.1-.36-.1-.63-.05-.89.18-.89.61-1.55,1.37-2.15.71-.57,1.65-.93,2.62-1.2,1.86-.52,1.07-3.42-.8-2.89h0Z"/>
      </g>
      <g>
        <path class="cls-1" d="M221.36,8.78c1.1-1.82,3.37-2.68,5.49-2.56s4.11,1.07,5.91,2.19c3.09,1.92,6.04,4.83,6.19,8.46,3.94-5.21,11.54-7.29,17.58-4.79-.27-.22-.64-.31-.97-.24"/>
        <path d="M222.66,9.53c2.07-3.15,6.44-1.59,8.99-.06s5.58,4.04,5.81,7.39c.08,1.14,1.69,2.18,2.56,1.06,3.77-4.86,10.41-6.68,16.12-4.4,1.61.64,2.57-1.9,1.16-2.74-.56-.33-1.08-.48-1.73-.45-1.92.1-1.93,3.1,0,3l.22.04,1.16-2.74c-6.58-2.62-14.7-.42-19.04,5.17l2.56,1.06c-.32-4.77-4.06-8.23-8.04-10.41s-9.51-2.76-12.35,1.56c-1.06,1.62,1.53,3.12,2.59,1.51h0Z"/>
      </g>
      <g>
        <path class="cls-1" d="M312.88,80.43c1.8,3.6,2.25,7.69,2.68,11.69.63,5.92,1.27,11.84,1.9,17.76.34,3.14.67,6.29.68,9.45,0,4.9-.79,9.75-1.55,14.59-.32,2.06-.63,4.2.02,6.18s2.58,3.7,4.64,3.38c1.34-.21,2.41-1.2,3.26-2.26,2.97-3.72,4.08-8.67,3.88-13.43s-1.59-9.38-3.17-13.87c-3.91-11.09-9.08-21.83-11.31-33.39"/>
        <path d="M311.59,81.18c2.01,4.15,2.26,8.89,2.74,13.4.54,5.02,1.07,10.03,1.61,15.05s.9,9.52.49,14.34c-.21,2.47-.57,4.92-.94,7.37-.34,2.23-.88,4.54-.73,6.81.24,3.6,2.97,7.65,7.07,6.73,3.79-.85,6.07-5.66,7.09-9.01,2.65-8.69-.48-17.71-3.53-25.85-3.69-9.85-8-19.52-10.03-29.89-.37-1.89-3.26-1.09-2.89.8,1.67,8.53,4.89,16.61,8.03,24.68s6.86,16.13,6.38,24.63c-.21,3.68-1.34,7.72-3.91,10.48-1.19,1.28-2.68,1.79-4.02.4s-1.31-3.59-1.1-5.43c.51-4.49,1.45-8.91,1.71-13.44s-.22-8.92-.7-13.37c-.55-5.1-1.09-10.2-1.64-15.3-.51-4.76-.93-9.56-3.05-13.93-.84-1.74-3.43-.22-2.59,1.51h0Z"/>
      </g>
      <g>
        <path class="cls-1" d="M237.01,413.98c-1-6.59,2.16-13.08,5.87-18.62,3.71-5.54,8.13-10.77,10.19-17.11,2.63-8.1,1.06-16.92-.89-25.21-.21-.91-.41-1.96.14-2.72.79-1.09,2.49-.82,3.69-.2,4.52,2.32,6.87,7.62,7.02,12.7.15,5.07-1.54,10-3.32,14.76-3.33,8.93-7.12,17.85-13.05,25.31-1.7,2.14-3.58,4.17-4.92,6.55-1.86,3.32-2.55,7.17-2.78,10.97-.89-.78-1.8-1.59-2.33-2.66s-.57-2.45.21-3.35"/>
        <path d="M238.46,413.58c-1.37-9.94,6.56-18.21,11.55-25.89,2.58-3.98,4.69-8.27,5.47-12.99.83-5.02.45-10.08-.4-15.07-.42-2.46-1.08-4.87-1.53-7.33-.16-.86-.13-1.35.86-1.17s1.89.84,2.62,1.45c3.09,2.58,4.48,6.78,4.51,10.7.04,5.18-1.86,10.15-3.66,14.93s-3.62,9.2-5.91,13.59c-1.25,2.4-2.62,4.74-4.14,6.98s-3.29,4.28-4.97,6.41-3.09,4.44-3.98,7.06-1.25,5.41-1.43,8.17l2.56-1.06c-1.12-.99-3.08-2.57-1.88-4.19s-1.45-3.05-2.59-1.51c-2.1,2.83.2,5.93,2.35,7.82,1,.88,2.48.26,2.56-1.06.17-2.65.56-5.28,1.47-7.79s2.47-4.63,4.15-6.67c3.35-4.07,6.27-8.34,8.69-13.04s4.39-9.6,6.24-14.53,3.79-10.43,3.51-15.93c-.21-4.27-1.79-8.69-4.97-11.65-1.47-1.37-3.44-2.72-5.53-2.72-2.33,0-3.75,1.85-3.5,4.1.28,2.53,1.1,5.05,1.55,7.56.49,2.73.83,5.48.88,8.26.11,5.44-1.09,10.53-3.77,15.28-5.57,9.89-15.33,18.71-13.62,31.11.11.81,1.14,1.23,1.85,1.05.87-.23,1.16-1.05,1.05-1.85h0Z"/>
      </g>
      <g>
        <path class="cls-1" d="M303.12,378.07c-.96-2.02-.21-4.41.68-6.47,2.31-5.33,5.56-10.36,6.63-16.07,1.18-6.26-.38-12.68-1.94-18.87-.95-3.77-1.89-7.54-3.07-11.24-2.79-8.74-6.94-17.54-5.87-26.65.43-3.69,1.72-7.23,2.37-10.89,2.62-14.65-4.98-29.48-3.52-44.29.06-.57.13-1.15.43-1.64,1.09-1.78,3.9-.84,5.4.61,3.43,3.33,4.96,8.22,5.26,12.99s-.49,9.54-1.02,14.29c-2.36,21.04.34,42.62,7.8,62.43,1.91,5.06,4.16,10.39,3.09,15.69-.43,2.14-1.39,4.13-2.4,6.07-2.25,4.33-4.76,8.52-7.53,12.54-2.91,4.22-6.2,8.49-6.87,13.57.34-.55.68-1.1,1.02-1.65"/>
        <path d="M304.57,377.67c-.89-2.14.07-4.33.97-6.31s1.98-4.07,2.96-6.11c1.99-4.14,3.59-8.39,3.81-13.03.24-5-.88-9.98-2.08-14.8s-2.41-9.63-4-14.33c-3.01-8.91-6.78-17.79-4.62-27.34,1.04-4.62,2.3-9.04,2.36-13.81s-.62-9.3-1.44-13.88-1.83-9.16-2.38-13.8c-.27-2.28-.44-4.58-.43-6.89,0-1.11.04-2.23.15-3.33.08-.85.09-1.67,1.12-1.55,1.8.22,3.17,2.02,4.08,3.42,1.13,1.74,1.87,3.67,2.35,5.68,1.09,4.57.63,9.35.08,13.97-1.13,9.54-1.68,19.03-1.01,28.63s2.29,18.87,4.89,28c1.33,4.68,3.03,9.21,4.7,13.77s2.91,9.2,1.18,13.9c-1.63,4.43-4.36,8.65-6.89,12.61-2.4,3.75-5.29,7.26-7.27,11.27-.94,1.9-1.66,3.9-1.97,6-.24,1.6,1.78,2.7,2.74,1.16.34-.55.68-1.1,1.02-1.65,1.02-1.65-1.57-3.15-2.59-1.51-.34.55-.68,1.1-1.02,1.65l2.74,1.16c.67-4.55,3.31-8.32,5.89-12.01,2.89-4.15,5.56-8.43,7.93-12.9,1.08-2.05,2.19-4.16,2.79-6.42.64-2.41.63-4.87.24-7.32-.78-4.97-3.08-9.61-4.68-14.35-6.38-18.89-8.41-39.09-6.06-58.89,1.07-8.98,2.43-19.53-4.4-26.73-2.46-2.6-7.85-3.94-8.7.84s-.16,9.71.53,14.33c1.41,9.45,4.3,18.94,3.2,28.58-.57,5.04-2.6,9.79-2.84,14.88-.22,4.76.86,9.51,2.27,14.03,1.49,4.78,3.33,9.44,4.71,14.25s2.82,10.12,3.77,15.25.98,10.09-.76,15c-1.58,4.46-4.15,8.48-5.86,12.89-.8,2.06-1.23,4.38-.36,6.48.31.75.99,1.27,1.85,1.05.71-.19,1.36-1.1,1.05-1.85h0Z"/>
      </g>
      <g>
        <path class="cls-1" d="M327.83,319.19c-1.47-.77-3.38.49-3.74,2.11s.46,3.28,1.57,4.5,2.53,2.13,3.73,3.26c2.19,2.04,3.68,4.81,4.19,7.76.17,1,.09,2.28-.84,2.69,1.39-1.2,2.84-2.48,3.4-4.23.64-1.99-.04-4.2-1.15-5.97s-2.64-3.24-3.93-4.89c-1.49-1.9-2.67-4.05-3.47-6.33"/>
        <path d="M328.59,317.89c-2.15-.95-4.58-.01-5.62,2.12-1.17,2.42.05,5.16,1.75,6.97s4.04,3.13,5.48,5.33c.69,1.05,1.23,2.18,1.58,3.39.16.55.68,2.24.2,2.51l1.82,2.36c1.62-1.39,3.24-2.94,3.84-5.06s.01-4.56-1.08-6.51-2.79-3.59-4.2-5.36-2.54-3.81-3.31-5.96c-.65-1.8-3.55-1.02-2.89.8s1.55,3.7,2.66,5.37,2.63,3.24,3.93,4.88c1.16,1.45,2.27,3.27,2.14,5.2s-1.82,3.33-3.2,4.52.37,3.17,1.82,2.36c1.97-1.1,1.79-3.51,1.31-5.4-.59-2.32-1.74-4.47-3.29-6.29s-3.7-2.89-5.11-4.75c-.57-.75-1.14-1.85-.84-2.81.15-.5.87-1.35,1.5-1.08,1.75.77,3.28-1.81,1.51-2.59h0Z"/>
      </g>
      <g>
        <path class="cls-1" d="M351.27,310.87c-1.27.53-2.18,1.72-2.6,3.03s-.39,2.72-.16,4.08c.12.72.32,1.48.86,1.99.91.87,2.56.58,3.32-.43s.71-2.47.1-3.57-1.68-1.89-2.81-2.44c-.12-.06-.28-.1-.37,0s.17.23.15.1"/>
        <path d="M350.51,309.57c-1.86.82-3.13,2.77-3.49,4.72-.23,1.26-.19,2.49,0,3.75.16,1.06.47,2.14,1.25,2.93,1.57,1.59,4.3,1.16,5.61-.53,1.46-1.89.96-4.5-.48-6.23-.69-.82-1.62-1.49-2.58-1.95s-2.1-.39-2.56.69.35,2.26,1.51,2.23c.69-.02,1.23-.46,1.45-1.1l.02-.05c.24-.75-.28-1.67-1.05-1.85-.82-.19-1.58.25-1.85,1.05l-.02.05,1.45-1.1h-.05c.25.07.5.14.76.21l-.06-.03.54.54-.04-.05.15,1.16v-.06c-.22.3-.45.6-.68.9l.08-.05-.76.2c-.17.02-.52-.19-.15,0,.12.07.25.13.37.21.14.08.28.17.42.26.06.04.12.08.17.12.19.14-.15-.13.03.02.23.2.45.41.65.63.19.21.06.08.02.02.04.06.08.11.12.17.1.15.18.32.27.48.08.15,0-.02-.02-.05.02.06.05.13.07.19.05.15.08.31.11.46-.06-.25,0,.03,0,.14,0,.07,0,.14,0,.2,0,.14-.03.28,0,.07-.02.13-.06.26-.09.39-.02.07-.12.24,0,.01-.03.06-.06.12-.09.18s-.07.11-.11.17c.02-.03.16-.15.04-.06-.06.04-.13.11-.17.17-.09.12.17-.07.02-.02-.07.03-.45.22-.12.09-.11.04-.23.07-.34.11-.03,0-.23.05-.03.01s-.03,0-.09,0-.12,0-.17,0c-.2,0-.04-.03.06,0-.05-.02-.17-.05-.22-.06.01,0,.24.12.1.04-.05-.03-.1-.07-.15-.08.02,0,.18.18.07.06-.03-.03-.22-.22-.11-.09.1.11-.03-.05-.04-.07-.03-.06-.06-.13-.1-.18-.12-.16.08.27-.04-.08-.09-.29-.16-.58-.22-.88-.01-.08-.03-.15-.04-.23,0,0-.04-.26-.02-.13s-.01-.14-.01-.13c-.01-.14-.03-.27-.03-.41-.02-.36-.03-.72,0-1.07,0-.16.02-.33.04-.49,0,.07-.04.22.02-.09.02-.11.04-.21.07-.32.05-.2.11-.4.17-.6.02-.06.05-.12.07-.19.07-.21-.1.18,0-.01.17-.29.32-.58.51-.86-.15.22.13-.14.19-.21.12-.13.25-.24.39-.36-.2.17.1-.06.18-.11.17-.1.35-.19.53-.27.72-.32.94-1.43.54-2.05-.48-.75-1.28-.88-2.05-.54h0Z"/>
      </g>
      <g>
        <path class="cls-1" d="M358.21,321.42c-1.82.92-1.61,3.53-1.31,5.55,1.7,11.33-2.92,23.41-11.74,30.71,4.37-.75,8.47-2.99,11.47-6.26,4.69-5.12,6.44-12.3,6.88-19.24.17-2.74.16-5.54-.61-8.17-.34-1.17-.9-2.37-1.97-2.96s-2.71-.16-2.97,1.03"/>
        <path d="M357.45,320.12c-3.04,1.77-2.15,5.48-1.86,8.36.35,3.48.12,6.99-.67,10.39-1.61,6.92-5.38,13.18-10.83,17.74-1.26,1.05.14,2.75,1.46,2.51,7.48-1.37,13.5-6.54,16.48-13.46,1.47-3.4,2.28-7,2.71-10.68.46-3.86.76-8.18-.58-11.91-.61-1.7-1.75-3.4-3.66-3.73-1.76-.3-3.46.6-4.01,2.32-.59,1.84,2.3,2.63,2.89.8.13-.41.84-.11,1.05.05.67.51.93,1.55,1.13,2.32.55,2.09.58,4.27.48,6.42-.16,3.66-.7,7.32-1.84,10.81-2.37,7.24-7.84,12.76-15.45,14.15l1.46,2.51c5.33-4.46,9.18-10.56,11.12-17.22.96-3.29,1.45-6.75,1.41-10.18-.02-1.68-.22-3.33-.43-4.99-.14-1.08-.48-2.98.65-3.63,1.67-.97.16-3.56-1.51-2.59h0Z"/>
      </g>
      <g>
        <path class="cls-1" d="M97.48,365.9c-2.15.49-3.87,2.47-4.06,4.66s1.19,4.44,3.22,5.27c.47.19.98.32,1.48.31,1.14-.02,2.19-.71,2.94-1.56,1.46-1.66,1.97-4.36.55-6.06-.37-.45-.85-.79-1.35-1.1-1.04-.64-2.19-1.11-3.38-1.4"/>
        <path d="M97.08,364.45c-2.34.57-4.27,2.47-4.93,4.78s.12,4.95,1.86,6.63c.91.88,2.08,1.53,3.34,1.72,1.52.23,2.9-.3,4.07-1.25,1.87-1.52,2.84-4.06,2.44-6.43-.51-3.05-3.86-4.65-6.57-5.31-.79-.19-1.63.25-1.85,1.05s.26,1.65,1.05,1.85c1,.25,1.83.56,2.71,1.06.36.2.77.45,1,.67.08.08.17.16.25.25.23.24.1.12.06.05.05.08.11.16.15.24.01.02.21.42.09.14.07.17.12.35.16.53.02.09.04.18.05.27-.01-.08,0-.26,0,.02,0,.19,0,.38,0,.57,0,.05-.03.3,0,.03-.02.12-.04.24-.07.36-.05.21-.11.42-.18.63-.03.09-.07.19-.1.27.03-.07.11-.2-.03.04-.1.17-.18.34-.29.51-.05.08-.11.16-.16.24-.14.21.02-.02-.08.1-.57.63-1.04,1.08-1.85,1.19.23-.03-.13,0-.18,0-.28,0,.1.03-.17,0-.19-.02-.52-.13-.62-.17-.06-.02-.31-.15-.43-.22-.08-.05-.17-.1-.25-.15-.07-.04-.27-.2-.11-.07-.15-.12-.3-.26-.43-.4-.03-.03-.39-.45-.24-.25-.12-.15-.23-.32-.33-.49-.05-.08-.1-.17-.14-.26,0,0-.2-.43-.09-.17-.15-.36-.25-.74-.31-1.13.04.25,0-.23,0-.33s0-.2,0-.29c0-.03.07-.47.01-.18.04-.22.09-.43.16-.64.03-.09.06-.18.1-.28.05-.14-.07.12.05-.11s.24-.42.37-.63c.02-.03.17-.23.03-.05.07-.1.16-.19.24-.28.17-.18.34-.35.53-.51s-.16.11.04-.03c.1-.07.2-.14.31-.2.08-.05.17-.1.25-.14.01,0,.42-.2.17-.09.23-.09.46-.16.7-.22.79-.19,1.26-1.08,1.05-1.85-.22-.8-1.06-1.24-1.85-1.05h0Z"/>
      </g>
      <g>
        <path class="cls-1" d="M113.4,328.89c-.75-1.28-2.9-.85-3.69.42s-.61,2.87-.44,4.35c.43,3.57.75,7.15.98,10.73.17,2.73.28,5.53-.57,8.14-.86,2.62-2.67,5-2.74,7.76,1.78.55,3.45-1.01,4.65-2.43,2.33-2.74,4.72-5.6,5.65-9.08.46-1.71.54-3.5.54-5.28.01-5.4-.99-11.44-5.35-14.62"/>
        <path d="M114.7,328.14c-1.56-2.21-4.89-1.84-6.28.42-.87,1.41-.85,3.12-.69,4.7.21,2,.45,4,.63,6.01.33,3.66.96,7.68.27,11.33-.65,3.4-2.98,6.17-3.18,9.7-.04.63.49,1.3,1.1,1.45,3.71.87,6.25-2.86,8.23-5.4,2.43-3.12,4.11-6.4,4.42-10.4.51-6.5-.47-14.17-6.01-18.36-1.54-1.16-3.04,1.44-1.51,2.59,4.27,3.23,4.73,9.52,4.59,14.44-.09,3.22-1.02,5.93-2.85,8.57-.88,1.26-1.87,2.45-2.88,3.62-.74.86-1.9,2.35-3.19,2.05l1.1,1.45c.15-2.64,1.88-4.9,2.68-7.36.92-2.82.8-5.86.61-8.78-.2-3.1-.47-6.19-.82-9.27-.14-1.28-.52-2.79-.2-4.07.12-.48.31-.94.81-1.12.11-.04.5-.15.58-.04,1.11,1.56,3.71.07,2.59-1.51h0Z"/>
      </g>
      <path class="cls-1" d="M19.48,282.35c-5.06-12.15,6.06-22.78,13.48-30.83,3.97-4.3,7.49-8.93,10.16-14.16s4.46-10.5,5.5-16.09c1.2-6.42,1.31-12.95.37-19.41-.28-1.9-3.17-1.09-2.89.8,1.66,11.4-.44,23.34-5.75,33.55-2.75,5.28-6.36,9.83-10.41,14.15s-8.5,8.75-11.37,14.1c-3.03,5.65-4.53,12.56-1.99,18.68.31.75.99,1.27,1.85,1.05.71-.19,1.36-1.1,1.05-1.85h0Z"/>
      <path class="cls-1" d="M54.53,176.98c-.99-4.23-.83-8.58-.44-12.87s.82-8.69,1.59-12.97c1.32-7.29,4.02-14.95,10.13-19.61,1.51-1.16.02-3.76-1.51-2.59-6.64,5.08-9.92,12.92-11.42,20.94-.85,4.54-1.31,9.16-1.74,13.76s-.59,9.49.51,14.15c.44,1.88,3.33,1.08,2.89-.8h0Z"/>
      <path class="cls-1" d="M89.8,81.7c1.16-4.45,6.14-7.08,10.02-8.81,4.22-1.88,8.76-2.96,13.24-4.02s9.1-2.08,13.47-3.72,8.39-3.94,12.14-6.7c7.6-5.6,14.07-12.65,22.02-17.79s16.56-8.09,25.64-9.13c10.27-1.18,20.87.13,30.42,4.17.75.32,1.6.22,2.05-.54.37-.63.21-1.74-.54-2.05-17.67-7.48-38.46-6.46-55.32,2.73-8.63,4.7-15.46,11.77-23.04,17.9-3.77,3.05-7.82,5.84-12.29,7.77s-9.25,3.03-13.97,4.14c-5.21,1.22-10.44,2.45-15.34,4.65s-10.03,5.33-11.4,10.61c-.49,1.87,2.41,2.67,2.89.8h0Z"/>
      <path class="cls-1" d="M113.68,48.83c11.23-2.68,21.47-7.8,30.71-14.68,8.68-6.47,17.16-14.04,28.05-16.35,5.69-1.2,11.75-.79,16.79,2.3,1.65,1.01,3.16-1.58,1.51-2.59-9.41-5.76-21.34-3.3-30.48,1.76-10.21,5.65-18.48,14.16-28.8,19.66-5.87,3.13-12.11,5.46-18.58,7.01-1.88.45-1.08,3.34.8,2.89h0Z"/>
      <path class="cls-1" d="M209.1,21.32c5.84.36,11.49,2.21,16.45,5.31,1.64,1.02,3.15-1.57,1.51-2.59-5.42-3.38-11.6-5.32-17.96-5.72-1.93-.12-1.92,2.88,0,3h0Z"/>
      <path class="cls-1" d="M117.19,286.05c-2.49-2.03-3.57-4.97-4.18-8.04-.76-3.78-.98-7.69-1.39-11.52-.93-8.64-1.85-17.29-2.78-25.93-.2-1.9-3.21-1.92-3,0,.98,9.14,1.96,18.28,2.94,27.42.72,6.69.55,15.52,6.29,20.19,1.49,1.21,3.62-.9,2.12-2.12h0Z"/>
      <path class="cls-1" d="M30.41,308.54c-.38-9.25,1.31-18.56,4.99-27.06,1.8-4.14,4.06-8.08,6.7-11.74s5.38-6.82,7.9-10.36c2.78-3.88,5.14-8.1,6.18-12.8.42-1.88-2.47-2.68-2.89-.8-1.91,8.61-8.38,15.07-13.43,21.95-5.48,7.46-9.32,16.09-11.18,25.15-1.06,5.14-1.49,10.4-1.28,15.65.08,1.92,3.08,1.93,3,0h0Z"/>
      <path class="cls-1" d="M59.76,230.14c2.28-2.13,3.46-5.04,4.18-8.02.86-3.57,1.44-7.24,2-10.87s1.03-7.57,1.1-11.38c.06-3.39-.28-7.03,1.36-10.13.9-1.71-1.69-3.22-2.59-1.51-1.6,3.02-1.74,6.37-1.75,9.72-.01,3.72-.26,7.4-.79,11.09s-1.15,7.2-1.88,10.77c-.61,3-1.43,6.07-3.75,8.23-1.41,1.32.71,3.44,2.12,2.12h0Z"/>
      <path class="cls-1" d="M46.77,324.82c.75-10.3,3.6-20.45,8.35-29.62s12.33-17.24,17.25-26.65c2.71-5.19,4.59-10.83,4.63-16.73.01-1.93-2.99-1.93-3,0-.08,10.75-6.65,19.81-12.68,28.16-3.1,4.29-6.12,8.62-8.59,13.32s-4.34,9.32-5.81,14.23c-1.69,5.63-2.73,11.44-3.15,17.29-.14,1.93,2.86,1.92,3,0h0Z"/>
      <path class="cls-1" d="M81.28,233.44c.25-4.35,1.04-8.64,2.32-12.8.57-1.85-2.32-2.64-2.89-.8-1.36,4.41-2.17,8.99-2.43,13.6-.05.81.72,1.5,1.5,1.5.85,0,1.45-.69,1.5-1.5h0Z"/>
      <path class="cls-1" d="M66.05,362.09c.37.35.5.39.4.11-.04-.1-.05-.21-.04-.31.08-.33.05-.81.08-1.15.07-.81.16-1.61.26-2.41.21-1.69.48-3.37.8-5.05.62-3.25,1.44-6.46,2.45-9.61,2.05-6.4,4.91-12.5,8.46-18.19,1.03-1.64-1.57-3.15-2.59-1.51-4.16,6.66-7.38,13.9-9.53,21.44-1.07,3.75-1.86,7.57-2.39,11.43-.3,2.15-1.81,8.39,2.1,8.26,1.93-.06,1.93-3.06,0-3h0Z"/>
      <path class="cls-1" d="M82.38,302.41l7.05-30.42c1.13-4.86,2.35-9.71,3.06-14.65.59-4.08.76-8.21,1.4-12.28.68-4.35,1.91-8.7,4.97-11.99,1.31-1.41-.8-3.54-2.12-2.12-5.77,6.21-5.98,15-6.82,22.96-.53,4.95-1.64,9.79-2.76,14.63l-3.58,15.45-4.09,17.62c-.44,1.88,2.46,2.68,2.89.8h0Z"/>
      <path class="cls-1" d="M88.73,123.2c4.7-2.78,9.56-5.7,12.97-10.06,1.81-2.32,2.94-4.92,4.03-7.63.98-2.44,2.08-4.81,3.39-7.08,2.57-4.48,5.88-8.71,10.09-11.75,1.94-1.4,4.07-2.58,6.34-3.37,2.86-.99,5.82-1.24,8.82-1.41,3.42-.19,6.85-.43,10.11-1.6s5.96-2.88,8.41-5.13c1.42-1.31-.7-3.43-2.12-2.12-2.15,1.99-4.7,3.56-7.48,4.5s-5.89,1.19-8.92,1.36-6.04.39-8.93,1.29c-2.36.74-4.63,1.82-6.7,3.18-4.25,2.79-7.72,6.6-10.53,10.82-1.43,2.14-2.68,4.4-3.76,6.74-1.22,2.62-2.08,5.41-3.49,7.94-3.01,5.42-8.58,8.69-13.76,11.75-1.66.98-.15,3.58,1.51,2.59h0Z"/>
      <path class="cls-1" d="M109.41,130.46c4.77-.64,9.25-2.71,12.87-5.87s5.98-7.1,8.83-10.75c1.46-1.87,3.06-3.67,4.92-5.16,1.98-1.59,4.24-2.86,6.47-4.04,4.44-2.35,9.18-4.2,14.13-5.16,5.4-1.05,10.95-.83,16.12,1.14,1.81.69,2.59-2.21.8-2.89-9.56-3.64-20.05-1.48-29.09,2.62-4.62,2.09-9.29,4.65-12.85,8.32-3.33,3.45-5.75,7.64-8.9,11.23-3.7,4.22-8.51,6.92-14.1,7.67-.81.11-1.23,1.14-1.05,1.85.23.87,1.05,1.16,1.85,1.05h0Z"/>
      <path class="cls-1" d="M149.61,119.52c11.28-4.37,23.83-3.27,35.08-7.71,9.48-3.74,17.34-10.38,26.18-15.29,4.85-2.69,10.08-4.8,15.67-5.16,1.92-.13,1.93-3.13,0-3-10.36.68-19.07,6.49-27.5,12.02-4.29,2.81-8.62,5.62-13.29,7.75-5.33,2.42-11.08,3.49-16.84,4.31-6.78.97-13.66,1.7-20.1,4.19-1.78.69-1.01,3.59.8,2.89h0Z"/>
      <path class="cls-1" d="M182.29,52.98c3.26-1.58,6.63-3.21,10.25-3.73,3.88-.57,7.23.86,10.85,2,6.13,1.92,13.16,2.26,18.82-1.18,1.65-1,.14-3.6-1.51-2.59-5.97,3.62-12.9,2.12-19.09,0-3.49-1.19-6.86-1.71-10.52-1.01s-7.01,2.32-10.31,3.92c-1.74.84-.22,3.43,1.51,2.59h0Z"/>
      <path class="cls-1" d="M208.16,68.55c4.75.76,9.52.09,13.86-1.98.73-.35.92-1.39.54-2.05-.44-.75-1.32-.89-2.05-.54-3.55,1.69-7.66,2.3-11.55,1.68-.8-.13-1.61.21-1.85,1.05-.2.71.24,1.72,1.05,1.85h0Z"/>
      <path class="cls-1" d="M259.64,36.8c5.58.01,11.28.03,16.58,1.99,4.43,1.64,8.3,4.57,11.46,8.03,7.18,7.87,10.27,18.38,12.29,28.6,1.03,5.17,2.85,11.53,8.83,12.72,1.89.38,2.69-2.51.8-2.89-5.49-1.1-6.16-7.92-7.09-12.38-1.12-5.37-2.6-10.66-4.79-15.7-3.85-8.86-10.37-16.96-19.45-20.77-5.9-2.48-12.33-2.59-18.64-2.6-1.93,0-1.93,3,0,3h0Z"/>
      <path class="cls-1" d="M278.03,74.61c4.27-.02,7.88,2.72,10.28,6.06,2.65,3.69,4.57,8.18,6.12,12.44.79,2.18,1.39,4.42,1.67,6.73s.35,4.86.7,7.27c.64,4.37,2.58,8.32,5.96,11.22,1.46,1.25,3.59-.86,2.12-2.12-2.83-2.43-4.46-5.56-5.08-9.22s-.49-7.64-1.45-11.39-2.57-7.29-4.21-10.75c-1.52-3.21-3.33-6.4-5.93-8.87-2.75-2.62-6.32-4.38-10.17-4.36-1.93.01-1.93,3.01,0,3h0Z"/>
      <path class="cls-1" d="M255.42,95.29c5.59-.51,10.52,1.57,14.63,5.28,3.86,3.49,7.25,7.63,10.38,11.77,6.3,8.33,11.53,17.5,15.42,27.2,2.14,5.35,3.52,11.27,7.09,15.91.5.65,1.28.98,2.05.54.64-.36,1.03-1.41.54-2.05-3.34-4.34-4.64-9.79-6.63-14.8s-4.32-9.95-6.96-14.68-5.64-9.3-8.91-13.63-6.71-8.59-10.69-12.23c-4.69-4.28-10.46-6.89-16.91-6.3-1.91.17-1.93,3.17,0,3h0Z"/>
      <path class="cls-1" d="M345.18,178.17c-7.98-4.01-12.22-12.39-16.03-20.04-.86-1.73-3.45-.21-2.59,1.51,4.04,8.11,8.66,16.87,17.1,21.11,1.72.86,3.24-1.72,1.51-2.59h0Z"/>
      <path class="cls-1" d="M209.1,398.21c-1.78-17.82.21-35.7,3-53.3,1.33-8.37,2.44-16.91,4.56-25.12,1-3.86,2.33-7.63,4.3-11.11,1.8-3.18,4.02-6.09,6.4-8.86,5.31-6.18,11.32-11.76,15.84-18.59,1.07-1.61-1.53-3.12-2.59-1.51-4.08,6.15-9.45,11.27-14.32,16.77s-9.26,11.9-11.59,19.26c-2.58,8.13-3.61,16.79-4.98,25.18-1.45,8.91-2.76,17.84-3.55,26.84-.89,10.12-1.08,20.31-.07,30.43.19,1.9,3.19,1.92,3,0h0Z"/>
      <path class="cls-1" d="M233.01,361.14c-1.36-10.32.24-20.98,4.69-30.41,2.34-4.96,5.47-9.34,9-13.51s7.22-8.41,9.99-13.24c3.03-5.28,5.16-11.07,6.31-17.04.36-1.89-2.53-2.69-2.89-.8-1.05,5.45-2.9,10.7-5.58,15.57s-6.33,9.12-9.94,13.4-6.78,8.59-9.2,13.55c-2.28,4.69-3.95,9.68-4.89,14.82-1.07,5.83-1.26,11.79-.48,17.67.11.81.61,1.49,1.5,1.5.73,0,1.61-.7,1.5-1.5h0Z"/>
      <path class="cls-1" d="M271.33,260.35l11.71-18.84c3.64-5.85,7.5-11.64,10.18-18.01.32-.75.22-1.6-.54-2.05-.63-.37-1.74-.21-2.05.54-2.69,6.37-6.55,12.16-10.18,18.01l-11.71,18.84c-1.02,1.64,1.57,3.15,2.59,1.51h0Z"/>
      <path class="cls-1" d="M286.66,379.85c3.79-10.26,7.64-20.92,7.54-32.02s-5.72-21.04-7.04-31.97c-.75-6.24-.58-12.58.53-18.76.34-1.89-2.55-2.7-2.89-.8-1.96,10.91-1.12,21.94,2.22,32.5,1.67,5.26,3.61,10.48,4.05,16.02s-.25,10.91-1.51,16.21c-1.46,6.15-3.61,12.1-5.8,18.02-.67,1.81,2.23,2.6,2.89.8h0Z"/>
      <path class="cls-1" d="M343.54,386.35c-3.31-8.57-2.39-18.34,2.54-26.1,1.04-1.63-1.56-3.14-2.59-1.51-5.32,8.37-6.43,19.16-2.84,28.42.69,1.78,3.59,1.01,2.89-.8h0Z"/>
      <path class="cls-1" d="M332,271.99c-3.78-9.26-.12-19.22,4.01-27.68,2.16-4.43,4.49-8.77,6.32-13.36s2.94-9.51,3.24-14.53c.35-5.89-.24-11.79-.84-17.64-.19-1.9-3.2-1.92-3,0,.54,5.24,1.07,10.5.93,15.77s-1.11,10.16-2.97,14.99c-3.55,9.2-9.39,17.45-11.47,27.21-1.13,5.32-1.18,10.93.91,16.03.72,1.76,3.62.99,2.89-.8h0Z"/>
      <path class="cls-1" d="M293.72,206.19c2.69-5.83,5.25-11.97,5.19-18.51-.03-3.35-.68-6.68-1.23-9.97-.58-3.49-1.16-6.97-1.74-10.46-.32-1.9-3.21-1.09-2.89.8.54,3.24,1.08,6.48,1.62,9.73s1.15,6.25,1.23,9.43c.17,6.17-2.23,11.98-4.77,17.48-.8,1.74,1.78,3.27,2.59,1.51h0Z"/>
      <path class="cls-1" d="M317.6,228.39c-2.5-15.07,4.46-29.82,2.99-44.91-.44-4.47-1.72-9.01-.89-13.51.35-1.89-2.54-2.7-2.89-.8-.75,4.08-.05,8.06.52,12.12s.58,7.86.24,11.81c-.66,7.73-2.51,15.3-3.21,23.03-.4,4.37-.36,8.73.36,13.06.32,1.9,3.21,1.09,2.89-.8h0Z"/>
      <path class="cls-1" d="M269.32,121.62c2.66,1.75,4.63,4.28,6.32,6.94,1.9,2.98,3.57,6.12,5.03,9.33s2.36,6.41,3.67,9.57c1.13,2.72,3.47,5.39,6.72,4.99,1.89-.24,1.91-3.24,0-3-3.3.41-4.19-3.78-5.01-6.13-1.12-3.22-2.44-6.37-3.96-9.42-2.73-5.5-6-11.4-11.25-14.87-1.62-1.07-3.12,1.53-1.51,2.59h0Z"/>
      <path d="M232.7,271.38c20.35-16.6,36.05-38.67,45.34-63.22,2.64-6.98,4.74-14.15,6.29-21.45.4-1.88-2.49-2.69-2.89-.8-5.37,25.32-17.55,49.06-34.93,68.24-4.92,5.43-10.25,10.48-15.93,15.11-1.5,1.22.64,3.33,2.12,2.12h0Z"/>
      <path d="M261.34,245.34c8.13-11.12,16.31-22.48,20.59-35.73.56-1.73-1.8-2.45-2.74-1.16-5.74,7.89-10.57,16.4-14.39,25.37-.73,1.72,1.62,3.25,2.59,1.51,4.85-8.71,9.71-17.41,14.56-26.12.94-1.69-1.65-3.2-2.59-1.51-4.85,8.71-9.71,17.41-14.56,26.12l2.59,1.51c3.82-8.98,8.65-17.49,14.39-25.37l-2.74-1.16c-4.19,12.97-12.32,24.12-20.28,35.01-1.14,1.56,1.46,3.06,2.59,1.51h0Z"/>
      <path d="M282.02,211.37l1.02-2.86c.25-.7-.23-1.5-.87-1.77s-1.54-.06-1.87.61c-1.08,2.19-2.16,4.38-3.24,6.56l2.8.76c.15-1.68.29-3.35.44-5.03.06-.74-.62-1.38-1.3-1.47-.78-.1-1.38.36-1.65,1.07-.58,1.56-1.15,3.12-1.73,4.68l2.89.8c.5-2.34,1-4.68,1.49-7.02l-2.95-.4c-.05.51-.11,1.02-.16,1.53-.08.74.63,1.38,1.3,1.47.78.11,1.37-.37,1.65-1.07.38-.99.77-1.99,1.15-2.98.28-.73-.31-1.68-1.05-1.85-.86-.2-1.54.26-1.85,1.05-.38.99-.77,1.99-1.15,2.98l2.95.4c.05-.51.11-1.02.16-1.53.08-.74-.63-1.38-1.3-1.47s-1.49.34-1.65,1.07c-.5,2.34-1,4.68-1.49,7.02-.16.77.23,1.66,1.05,1.85s1.55-.26,1.85-1.05c.58-1.56,1.15-3.12,1.73-4.68l-2.95-.4c-.15,1.68-.29,3.35-.44,5.03-.13,1.47,2.15,2.06,2.8.76,1.08-2.19,2.16-4.38,3.24-6.56l-2.74-1.16-1.02,2.86c-.26.74.3,1.67,1.05,1.85.84.19,1.56-.25,1.85-1.05h0Z"/>
      <path class="cls-1" d="M156.51,169.62c.04,1.35.54,2.56,1.39,3.59.15.18.44.33.66.39.33.09.67.05.98-.08.53-.22.94-.77.92-1.37-.03-.88,0-1.75.12-2.62l-.05.4c.09-.67.23-1.32.4-1.97.21-.76-.26-1.66-1.05-1.85s-1.63.24-1.85,1.05c-.44,1.62-.64,3.32-.58,5l2.56-1.06s-.07-.08-.1-.12l.23.3c-.22-.29-.4-.59-.54-.92l.15.36c-.14-.33-.23-.68-.28-1.03l.05.4c-.02-.15-.03-.3-.03-.46-.02-.78-.67-1.54-1.5-1.5s-1.52.66-1.5,1.5h0Z"/>
      <path class="cls-1" d="M251.34,201.69s.06-.05.09-.08l-.3.23s.08-.05.12-.07l-.36.15s.06-.02.09-.02l-.4.05s.08,0,.13,0l-.4-.05c.06,0,.11.02.16.05l-.36-.15c.05.03.1.06.15.09l-.3-.23c.09.07.16.14.23.22l-.23-.3c.1.13.18.27.24.42l-.15-.36c.06.14.1.28.12.43l-.05-.4c.04.34-.05.69-.07,1.03-.03.45,0,.95.14,1.38.25.72.77,1.36,1.54,1.57.48.13.95-.03,1.42-.14.27-.07.53-.13.8-.2.76-.19,1.29-1.09,1.05-1.85s-1.03-1.25-1.85-1.05c-.47.12-.93.23-1.4.35h.8l-.04-.02.36.15c-.06-.03-.12-.06-.17-.1l.3.23c-.06-.05-.11-.1-.16-.16l.23.3c-.04-.06-.08-.13-.11-.2l.15.36c-.05-.12-.07-.23-.09-.36l.05.4c-.05-.38-.01-.77.03-1.15.02-.18.04-.36.03-.55-.04-.47-.14-.79-.33-1.21-.23-.51-.64-.98-1.13-1.26-.8-.44-1.79-.31-2.44.35-.27.28-.44.67-.44,1.06,0,.37.16.81.44,1.06.59.54,1.54.6,2.12,0h0Z"/>
      <path d="M138.7,195.64l7.63-3.63c.55-.26.69-1.05.4-1.54-.33-.56-.99-.67-1.54-.4l-7.63,3.63c-.55.26-.69,1.05-.4,1.54.33.56.99.67,1.54.4h0Z"/>
      <path d="M143.76,198.63c2.45-1.56,5.11-2.7,7.93-3.39.59-.15.94-.81.79-1.38s-.79-.93-1.38-.79c-2.99.74-5.87,1.97-8.47,3.62-.51.33-.72,1-.4,1.54.3.51,1.02.73,1.54.4h0Z"/>
      <path d="M147.81,203.17c2.63-1.69,5.47-2.99,8.48-3.85,1.39-.4.8-2.57-.6-2.17-3.18.92-6.23,2.29-9.02,4.08-.51.33-.72,1-.4,1.54.3.51,1.03.73,1.54.4h0Z"/>
      <path d="M153.67,205.59c.07-.06.14-.12.22-.18.09-.07.07-.06-.06.05.04-.03.07-.06.11-.08.15-.11.31-.22.46-.32.32-.2.64-.38.98-.54.08-.04.17-.08.26-.12.11-.05.09-.04-.08.03.04-.02.09-.04.13-.05.17-.07.35-.13.53-.19.36-.12.72-.21,1.09-.28.58-.11.96-.84.79-1.38-.2-.62-.76-.91-1.38-.79-1.72.33-3.3,1.14-4.63,2.26-.45.38-.42,1.2,0,1.59.48.44,1.11.41,1.59,0h0Z"/>
      <path d="M247.29,225.68l3.71-3.43c.29-.27.29-.79,0-1.06-.31-.28-.75-.29-1.06,0l-3.71,3.43c-.29.27-.29.79,0,1.06.31.28.75.29,1.06,0h0Z"/>
      <path d="M250.58,227.96l5.13-5.08c.69-.68-.37-1.74-1.06-1.06-1.71,1.69-3.42,3.39-5.13,5.08-.69.68.37,1.74,1.06,1.06h0Z"/>
      <path d="M254.74,230.8c1.57-2.6,3.7-4.84,6.22-6.53.34-.22.48-.66.27-1.03-.2-.33-.69-.5-1.03-.27-2.74,1.83-5.06,4.24-6.76,7.07-.5.83.8,1.58,1.3.76h0Z"/>
    </g>
  </g>
</svg>