<?xml version="1.0" encoding="UTF-8"?>
<svg id="Capa_2" data-name="Capa 2" xmlns="http://www.w3.org/2000/svg" viewBox="0 0 215.55 475.8">
  <defs>
    <style>
      .cls-1 {
        fill: #fff;
      }
    </style>
  </defs>
  <g id="Capa_3" data-name="Capa 3">
    <g>
      <g>
        <path class="cls-1" d="M52.1,58.6c-6.53,9.42-9.33,21.83-5.55,32.64,3.61,10.3,12.7,17.99,22.81,22.13s21.2,5.12,32.11,5.42c11.42.31,23.01-.11,33.95-3.38,10.94-3.27,21.28-9.65,27.5-19.23,6.22-9.58,7.69-22.58,2.06-32.52-2.71-4.79-6.93-8.79-8.56-14.05-.87-2.81-.93-5.79-1.08-8.73-.46-9.5-1.82-18.95-4.05-28.19-1.05-4.36-3.22-9.5-7.68-9.97-2.63-.28-5.07,1.27-7.2,2.83-3.45,2.53-6.75,5.27-9.87,8.2-2.59,2.44-5.15,5.07-8.44,6.41-2.71,1.11-5.71,1.24-8.63,1.37-11.01.46-23.01.64-31.8-6.01-3.49-2.64-6.22-6.2-9.74-8.79s-8.43-4.11-12.27-2.01c-3.8,2.08-5.15,6.81-5.85,11.09-2.26,13.85-1.39,28.19,2.52,41.67"/>
        <path d="M50.81,57.84c-7.68,11.21-10.24,26.31-3.58,38.6,6.58,12.14,19.71,18.97,32.79,21.69,7.59,1.58,15.37,2.04,23.1,2.2s15.95-.09,23.81-1.43c13.53-2.29,26.97-8.32,35.49-19.44s10.46-25.96,3.23-37.61c-1.81-2.92-4.07-5.55-5.84-8.49-2.01-3.33-2.68-6.78-2.88-10.63-.42-8.17-1.26-16.27-2.85-24.31-1.09-5.51-2.16-13.99-8.08-16.59-3.23-1.42-6.56-.18-9.32,1.69-3.16,2.14-6.15,4.62-9,7.15-2.67,2.37-5.11,5.17-8.17,7.07-3.23,2-6.95,2.15-10.65,2.3-6.79.28-13.76.47-20.4-1.19-3.23-.8-6.32-2.06-9.08-3.95-2.97-2.03-5.32-4.81-7.97-7.22-4.72-4.3-12.22-7.96-17.98-3.27-2.34,1.9-3.63,4.81-4.39,7.66-.93,3.46-1.31,7.13-1.62,10.69-.69,7.9-.36,15.87.89,23.71.62,3.85,1.48,7.65,2.55,11.4.53,1.85,3.43,1.06,2.89-.8-2.12-7.37-3.36-14.96-3.63-22.63-.25-7.04-.02-14.54,1.76-21.4.71-2.71,1.91-5.64,4.51-7.04,2.76-1.49,6.16-.67,8.77.75,2.95,1.6,5.25,4.12,7.62,6.45s4.84,4.39,7.76,5.9c5.78,2.99,12.36,3.9,18.8,4.08,3.24.09,6.47-.01,9.7-.14,3.45-.14,6.97-.3,10.17-1.75,3-1.36,5.41-3.68,7.77-5.92,2.77-2.62,5.65-5.12,8.69-7.43,2.35-1.79,5.57-4.63,8.76-3.51,2.39.83,3.72,3.51,4.52,5.73,1.16,3.21,1.76,6.67,2.4,10.01.73,3.83,1.32,7.68,1.74,11.55s.62,7.96.87,11.94c.22,3.52.87,6.86,2.55,10,1.52,2.86,3.6,5.36,5.42,8.02s3.25,5.41,4.08,8.5c1.68,6.22,1.06,12.9-1.19,18.9-4.5,12.01-15.82,20.15-27.59,24.17-14.03,4.78-29.58,4.73-44.21,3.64-13.37-1-27.28-4.3-37.14-13.97-4.45-4.36-7.71-9.8-8.97-15.94s-.39-12.99,1.89-19c1.16-3.05,2.73-5.93,4.57-8.61,1.09-1.6-1.5-3.1-2.59-1.51h0Z"/>
      </g>
      <g>
        <g>
          <path d="M51.98,315.33c2.26-4.18.19-9.35-2.34-13.37s-5.66-8.13-5.53-12.88c-11.92,2.68-26.69-1.8-30.66-13.35-2.42-7.03-.8-16.02-6.39-20.92-1.49-1.3-3.39-2.18-4.52-3.81-2.64-3.82.37-8.81,2.04-13.15,3.59-9.3.55-19.83,2.16-29.67.96-5.85,3.53-11.29,6.07-16.63,4.91-10.32,9.81-20.63,14.76-30.93,3.28-6.83,6.64-13.75,11.72-19.38,5.87-6.49,13.66-10.86,21.31-15.1,3.19-1.77,6.44-3.57,10.02-4.29,4.6-.93,9.34-.02,13.99.61,15.46,2.09,31.35.95,46.36-3.31,5.75-1.63,11.85-3.73,17.54-1.9,3.63,1.17,6.57,3.79,9.39,6.35,4.99,4.52,9.98,9.05,14.97,13.57,11.12,10.08,22.6,20.65,28.15,34.59,3.76,9.44,4.53,19.76,5.46,29.87,1.6,17.45,3.82,34.85,6.64,52.14.69,4.22,1.41,8.55.61,12.75-.86,4.5-3.4,8.47-5.89,12.32-3.13,4.84-6.84,10.09-12.48,11.24-3.6.74-7.28-.37-10.92-.79s-7.89.15-9.98,3.16c-.97,1.4-1.34,3.16-2.44,4.46-1.45,1.73-3.86,2.29-5.63,3.7-5.29,4.19-2.52,12.45-.63,18.93,2.24,7.68,2.5,15.93.74,23.74"/>
          <path class="cls-1" d="M53.28,316.08c2.32-4.57.71-9.64-1.7-13.82s-6-8.12-5.96-13.18c0-1.02-.96-1.65-1.9-1.45-6.85,1.5-14.5.68-20.62-2.85-2.9-1.67-5.4-3.98-7.04-6.91-1.87-3.34-2.27-7.19-2.75-10.92s-.99-7.7-3.16-10.88c-1.1-1.62-2.52-2.78-4.11-3.9-1.75-1.24-3.09-2.58-3.03-4.87s1.08-4.4,1.93-6.4c.9-2.11,1.74-4.2,2.21-6.45,1.01-4.81.81-9.73.66-14.61s-.17-9.8,1.1-14.59,3.56-9.49,5.74-14.07c4.66-9.79,9.32-19.59,14.01-29.36,4.11-8.57,8.36-17.09,15.69-23.4,3.6-3.1,7.65-5.64,11.75-8.02s8.3-5.1,12.82-6.55c5.08-1.63,10.35-.61,15.5.08s10.17,1.04,15.28,1.04c10.29,0,20.61-1.36,30.53-4.06,4.86-1.32,9.84-3.25,14.96-2.81s8.54,3.75,12.02,6.89c7.48,6.78,15.09,13.45,22.39,20.43,6.5,6.22,12.71,12.91,17.13,20.81,4.87,8.7,6.6,18.45,7.59,28.26,1.06,10.53,2,21.06,3.31,31.57,1.31,10.51,3.1,20.93,4.56,31.42.36,2.6.58,5.3.22,7.91-.34,2.46-1.26,4.79-2.41,6.98-2.04,3.88-4.52,7.85-7.38,11.19s-6.2,5.46-10.64,5.26-8.71-1.78-13.17-.75c-1.81.42-3.61,1.29-4.88,2.68-1.45,1.59-1.77,3.86-3.22,5.4-1.36,1.45-3.5,1.99-5.08,3.18-1.47,1.12-2.54,2.6-3.16,4.34-1.28,3.6-.49,7.69.42,11.27,1.12,4.41,2.58,8.65,3.03,13.21.49,4.93.2,9.9-.87,14.74-.41,1.88,2.48,2.69,2.89.8,1.12-5.1,1.49-10.34.97-15.54-.46-4.71-1.86-9.1-3.04-13.65-.88-3.37-1.94-7.7-.08-10.94,1.04-1.82,2.87-2.58,4.62-3.55,2.04-1.13,3.29-2.6,4.25-4.7.88-1.92,1.87-3.37,3.95-4.07,1.87-.63,3.89-.65,5.83-.44,4.89.55,9.53,1.92,14.24-.26,3.75-1.74,6.5-5.13,8.8-8.45,2.72-3.92,5.49-8.06,7.02-12.6,1.69-5.04,1.01-10.27.18-15.4-.88-5.41-1.71-10.82-2.48-16.25-1.55-10.97-2.86-21.99-3.92-33.02-.99-10.34-1.5-20.94-4.85-30.86-3.01-8.9-8.42-16.65-14.71-23.54-6.61-7.25-14.09-13.68-21.36-20.26-3.89-3.52-7.67-7.28-11.78-10.54s-8.25-4.89-13.32-4.52-10.26,2.32-15.34,3.58-10.38,2.2-15.66,2.73-10.54.69-15.82.49-10.75-1.04-16.15-1.66c-2.71-.31-5.42-.41-8.12,0-2.4.36-4.68,1.22-6.86,2.25-4.42,2.09-8.72,4.63-12.89,7.2s-8,5.29-11.41,8.63-6.35,7.5-8.77,11.77-4.61,9.01-6.79,13.57c-2.4,5-4.78,10.01-7.17,15.02s-4.8,9.98-7.13,15c-2.12,4.58-4.11,9.31-4.9,14.32-1.54,9.86,1.5,20.32-2.27,29.83-1.55,3.92-4.21,8.45-2.38,12.74.88,2.05,2.61,3.26,4.36,4.51,1.6,1.14,2.82,2.57,3.61,4.38,1.57,3.58,1.67,7.67,2.24,11.48s1.66,7.43,3.99,10.53c4.43,5.89,11.62,8.88,18.79,9.67,3.64.4,7.33.17,10.9-.61l-1.9-1.45c-.04,4.76,2.59,8.75,5.07,12.6,2.33,3.62,5.2,8.57,3,12.89-.87,1.72,1.72,3.24,2.59,1.51h0Z"/>
        </g>
        <g>
          <path d="M53.19,315.94c-5.22,11.25-.48,24.27,1.31,36.54,1.74,11.97.55,24.17,1.58,36.22.78,9.14,2.83,18.13,4.88,27.07.28,1.24.59,2.52,1.36,3.52,1.05,1.35,2.77,1.97,4.41,2.46,11.1,3.31,23,3.9,34.38,1.7,4.43-.85,8.97-2.23,12.23-5.35s4.83-8.4,2.53-12.28c-1.38-2.34-3.95-3.92-4.87-6.47-.63-1.74-.4-3.65-.21-5.48,2.39-22.86-2.94-45.86-2.4-68.84.06-2.59,1.04-6.01,3.62-5.92,1.09.04,2.03.78,2.79,1.57,5.3,5.54,5.32,14.12,5.11,21.78-.53,20.36-.27,40.75.8,61.09.21,4,.68,8.47,3.77,11.02,1.99,1.65,4.67,2.12,7.22,2.53,8.13,1.31,16.3,2.56,24.54,2.72,5.54.11,11.99-.8,14.83-5.56,1.39-2.33,1.6-5.15,1.78-7.86,1.4-21.41,2.62-43.87-6.4-63.34"/>
          <path class="cls-1" d="M51.89,315.18c-3.31,7.32-2.85,15.25-1.54,22.99.67,3.97,1.55,7.91,2.24,11.88.76,4.35,1.15,8.74,1.31,13.15.33,8.9-.08,17.82.78,26.7s2.73,17.12,4.66,25.56c.43,1.9.86,3.86,2.27,5.3,1.18,1.2,2.79,1.84,4.36,2.33,3.93,1.23,7.99,2.03,12.07,2.56,8.23,1.06,16.71.75,24.83-1.03,6.65-1.46,13.88-4.97,15.33-12.31.67-3.36-.17-6.44-2.37-9.04-1.1-1.3-2.51-2.43-3.26-3.99-.83-1.74-.45-3.8-.27-5.64,1.78-17.54-.91-35.08-2.02-52.57-.28-4.44-.46-8.9-.44-13.35,0-1.26-.27-8.12,2.62-6.95,1.4.57,2.52,2.39,3.24,3.64.86,1.49,1.44,3.1,1.85,4.76.83,3.35.94,6.83.91,10.26-.06,8.72-.35,17.43-.32,26.16s.22,18.05.57,27.07c.16,4.25.26,8.52.62,12.76.28,3.33.93,6.78,3.19,9.37,2.51,2.87,6.42,3.41,9.97,3.98,4.28.68,8.57,1.34,12.88,1.82s8.39.86,12.59.76c3.14-.07,6.32-.51,9.2-1.8,3.03-1.36,5.29-3.82,6.29-7,1.15-3.67,1.02-7.84,1.24-11.64.96-15.91,1.41-32.28-2.96-47.76-1.05-3.7-2.39-7.31-4-10.81-.81-1.75-3.39-.23-2.59,1.51,6.56,14.27,7.52,30.24,7.08,45.72-.11,3.86-.31,7.71-.54,11.56-.12,1.98-.24,3.96-.38,5.94-.13,1.85-.3,3.77-1.04,5.49-2.63,6.18-11.12,5.95-16.69,5.69-4.3-.2-8.59-.67-12.85-1.26-3.98-.56-8.17-.94-12.05-2.01-3.49-.97-5.25-3.38-5.96-6.83-.77-3.74-.67-7.73-.83-11.53-.76-17.54-.93-35.1-.51-52.65.16-6.67.48-13.77-2.48-19.95-1.24-2.59-3.66-6.32-6.88-6.39s-4.55,3.02-4.95,5.62c-.29,1.87-.22,3.8-.21,5.68,0,2.1.06,4.21.14,6.31.17,4.29.47,8.58.82,12.86.69,8.56,1.57,17.11,1.93,25.7.18,4.19.23,8.39.07,12.58-.08,2.18-.22,4.36-.43,6.53-.18,1.87-.46,3.75-.15,5.62.6,3.58,3.77,5.26,5.42,8.21,1.54,2.76.68,6.21-1,8.69-1.94,2.86-5.27,4.49-8.47,5.48-3.69,1.14-7.58,1.73-11.42,2.06-8.1.71-16.31.05-24.18-1.99-1.71-.44-3.66-.82-5.16-1.79-1.6-1.04-1.84-3.03-2.24-4.76-.95-4.16-1.89-8.33-2.7-12.52-1.64-8.53-2.32-17.03-2.4-25.71s0-17.15-1.39-25.64c-1.24-7.64-3.43-15.22-3.39-23.02.02-3.72.63-7.44,2.17-10.85.79-1.75-1.79-3.27-2.59-1.51h0Z"/>
        </g>
      </g>
      <path class="cls-1" d="M65.05,410.44c4.45,6.64,12.61,8.06,20.06,8.13s14.57-.76,20.2-5.48c1.48-1.24-.65-3.35-2.12-2.12-4.84,4.05-11.55,4.63-17.62,4.6-6.4-.03-14.04-.84-17.93-6.65-1.07-1.6-3.67-.1-2.59,1.51h0Z"/>
      <path class="cls-1" d="M130.42,408.12c11.54,4.38,24.38,10.03,36.51,4.26,1.74-.83.22-3.42-1.51-2.59-11.19,5.32-23.63-.56-34.19-4.57-1.81-.69-2.59,2.21-.8,2.89h0Z"/>
      <g>
        <path class="cls-1" d="M82.77,131.06l2.63,37.75c.43,6.13.85,12.31.07,18.41-.55,4.29-1.71,8.51-1.95,12.83-.86,15.06,9.28,29.51,6.83,44.39-.13.78-.27,1.68.24,2.29.53.65,1.5.65,2.34.6,11.14-.68,22.27-1.36,33.41-2.04,1.46-.09,3.02-.22,4.14-1.15,1.73-1.44,1.65-4.08,1.41-6.33-2.11-20.21-4.22-40.41-6.33-60.62-.25-2.36-.49-4.74-.37-7.12.3-5.81,2.79-11.25,4.86-16.69,3.16-8.32,5.45-17.12,5.19-26.02-13.79,9.44-32.82,10.6-47.65,2.9-1.88-.97-4.66-1.85-5.7-.01"/>
        <path class="cls-1" d="M81.27,131.06l2.04,29.31c.66,9.53,1.96,19.33.35,28.83-.76,4.5-1.8,8.95-1.69,13.54.1,4.08.88,8.12,1.89,12.06,2.01,7.89,5.14,15.7,5.36,23.93.05,2.05-.18,4.03-.42,6.06-.22,1.83.51,3.53,2.45,3.96,1.04.23,2.13.07,3.18,0,1.25-.08,2.49-.15,3.74-.23,2.41-.15,4.82-.29,7.23-.44,4.99-.3,9.97-.61,14.96-.91,2.32-.14,4.67-.2,6.99-.44,1.9-.2,3.73-.72,4.92-2.31,1.09-1.46,1.31-3.36,1.24-5.14-.09-2.31-.44-4.62-.68-6.92-.5-4.8-1-9.61-1.51-14.41-1.02-9.77-2.04-19.54-3.06-29.32-.51-4.91-1.16-9.82-1.5-14.75s.6-9.02,2.18-13.41,3.36-8.51,4.71-12.9,2.35-8.88,2.83-13.44c.24-2.25.32-4.51.27-6.77-.03-1.07-1.28-1.96-2.26-1.3-12.68,8.59-29.81,10.27-43.85,4-2.95-1.32-7.59-4.32-10.04-.58-1.06,1.62,1.53,3.12,2.59,1.51.63-.96,2.78.12,3.51.48,1.63.8,3.26,1.57,4.95,2.22,3.48,1.33,7.1,2.21,10.79,2.69,7.43.98,15.11.26,22.21-2.14,4.02-1.35,7.84-3.23,11.35-5.61l-2.26-1.3c.21,8.98-2.11,17.73-5.3,26.06-1.54,4-3.26,7.98-4.14,12.19-.94,4.47-.52,8.83-.05,13.33,1.96,18.8,3.93,37.6,5.89,56.4.19,1.85.61,3.87.32,5.73-.33,2.05-1.82,2.57-3.71,2.71-4.7.36-9.41.57-14.11.86s-9.47.58-14.21.87c-1.08.07-2.16.13-3.24.2-.58.04-1.16.07-1.75.11-.37.02-1.22.22-1.56,0-.39-.25.05-1.77.1-2.19.12-.95.21-1.9.24-2.86.28-7.92-2.33-15.58-4.46-23.11-1.06-3.75-2.07-7.55-2.52-11.42-.5-4.3-.09-8.45.69-12.69.83-4.52,1.49-8.98,1.5-13.58s-.36-9.1-.68-13.64c-.66-9.44-1.32-18.88-1.97-28.32l-.48-6.95c-.13-1.92-3.13-1.93-3,0h0Z"/>
      </g>
      <path d="M89.59,145.32c11.43,6.59,26.22,6.39,37.45-.56,1.64-1.01.13-3.61-1.51-2.59-10.33,6.39-23.89,6.63-34.43.56-1.68-.97-3.19,1.63-1.51,2.59h0Z"/>
      <path class="cls-1" d="M20.81,219.04c.63,3.11,3.19,5.08,5.74,6.65,1.28.78,2.59,1.51,3.82,2.37.96.67,2.08,1.69,2.69,2.7,1,1.65,3.59.14,2.59-1.51-1.61-2.67-4.37-4.22-6.96-5.77-.61-.37-1.22-.74-1.81-1.14-.15-.1-.31-.21-.46-.32-.04-.03-.48-.37-.24-.18-.24-.19-.48-.4-.71-.61-.26-.24-.5-.49-.72-.75-.06-.07-.11-.13-.16-.2.1.13.1.13,0,0-.07-.11-.14-.21-.21-.32-.09-.14-.18-.29-.25-.45-.03-.06-.23-.55-.11-.23-.12-.34-.22-.68-.29-1.03-.16-.79-1.1-1.25-1.85-1.05-.83.23-1.21,1.05-1.05,1.85h0Z"/>
      <path class="cls-1" d="M29.36,281.23c-.74-4.24-.89-8.57-.44-12.85.26-2.53.57-7.21,3.46-8.28,1.79-.67,1.02-3.57-.8-2.89-3.94,1.46-4.94,5.71-5.45,9.46-.7,5.12-.56,10.28.34,15.37.33,1.9,3.23,1.09,2.89-.8h0Z"/>
      <path class="cls-1" d="M184.54,228.48c6.77-4.12,11.8-10.8,13.86-18.46.5-1.87-2.39-2.66-2.89-.8-1.85,6.92-6.36,12.95-12.48,16.67-1.65,1-.14,3.6,1.51,2.59h0Z"/>
      <path class="cls-1" d="M185.9,262.97c2.73-5.22,8.9-7.13,14.17-8.7,1.85-.55,1.06-3.45-.8-2.89-6.02,1.8-12.84,4.14-15.96,10.08-.9,1.71,1.69,3.23,2.59,1.51h0Z"/>
      <path class="cls-1" d="M59.55,311.82l8.49.29c2.42.08,4.86.29,7.28.17,1.89-.09,3.87-.43,5.44-1.56,1.77-1.28,2.55-3.21,2.8-5.32.3-2.53.22-5.13.27-7.67.05-2.82.09-5.65.11-8.47.04-5.48.01-10.96-.07-16.44-.31-21.31-.94-42.8-3.79-63.94-1.57-11.65-3.94-23.2-7.62-34.38-.26-.78-1.03-1.25-1.85-1.05-10.08,2.52-20.15,5.04-30.23,7.56-1.87.47-1.08,3.36.8,2.89,10.08-2.52,20.15-5.04,30.23-7.56l-1.85-1.05c6.28,19.09,8.69,39.13,9.91,59.11,1.27,20.9,1.74,41.89,1.36,62.82-.05,2.72.18,5.67-.32,8.36-.43,2.34-2.07,3.36-4.32,3.63-2.43.29-4.98,0-7.42-.08l-9.24-.32c-1.93-.07-1.93,2.93,0,3h0Z"/>
      <path class="cls-1" d="M68.22,122.19c-2.19,4.78-4.38,9.57-6.57,14.35-2.04,4.46-4.23,8.96-4.73,13.9-.22,2.13-.1,4.35,2.28,5.08,2.24.69,4.99.56,7.3.43,1.96-.12,4.88-1.19,6.38.53s1.13,4.33.87,6.44c-.74,6.02-1.51,12.04-2.26,18.06-.24,1.91,2.76,1.89,3,0,.65-5.2,1.3-10.4,1.95-15.6.51-4.04,1.49-9.45-2.65-12.02-1.96-1.22-4.18-.67-6.32-.48-1.21.11-2.42.15-3.64.12-.65-.01-1.29-.05-1.94-.1-.48-.04-1.33.03-1.73-.22-.46-.28-.35-.51-.32-1.11.02-.53.07-1.07.14-1.6.17-1.27.49-2.53.88-3.75.71-2.27,1.69-4.45,2.68-6.61,2.43-5.3,4.86-10.6,7.29-15.9.8-1.74-1.79-3.27-2.59-1.51h0Z"/>
      <path class="cls-1" d="M139.28,179.09c-2.44-4.47-3.71-9.49-3.63-14.59.03-1.98-.05-5.1,1.35-6.7.7-.81,1.81-1.04,2.81-1.26,1.38-.3,2.77-.56,4.15-.84,2.64-.53,5.47-.83,8.04-1.66,2.34-.75,3.24-2.67,2.94-5.02-.71-5.69-1.88-11.35-2.82-17-.9-5.4-1.35-11.22-4.83-15.7-1.18-1.52-3.29.61-2.12,2.12,2.99,3.85,3.24,9.5,4.02,14.13.46,2.78.93,5.57,1.39,8.35s1.14,5.66,1.41,8.49c.13,1.29-.3,1.64-1.5,1.92-1.39.32-2.8.56-4.2.85-2.6.52-5.25.94-7.82,1.59-2.18.55-3.9,1.72-4.77,3.84s-1,4.63-1.04,6.89c-.08,5.62,1.35,11.18,4.04,16.1.93,1.69,3.52.18,2.59-1.51h0Z"/>
      <path class="cls-1" d="M42,280.11c.15-13.17,1.76-26.29,3.07-39.38.19-1.92-2.81-1.91-3,0-1.31,13.09-2.92,26.21-3.07,39.38-.02,1.93,2.98,1.93,3,0h0Z"/>
      <path class="cls-1" d="M56.8,280.23c-2.68-11.09-3.6-22.51-2.76-33.88.14-1.93-2.86-1.92-3,0-.86,11.63.13,23.34,2.87,34.68.45,1.88,3.35,1.08,2.89-.8h0Z"/>
      <path class="cls-1" d="M67.61,282.13c-.68-9.89-1.78-19.75-3.28-29.55-.29-1.9-3.18-1.09-2.89.8,1.46,9.54,2.51,19.13,3.17,28.75.13,1.92,3.13,1.93,3,0h0Z"/>
      <path class="cls-1" d="M53.64,299.59c6.3,1.49,12.81,1.94,19.26,1.27.81-.08,1.5-.63,1.5-1.5,0-.75-.69-1.58-1.5-1.5-6.18.64-12.41.27-18.46-1.16-1.88-.44-2.68,2.45-.8,2.89h0Z"/>
      <path class="cls-1" d="M94.33,288.29l3.7-3.44c.58-.54.58-1.59,0-2.12-.62-.57-1.51-.57-2.12,0l-3.7,3.44c-.58.54-.58,1.59,0,2.12.62.57,1.51.57,2.12,0h0Z"/>
      <path class="cls-1" d="M101.72,257.94c1.51,3.85,1.77,7.97,2.13,12.04.38,4.38.73,8.76,1.05,13.15.65,8.85,1.18,17.72,1.6,26.58.06,1.38,2.1,2.18,2.8.76,1.72-3.53,1.69-7.39,1.94-11.22.12-1.87.32-3.81,1.07-5.55s2.47-3,3.1-4.86c.73-2.18-.12-4.39-.82-6.45-.77-2.29-1.39-4.62-1.85-6.99-.94-4.84-1.14-9.79-.71-14.7.17-1.92-2.83-1.91-3,0-.4,4.64-.21,9.29.53,13.89.37,2.3.9,4.58,1.57,6.82.56,1.88,2.17,4.66,1.38,6.62-.36.89-1.14,1.56-1.7,2.32s-.96,1.5-1.3,2.33c-.7,1.68-.99,3.47-1.17,5.28-.35,3.65.02,7.61-1.64,10.99l2.8.76c-.43-9.03-.97-18.06-1.63-27.08-.33-4.47-.69-8.93-1.08-13.4-.36-4.08-.65-8.24-2.17-12.1-.7-1.78-3.6-1-2.89.8h0Z"/>
      <path class="cls-1" d="M120.02,258.49c2.18,6.98,4.97,13.76,8.34,20.24.89,1.71,3.48.2,2.59-1.51-3.26-6.26-5.94-12.79-8.04-19.52-.57-1.84-3.47-1.05-2.89.8h0Z"/>
      <path class="cls-1" d="M37.22,182.94c2.18,6.22,5.8,12.96,12.46,15.19,5.86,1.96,13.01-.27,14.96-6.54.62-1.98.68-4.12.64-6.18-.05-2.49-.17-4.97-.25-7.45-.07-1.93-3.07-1.93-3,0,.08,2.34.18,4.69.24,7.03.05,2.06.08,4.23-.65,6.19-1.12,3.02-4.11,4.55-7.21,4.64-7.75.23-12.06-7.28-14.3-13.68-.64-1.81-3.53-1.03-2.89.8h0Z"/>
      <path class="cls-1" d="M53.75,190.41s0,0,0,0c.04.05.2.26.24.31,0,0,0,0,0,.01,0,0,.01.01.02.02.1.1.21.19.34.26.06.03.16.07.2.08.03.01.13.06.2.08,0,0,.01,0,.02,0,.07.01.19.03.21.03.05,0,.14.02.21.03.01,0,.03,0,.04,0,.07,0,.21-.03.2-.03.02,0,.14-.02.2-.03,0,0,0,0,.01,0,0,0,.01,0,.02,0s.01,0,.02,0c0,0,0,0,0,0,.06-.03.3-.12.36-.15,0,0,0,0,0,0,.01,0,.03-.01.04-.02,0,0,.01,0,.02-.01,0,0,0,0,0,0,.1-.08.21-.16.31-.24.01-.01.03-.02.04-.03s.02-.02.03-.04c0,0,0,0,0-.01.08-.1.17-.21.24-.31,0,0,0-.01.01-.02,0-.01.02-.03.02-.04,0,0,0-.01.01-.02.05-.11.11-.25.15-.36,0,0,0,0,0-.01,0-.01,0-.03.01-.04,0,0,0,0,0-.01,0-.05.05-.35.05-.4,0,0,0,0,0,0,0,0,0-.01,0-.02,0,0,0-.02,0-.02,0,0,0,0,0,0,0-.07-.04-.33-.05-.4,0,0,0,0,0-.01,0,0,0-.01,0-.02-.02-.06-.06-.15-.08-.19-.02-.04-.05-.13-.08-.19,0,0,0-.01-.01-.02-.08-.11-.16-.22-.25-.32,0,0-.01-.01-.02-.02,0,0,0,0-.01,0-.04-.03-.27-.21-.31-.24,0,0,0,0,0,0-.17-.11-.36-.17-.56-.18-.2-.04-.4-.04-.6.03-.2.05-.37.14-.51.27-.16.11-.29.25-.39.42l-.15.36c-.07.27-.07.53,0,.8l.15.36c.13.23.31.4.54.54,0,0,0,0,0,0l-.3-.23s.03.02.04.04l-.23-.3s.02.02.02.04l-.15-.36s.01.03.01.05l-.05-.4s0,.04,0,.06l.05-.4s-.01.05-.02.07l.15-.36s-.03.06-.05.09l.23-.3s-.05.06-.08.08l.3-.23s-.06.04-.09.05l.36-.15s-.05.02-.07.02l.4-.05s-.04,0-.06,0l.4.05s-.03,0-.05-.01l.36.15s-.03-.01-.04-.02l.3.23s-.03-.03-.04-.04l.23.3s0,0,0,0c-.09-.17-.22-.32-.39-.42-.14-.13-.31-.22-.51-.27-.2-.06-.4-.07-.6-.03-.2,0-.39.07-.56.18l-.3.23c-.19.19-.31.41-.39.66l-.05.4c0,.27.07.52.2.76h0Z"/>
      <path class="cls-1" d="M41.52,191.53c1.87,5.59,2.86,11.41,2.85,17.3,0,5.33-1.43,11.46,1.06,16.46,1.14,2.3,3.59,2.83,5.95,2.6,2.62-.26,5.28-.69,7.84-1.3s5.33-1.46,7.36-3.13c2.16-1.78,2.19-4.42,2.03-7-.22-3.41-.44-6.81-.65-10.22-.09-1.38.07-2.99-.9-4.11-.79-.92-2.14-1.21-3.01-.22-1.27,1.45.85,3.58,2.12,2.12l-.68.04c-.59-.19-.81-.05-.65.42-.05.19.03.55.05.75.04.58.07,1.16.11,1.75.09,1.33.17,2.66.26,3.99.15,2.4.42,4.82.44,7.22,0,.93-.06,1.91-.7,2.64s-1.75,1.22-2.65,1.61c-2.1.89-4.36,1.4-6.59,1.8-1.92.34-4.24.98-6.2.68s-2.28-3.31-2.44-4.96c-.44-4.54.4-9.14.19-13.7-.24-5.28-1.23-10.51-2.9-15.53-.61-1.82-3.51-1.04-2.89.8h0Z"/>
      <path class="cls-1" d="M52.58,205.31c.75,3.89,1.38,7.81,1.85,11.75.24,1.96.44,3.92.61,5.89.08.98.16,1.97.23,2.95.06.87-.07,2.06.21,2.9.98,2.95,5.81.84,4.78-1.99s-5.53-1.23-4.95,1.69c.38,1.89,3.27,1.09,2.89-.8.29,1.43-1.05-.16-.72-.42.06-.05.12-.32.49.07l.44,1.06c-.44-8.02-1.43-16-2.95-23.89-.36-1.89-3.26-1.09-2.89.8h0Z"/>
      <path class="cls-1" d="M139.64,179.22c.08.33-.25.2-.04.32,0,0,.3-.12.3-.12.33-.05.61-.13.94-.13,1.23.02,2.49.23,3.71.34,2.45.23,4.9.47,7.35.7,4.82.46,9.63.92,14.45,1.38.97.09,2.38,0,3.27.44.77.39.89,1.41,1.02,2.18.39,2.37.52,4.8.61,7.2.18,4.78-.04,9.57-.42,14.33-.19,2.43-.42,4.86-.66,7.28-.19,1.91-.32,3.84-.82,5.7-.46,1.75-1.29,3.42-2.92,4.35-1.71.98-3.79,1.03-5.7.95-3.32-.14-7.54-.71-9.62-3.65-1.19-1.67-1.48-3.81-1.65-5.81-.19-2.28-.26-4.57-.33-6.85-.16-5.2-.48-10.32-1.72-15.39-1.05-4.32-2.7-9.32-.42-13.52.92-1.7-1.67-3.21-2.59-1.51-2.4,4.4-1.48,9.33-.35,13.96.62,2.55,1.26,5.08,1.56,7.7.31,2.75.41,5.52.5,8.29s.13,5.44.42,8.14c.25,2.34.71,4.72,2.1,6.67,2.56,3.61,7.15,4.63,11.31,4.92,4.49.31,9.28-.61,11.41-5.04.92-1.92,1.28-4.01,1.52-6.11.32-2.7.55-5.42.79-8.13.49-5.65.81-11.33.55-17-.12-2.62-.22-5.4-.82-7.97-.55-2.33-2.08-3.59-4.42-3.87-6.4-.77-12.86-1.23-19.28-1.85-1.55-.15-3.1-.3-4.65-.45-1.47-.14-3.02-.45-4.5-.39-2.06.09-4.41,1.32-3.81,3.72.47,1.87,3.36,1.08,2.89-.8h0Z"/>
      <path class="cls-1" d="M144.59,192.85c2.6.66,5.16,1.46,7.66,2.43s4.78,2.24,7.21,3.29c2.03.88,3.99.87,5.98-.11,1.81-.9,3.26-2.48,5.2-3.11,1.82-.59,1.07-3.42-.8-2.89-.46.13-.93.26-1.39.39-1.86.52-1.07,3.42.8,2.89.46-.13.93-.26,1.39-.39l-.8-2.89c-1.85.6-3.29,1.79-4.91,2.83-.7.45-1.45.9-2.29.98-1.13.11-2.18-.51-3.15-1-4.5-2.28-9.22-4.06-14.1-5.3-1.87-.47-2.67,2.42-.8,2.89h0Z"/>
      <path class="cls-1" d="M159.7,190.25l.51-.51c.15-.14.25-.3.31-.48.09-.18.14-.37.13-.58,0-.21-.04-.4-.13-.58-.06-.19-.16-.35-.31-.48l-.3-.23c-.23-.14-.49-.2-.76-.2l-.4.05c-.25.07-.47.2-.66.39l-.51.51c-.15.14-.25.3-.31.48-.09.18-.14.37-.13.58,0,.21.04.4.13.58.06.19.16.35.31.48l.3.23c.23.14.49.2.76.2l.4-.05c.25-.07.47-.2.66-.39h0Z"/>
      <path class="cls-1" d="M161.68,205.82h-.1c.43.26.86.51,1.3.75l-.06-.08.2.76-.02.15-.69.9.11-.06-1.16.15.21.06-.66-.39c.38.39.56,1.24.75,1.75.26.69.48,1.39.68,2.09.38,1.33.67,2.7.82,4.08.32,2.85.19,5.72-.42,8.52-.41,1.88,2.49,2.69,2.89.8.89-4.13.91-8.38.01-12.51-.44-2.02-1.09-4.01-1.98-5.88-.47-1.01-1.52-1.89-2.68-1.27-.83.45-1.19,1.64-.62,2.45.29.41.75.8,1.3.74h.1c.81-.09,1.5-.64,1.5-1.51,0-.75-.69-1.58-1.5-1.5h0Z"/>
      <path class="cls-1" d="M149.22,246.65c2.36,4.66,3.76,9.77,4.04,14.99.3,5.5-.07,11.06-.18,16.56-.04,1.93,2.96,1.93,3,0,.12-5.81.57-11.72.12-17.52-.42-5.43-1.93-10.68-4.39-15.54-.87-1.72-3.46-.21-2.59,1.51h0Z"/>
      <path class="cls-1" d="M173.19,242.67c1.57,9.54,1.57,19.34,0,28.88-.31,1.89,2.58,2.7,2.89.8,1.66-10.11,1.65-20.36,0-30.47-.31-1.9-3.2-1.09-2.89.8h0Z"/>
      <path class="cls-1" d="M168.17,242.78c.8,10.61.47,21.3-1.08,31.82-.28,1.89,2.61,2.7,2.89.8,1.59-10.8,2.01-21.73,1.19-32.62-.14-1.91-3.15-1.93-3,0h0Z"/>
      <path class="cls-1" d="M138.2,297.51c13.08,1.55,26.36-.45,38.48-5.58.75-.32.9-1.41.54-2.05-.44-.78-1.31-.85-2.05-.54-11.62,4.92-24.45,6.65-36.97,5.17-1.91-.23-1.9,2.78,0,3h0Z"/>
      <path class="cls-1" d="M134.57,304.49c9.4,4.31,20.3,4.24,29.62-.23,1.74-.83.22-3.42-1.51-2.59-8.28,3.97-18.25,4.06-26.6.23-1.74-.8-3.27,1.79-1.51,2.59h0Z"/>
      <path class="cls-1" d="M136.5,301.5c-.72-8.45-1.44-16.9-2.17-25.34-.35-4.13-.8-8.27-.87-12.42s.48-8.19,1.15-12.26c1.28-7.88,1.83-15.72,1.71-23.7s-.69-16.06-.88-24.1c-.21-9,.07-18.05,2.05-26.87.42-1.88-2.47-2.68-2.89-.8-3.54,15.8-1.84,31.99-1.36,47.99.24,8.12.13,16.27-1.14,24.31-.63,4-1.39,8-1.59,12.05s.17,8.22.52,12.32c.82,9.61,1.64,19.21,2.46,28.82.16,1.91,3.16,1.93,3,0h0Z"/>
      <path class="cls-1" d="M184.93,284.28c3.61.4,7.22.82,10.84,1.21,2.72.29,5.77.3,7.79-1.83,1.33-1.4-.79-3.52-2.12-2.12-1.63,1.72-4.6,1.07-6.69.84l-9.82-1.09c-.81-.09-1.5.75-1.5,1.5,0,.89.69,1.41,1.5,1.5h0Z"/>
      <g>
        <path d="M181.27,291.1l.97,13.13c.07.9.15,1.86.69,2.58.89,1.19,2.76,1.27,4.03.5s2.02-2.17,2.49-3.58c.94,1.45,2.31,2.81,4.03,2.95s3.56-1.55,2.98-3.18c2.26,1.84,5.94-.03,6.96-2.76s.24-5.77-.54-8.58c-.39-1.4-.98-3.01-2.37-3.42-.76-.22-1.57-.01-2.34.18-5.57,1.41-11.33,2.06-17.07,1.93"/>
        <path class="cls-1" d="M179.77,291.1l.62,8.32c.11,1.46.21,2.92.32,4.38.08,1.14.14,2.31.68,3.34.98,1.9,3.33,2.58,5.3,1.93,2.24-.74,3.48-2.83,4.22-4.94l-2.74.36c1.32,1.97,3.37,3.92,5.93,3.67s4.49-2.57,3.82-5.06l-2.2,1.69c2.74,2.04,6.52.47,8.33-2.06,2.36-3.3,1.27-8,.13-11.54-.5-1.57-1.34-3.2-2.98-3.8-1.99-.72-4.37.35-6.34.75-4.52.92-9.12,1.29-13.73,1.2-1.93-.04-1.93,2.96,0,3,3.59.07,7.16-.16,10.71-.66,1.78-.25,3.54-.57,5.29-.97,1.27-.29,2.95-1.19,3.74.24.65,1.17.91,2.64,1.19,3.93.36,1.64.61,3.44.06,5.07-.63,1.9-3.04,3.62-4.89,2.24-1.1-.82-2.52.53-2.2,1.69.25.93-1.04,1.4-1.76,1.23-1.09-.26-1.91-1.26-2.51-2.15-.74-1.1-2.31-.88-2.74.36s-1.24,2.9-2.75,2.98c-1.69.09-1.51-2-1.59-3.18-.3-4.01-.59-8.02-.89-12.04-.14-1.91-3.14-1.93-3,0h0Z"/>
      </g>
      <g>
        <path class="cls-1" d="M77.72,425.18c2.2,1.41,2.48,4.69,1.32,7.02s-3.37,3.95-5.49,5.47c-5.18,3.7-10.35,7.41-15.53,11.11-2.66,1.9-5.37,3.85-7.35,6.45-2.59,3.39-3.79,7.81-3.27,12.04.26,2.15,1.04,4.36,2.73,5.7,3.26,2.57,7.95.84,11.93-.37,13.22-4.02,28.34-1,40.51-7.55.47-.25.94-.53,1.27-.95.51-.65.57-1.54.61-2.36.56-10.71,1.11-21.42,1.67-32.13.1-2.01.07-4.33-1.49-5.6-.96-.77-2.25-.93-3.48-1.04-5.98-.53-12-.64-18-.32-1.71.09-3.56.28-4.8,1.45s-1.28,3.67.32,4.28"/>
        <path d="M76.96,426.47c2.4,1.68,1.01,5.2-.54,6.88-2.25,2.46-5.32,4.23-8.01,6.15-3.19,2.28-6.37,4.56-9.56,6.84-2.71,1.94-5.54,3.81-7.86,6.21-4.34,4.49-6.64,11.68-4.44,17.73,1.07,2.94,3.36,5.02,6.51,5.42,2.94.38,5.87-.59,8.65-1.44,12.56-3.88,26.36-1.43,38.61-6.52,1.43-.59,3.15-1.21,4.28-2.3s1.26-2.69,1.35-4.21c.2-3.79.39-7.58.59-11.37s.41-7.91.62-11.86c.09-1.81.19-3.63.28-5.44.09-1.7.29-3.44.15-5.15-.13-1.55-.54-3.11-1.67-4.24-1.28-1.28-3.07-1.55-4.8-1.71-4.2-.4-8.43-.54-12.65-.49-2.03.02-4.07.05-6.09.22-1.6.13-3.22.41-4.55,1.37-2.26,1.64-2.84,5.73.04,7.11,1.73.83,3.26-1.76,1.51-2.59-.73-.35-.56-1.32-.08-1.86.81-.93,2.5-.99,3.63-1.06,3.46-.21,6.94-.24,10.41-.15,1.62.04,3.24.12,4.86.23,1.51.1,3.27.02,4.71.54,2.59.94,1.65,5.22,1.54,7.29-.36,6.92-.72,13.84-1.08,20.76-.09,1.65-.17,3.3-.26,4.94-.05.91-.09,1.81-.14,2.72-.04.71.05,1.57-.18,2.26-.38,1.11-2.46,1.75-3.46,2.17-1.39.59-2.84,1.06-4.3,1.45-5.75,1.56-11.73,1.84-17.64,2.29-5.87.45-11.59,1.2-17.24,2.93-2.39.73-5.26,1.75-7.75.92-2.78-.92-3.57-4.09-3.65-6.7-.09-2.98.69-5.94,2.24-8.48s3.95-4.51,6.36-6.27c6.02-4.4,12.23-8.56,18.19-13.04,2.36-1.77,4.82-3.97,5.44-7,.56-2.74-.2-5.52-2.54-7.16-1.59-1.11-3.09,1.49-1.51,2.59h0Z"/>
      </g>
      <g>
        <path class="cls-1" d="M59.57,450.15c3.54.08,7.06.92,10.25,2.45"/>
        <path d="M59.57,451.65c3.25.08,6.54.84,9.5,2.24.73.35,1.62.2,2.05-.54.38-.65.2-1.7-.54-2.05-3.46-1.64-7.18-2.55-11.01-2.65-.81-.02-1.5.7-1.5,1.5s.69,1.48,1.5,1.5h0Z"/>
      </g>
      <g>
        <path class="cls-1" d="M67.74,444.18c3.77-.08,7.55.83,10.88,2.6"/>
        <path d="M67.74,445.68c3.52-.06,6.99.74,10.12,2.4.72.38,1.63.18,2.05-.54.4-.68.18-1.67-.54-2.05-3.58-1.89-7.59-2.87-11.64-2.81-.81.01-1.5.68-1.5,1.5s.69,1.51,1.5,1.5h0Z"/>
      </g>
      <g>
        <path class="cls-1" d="M74.39,438.99c4.34.04,8.64,1.96,11.57,5.17"/>
        <path d="M74.39,440.49c3.95.06,7.78,1.78,10.51,4.73.55.6,1.56.56,2.12,0,.59-.59.55-1.52,0-2.12-3.23-3.5-7.87-5.53-12.63-5.61-1.93-.03-1.93,2.97,0,3h0Z"/>
      </g>
      <g>
        <path class="cls-1" d="M75.4,437.35c5.76-1.52,12.1-.74,17.32,2.14"/>
        <path d="M75.8,438.8c5.42-1.39,11.24-.69,16.16,1.98,1.7.92,3.21-1.67,1.51-2.59-5.63-3.06-12.27-3.88-18.47-2.29-1.87.48-1.08,3.37.8,2.89h0Z"/>
      </g>
      <g>
        <path class="cls-1" d="M80.07,456.04c4.81,1.62,8.6,5.97,9.54,10.96"/>
        <path d="M79.67,457.48c2.09.72,4.01,2.05,5.56,3.83,1.47,1.68,2.48,3.77,2.93,6.08.16.8,1.11,1.25,1.85,1.05.83-.23,1.2-1.05,1.05-1.85-1.08-5.54-5.28-10.18-10.59-12-.77-.26-1.64.3-1.85,1.05-.23.82.28,1.58,1.05,1.85h0Z"/>
      </g>
      <g>
        <path class="cls-1" d="M90.73,453.16c.51.05.75-.82.29-1.03s-.98.52-.62.88"/>
        <path d="M90.73,454.66s.05,0,.07,0c.08,0,.17-.02.23-.03s.16-.02.23-.03c.17-.04.33-.11.48-.2,0,0,.02-.01.03-.02.11-.08.22-.16.32-.25.02-.02.04-.03.05-.05.06-.06.11-.14.16-.2.05-.07.11-.14.16-.21.01-.02.02-.04.03-.06.06-.14.13-.28.18-.42.02-.05.03-.09.04-.14.02-.15.05-.31.06-.46,0-.03,0-.05,0-.08,0-.15-.03-.3-.06-.45,0-.02,0-.05-.02-.07,0-.01,0-.02-.01-.04-.05-.12-.1-.26-.16-.38-.01-.02-.02-.05-.04-.07,0,0-.01-.02-.02-.02-.06-.09-.17-.23-.24-.31,0,0,0,0-.01-.01-.02-.02-.03-.03-.05-.05-.1-.08-.22-.18-.32-.25,0,0-.02-.01-.03-.02-.01,0-.02-.01-.04-.02-.12-.06-.26-.12-.39-.16-.02,0-.05-.02-.07-.02-.13-.02-.29-.04-.42-.06-.02,0-.03,0-.05,0-.18,0-.37.02-.54.08-.07.02-.14.06-.21.09s-.14.06-.21.09c-.02.01-.05.03-.07.04-.01,0-.02.01-.03.02-.11.08-.22.16-.33.25-.02.02-.04.04-.06.06-.12.13-.23.27-.33.43s-.17.33-.22.51c0,.03-.01.06-.02.09-.02.14-.05.29-.06.43,0,.01,0,.03,0,.04,0,.16.03.32.06.47,0,.03.01.05.02.08.13.33.22.54.48.8.14.15.3.25.48.31.18.09.37.14.58.13.21,0,.4-.04.58-.13.19-.06.35-.16.48-.31l.23-.3c.14-.23.2-.49.2-.76l-.05-.4c-.07-.25-.2-.47-.39-.66-.01-.01-.03-.03-.04-.04l.23.3s-.04-.05-.05-.08l.15.36s-.02-.07-.03-.11l.05.4s0-.08,0-.13l-.05.4c0-.05.02-.11.04-.16l-.15.36c.03-.06.06-.11.1-.16l-.23.3s.07-.08.12-.12l-.3.23s.08-.06.13-.08l-.36.15s.07-.03.11-.03l-.4.05s.08,0,.12,0l-.4-.05s.06.01.1.03l-.36-.15s.07.03.1.06l-.3-.23s.05.04.07.07l-.23-.3s.04.06.06.1l-.15-.36s.03.09.04.14l-.05-.4c0,.06,0,.11,0,.17l.05-.4c0,.06-.03.13-.05.19l.15-.36c-.02.05-.05.1-.08.15l.23-.3s-.06.07-.09.1l.3-.23s-.06.04-.1.06l.36-.15s-.07.02-.1.03l.4-.05s-.07,0-.1,0c-.21,0-.4.04-.58.13-.19.06-.35.16-.48.31-.15.14-.25.3-.31.48-.09.18-.14.37-.13.58l.05.4c.07.25.2.47.39.66l.3.23c.23.14.49.2.76.2h0Z"/>
      </g>
      <g>
        <path class="cls-1" d="M97.83,425.49c.06,2.44.15,5.02,1.47,7.07s4.31,3.24,6.27,1.79"/>
        <path d="M96.33,425.49c.07,3.04.26,6.41,2.41,8.79,1.82,2.02,5.22,3.05,7.58,1.36.64-.45,1-1.33.54-2.05-.41-.63-1.37-1.03-2.05-.54-.11.08-.22.15-.34.22-.09.05-.46.17-.1.06-.19.06-.44.18-.65.17.4.03,0-.01-.11-.01-.13,0-.26,0-.4-.01-.31-.01.28.07-.06,0-.11-.03-.23-.05-.34-.08s-.23-.07-.34-.1c-.07-.03-.15-.05-.22-.08.16.07.19.08.09.03-.23-.12-.46-.23-.68-.38-.1-.07-.2-.14-.3-.21.29.21-.06-.06-.12-.11-.19-.18-.36-.37-.54-.56.23.24,0-.02-.05-.08-.08-.11-.15-.23-.22-.35-.09-.15-.16-.3-.24-.45-.03-.05-.21-.49-.11-.24-.22-.59-.39-1.19-.5-1.81-.03-.14-.05-.29-.07-.43-.07-.47.03.29-.02-.19-.04-.34-.07-.69-.09-1.03-.04-.64-.06-1.28-.07-1.92-.02-.78-.68-1.54-1.5-1.5s-1.52.66-1.5,1.5h0Z"/>
      </g>
      <g>
        <path class="cls-1" d="M132.02,421.02c1.29,13.57.45,27.34-2.49,40.65,8.91.78,17.9,1.58,26.47,4.18,6.26,1.9,12.38,4.77,18.92,4.85s13.81-3.81,14.67-10.29c.74-5.58-3.39-10.58-7.71-14.18-3.34-2.78-6.97-5.2-10.77-7.31-2.95-1.63-6.04-3.09-8.55-5.33s-4.41-5.47-4.1-8.82c.1-1.13.44-2.34-.05-3.36-.54-1.12-1.86-1.59-3.06-1.91-7.9-2.1-16.28-2.37-24.29-.79-.62.69-.31,1.97.55,2.31"/>
        <path d="M130.52,421.02c1.26,13.46.46,27.05-2.44,40.25-.22,1.01.45,1.81,1.45,1.9,5.89.52,11.79,1.03,17.61,2.1s11.16,2.99,16.72,4.78c4.85,1.57,10.04,2.78,15.14,1.73,4.07-.84,8.06-3.07,10.36-6.6,6.14-9.39-3.99-18.6-11.02-23.53-2.33-1.63-4.76-3.1-7.26-4.46s-4.87-2.51-6.97-4.25c-1.86-1.54-3.46-3.53-4.02-5.93s.9-5.16-1-7.24-5.47-2.32-7.96-2.75c-3.23-.56-6.51-.86-9.78-.85s-6.4.3-9.55.85c-1.44.25-2.49.78-2.58,2.4-.06,1.19.56,2.31,1.61,2.86,1.7.91,3.22-1.68,1.51-2.59-.23-.12-.13-.09-.01-.26l-.9.69c5.12-.99,10.37-1.21,15.56-.68,2.6.27,5.18.74,7.71,1.41.75.2,1.91.4,2.31,1.15.5.93-.11,2.49-.1,3.5.04,4.51,3.1,8.21,6.59,10.71,3.97,2.84,8.54,4.75,12.58,7.5,5.86,3.99,16.33,12.33,10.42,20.33-2.14,2.89-5.82,4.53-9.31,5-4.68.64-9.46-.86-13.84-2.34-5.4-1.82-10.71-3.54-16.34-4.52s-11.64-1.53-17.49-2.05l1.45,1.9c2.95-13.46,3.83-27.33,2.54-41.05-.18-1.91-3.18-1.92-3,0h0Z"/>
      </g>
      <g>
        <path class="cls-1" d="M133.11,433.28l6.66-.04c.2-3.42-.12-6.87-.94-10.2"/>
        <path d="M133.11,434.78l6.66-.04c.84,0,1.45-.68,1.5-1.5.2-3.56-.15-7.14-1-10.59-.19-.79-1.08-1.26-1.85-1.05s-1.24,1.06-1.05,1.85c.79,3.22,1.08,6.48.89,9.8l1.5-1.5-6.66.04c-.81,0-1.5.69-1.5,1.5s.69,1.51,1.5,1.5h0Z"/>
      </g>
      <g>
        <path class="cls-1" d="M154.77,465.45c0-3,1.35-5.99,3.62-7.95"/>
        <path d="M156.27,465.45c0-.36.02-.72.06-1.08,0-.03.04-.31.01-.12s.01-.08.02-.11c.03-.19.07-.37.11-.56.08-.35.17-.7.29-1.04.05-.16.11-.32.17-.48.01-.03.11-.28.04-.11-.08.19.08-.17.08-.17.29-.63.65-1.24,1.06-1.8.04-.05.22-.28.03-.05.05-.07.11-.13.16-.2.11-.13.22-.26.33-.38.26-.28.53-.54.82-.8.59-.52.57-1.6,0-2.12-.63-.58-1.49-.55-2.12,0-2.56,2.25-4.04,5.62-4.06,9.02,0,.78.69,1.54,1.5,1.5s1.5-.66,1.5-1.5h0Z"/>
      </g>
      <g>
        <path class="cls-1" d="M149.33,438.75c2.87-2.45,6.23-4.31,9.83-5.45"/>
        <path d="M150.39,439.81c.7-.59,1.21-.99,1.97-1.51s1.55-1.02,2.37-1.47c1.64-.91,3.07-1.52,4.83-2.08.77-.25,1.27-1.04,1.05-1.85-.21-.76-1.07-1.3-1.85-1.05-3.86,1.24-7.4,3.22-10.49,5.84-.62.52-.54,1.58,0,2.12.61.61,1.5.53,2.12,0h0Z"/>
      </g>
      <g>
        <path class="cls-1" d="M152.02,440.01c4.14-.99,8.22-2.25,12.2-3.75"/>
        <path d="M152.42,441.45c4.14-1,8.22-2.25,12.2-3.75.76-.29,1.28-1.01,1.05-1.85-.2-.73-1.08-1.34-1.85-1.05-3.99,1.5-8.06,2.76-12.2,3.75-1.88.45-1.08,3.34.8,2.89h0Z"/>
      </g>
      <g>
        <path class="cls-1" d="M158.72,445.18c3.34-1.66,6.69-3.31,10.03-4.97"/>
        <path d="M159.48,446.48c3.34-1.66,6.69-3.31,10.03-4.97.73-.36.93-1.39.54-2.05-.43-.74-1.32-.9-2.05-.54-3.34,1.66-6.69,3.31-10.03,4.97-.73.36-.93,1.39-.54,2.05.43.74,1.32.9,2.05.54h0Z"/>
      </g>
      <g>
        <path class="cls-1" d="M163.83,451.8c3.51-2.14,7.25-3.92,11.13-5.3"/>
        <path d="M164.59,453.09c3.41-2.07,7.01-3.81,10.77-5.14.76-.27,1.27-1.02,1.05-1.85-.2-.74-1.08-1.32-1.85-1.05-4,1.43-7.86,3.24-11.49,5.45-.69.42-.95,1.34-.54,2.05s1.36.96,2.05.54h0Z"/>
      </g>
      <path d="M22.62,94.45c10.63-4.42,22.36-5.89,33.73-4.04,1.89.31,2.7-2.58.8-2.89-11.9-1.94-24.18-.6-35.33,4.04-1.76.73-.99,3.63.8,2.89h0Z"/>
      <path d="M24.95,104.46c5.7-2.22,11.8-3.76,17.75-5.16s12.21-2.31,18.43-1.78c1.92.16,1.91-2.84,0-3-6.31-.54-12.61.36-18.75,1.78s-12.37,3-18.22,5.27c-1.78.69-1.01,3.59.8,2.89h0Z"/>
      <path d="M28.48,115.23c12.01-3.07,23.7-7.28,34.93-12.54,1.75-.82.23-3.41-1.51-2.59-10.99,5.15-22.45,9.24-34.21,12.24-1.87.48-1.08,3.37.8,2.89h0Z"/>
      <path d="M37.72,121.47c11.04-2.17,21.59-6.58,30.88-12.92,1.59-1.08.09-3.68-1.51-2.59-9.11,6.21-19.35,10.49-30.17,12.61-1.89.37-1.09,3.26.8,2.89h0Z"/>
      <path d="M149.69,86.41c9.72-.96,19.55-.79,29.22.61,1.89.27,2.7-2.62.8-2.89-9.95-1.44-20.01-1.71-30.02-.72-1.9.19-1.92,3.19,0,3h0Z"/>
      <path d="M134.65,95.47c15.6-.71,31.24-.08,46.73,1.87,1.91.24,1.89-2.76,0-3-15.49-1.95-31.13-2.58-46.73-1.87-1.92.09-1.93,3.09,0,3h0Z"/>
      <path d="M135.41,103.58c14.87.02,29.7,1.44,44.29,4.28,1.89.37,2.69-2.52.8-2.89-14.85-2.89-29.96-4.37-45.09-4.39-1.93,0-1.93,3,0,3h0Z"/>
      <path d="M134.89,103.94c12.79.98,25.2,5.1,36.07,11.9,1.64,1.03,3.15-1.57,1.51-2.59-11.33-7.08-24.27-11.29-37.59-12.31-1.93-.15-1.92,2.85,0,3h0Z"/>
      <g>
        <path d="M102.23,89c-2.35-.35-4.8.06-6.91,1.15-.54.28-1.12.7-1.15,1.31-.02.44.27.82.53,1.17.97,1.25,1.94,2.49,2.92,3.74.37.47.77.96,1.35,1.14.77.24,1.58-.18,2.28-.58,1.45-.83,2.97-1.72,3.83-3.15s.8-3.57-.58-4.51c-.59-.4-1.32-.52-2.04-.51"/>
        <path d="M102.63,87.55c-2.77-.39-5.58-.02-8.07,1.3-1.28.68-2.25,1.98-1.75,3.48.24.72.77,1.28,1.23,1.87s.88,1.13,1.33,1.7c.77.99,1.53,2.28,2.69,2.85,1.48.72,2.93.06,4.24-.69,2.03-1.17,4.25-2.73,4.72-5.19.24-1.24.13-2.59-.57-3.68-.88-1.36-2.42-1.92-3.99-1.92-.81,0-1.5.69-1.5,1.5s.69,1.5,1.5,1.5c.41,0,.65,0,.99.14,0,0,.43.29.2.1.09.08.34.41.21.2.05.07.24.5.15.24.05.15.09.3.13.46.04.17,0-.03,0-.06,0,.09.01.19.02.28,0,.1-.03.58,0,.31-.03.19-.07.37-.13.55-.02.07-.04.13-.07.2-.07.23.09-.18-.01.03-.2.4-.33.59-.6.89-.59.64-1.13,1-1.88,1.46-.59.36-1.5,1.02-2.05,1.01-.18,0-.06,0-.02,0,.1.02-.09-.06-.11-.07.13.12-.06-.07-.07-.07-.08-.08-.15-.16-.23-.24-.32-.37-.61-.76-.91-1.15-.67-.85-1.33-1.7-1.99-2.55-.1-.13-.2-.25-.3-.39.02.02-.18-.28-.18-.28.03,0,.04.16.04.14l-.05.17c-.07.18-.07.22,0,.1l.04-.06c-.06.09-.06.1.01.02.2-.16-.15.09.07-.05.11-.07.22-.13.34-.2,1.73-.92,3.87-1.26,5.76-1,.8.11,1.61-.2,1.85-1.05.19-.7-.24-1.73-1.05-1.85h0Z"/>
      </g>
      <path d="M89.14,102.68c1.99,2.38,5.24,1.85,7.82.96s5.33-2.49,4.66-5.66c-.17-.79-1.1-1.25-1.85-1.05-.85.23-1.17,1.04-1.05,1.85.72,4.58,5.74,7.39,10.02,5.6.75-.31,1.28-.99,1.05-1.85-.19-.7-1.09-1.36-1.85-1.05-2.89,1.21-5.84-.4-6.33-3.51l-2.89.8c.28,1.31-2.35,1.91-3.17,2.18-1.43.46-3.2.93-4.3-.39-1.24-1.48-3.35.65-2.12,2.12h0Z"/>
      <g>
        <path d="M95.32,77.61c2.76-.62,5.63-.7,8.42-.25,1.43-4.69,6.84-6.81,11.67-7.6,6.03-.97,12.23-.86,18.22.33,2.91.58,6.36,2.09,6.52,5.06.07,1.26-.52,2.45-1.09,3.57-1.79,3.51-3.72,7.19-7.07,9.28-4.87,3.04-11.21,1.8-16.65-.06-4.19-1.44-8.26-3.18-12.19-5.22-1.17-.61-2.36-1.25-3.66-1.47-2.75-.46-5.45,1.07-7.57,2.89s-3.96,4.02-6.41,5.36c-4.25,2.33-9.64,1.6-13.94-.64s-7.72-5.81-11.06-9.32c-.56-.59-1.14-1.22-1.31-2.01-.19-.89.19-1.81.64-2.6,1.99-3.52,5.52-6.04,9.38-7.27s8.03-1.24,12.01-.55c3.75.65,7.62,2.07,9.89,5.12,1.44,1.93,2.24,4.49,4.33,5.67"/>
        <path d="M95.72,79.05c2.51-.53,5.09-.64,7.63-.25.83.13,1.57-.2,1.85-1.05,1.59-4.84,7.7-6.21,12.14-6.77,3.35-.42,6.74-.49,10.1-.24,2.82.21,5.99.45,8.6,1.64.87.4,1.82.95,2.31,1.81.72,1.25,0,2.62-.57,3.77-1.24,2.45-2.52,5-4.43,7-4.18,4.36-10.34,3.72-15.66,2.14-3.02-.9-5.97-2.05-8.85-3.33-1.44-.64-2.87-1.32-4.28-2.04s-2.73-1.51-4.22-1.86c-2.93-.69-5.82.43-8.17,2.16s-4.2,4.14-6.68,5.73c-5.1,3.27-11.49,1.23-16.04-2-2.45-1.74-4.6-3.9-6.68-6.06-.87-.9-2.42-1.93-1.97-3.32.41-1.27,1.47-2.48,2.4-3.41,4.75-4.8,12.05-5.57,18.4-4.29,2.82.57,5.73,1.58,7.75,3.73s2.71,5.15,5.37,6.77c1.65,1.01,3.16-1.58,1.51-2.59-1.24-.76-1.91-2.05-2.62-3.28-.75-1.29-1.56-2.54-2.67-3.55-2.26-2.08-5.2-3.25-8.16-3.9-6.49-1.41-13.84-.97-19.38,3.03-2.31,1.67-4.89,4.2-5.59,7.07-.41,1.69.28,3.09,1.39,4.32s2.36,2.48,3.58,3.67c4.7,4.59,10.55,8.71,17.42,8.44,3.34-.13,6.24-1.4,8.79-3.53s4.74-5.12,8.08-6.02c1.66-.45,3.07-.01,4.57.74,1.82.91,3.62,1.84,5.48,2.67,3.3,1.48,6.69,2.84,10.17,3.84,5.98,1.71,12.78,2.06,17.63-2.48,2.31-2.16,3.85-5.01,5.27-7.8s2.27-5.66,0-8.17-5.88-3.06-8.99-3.5c-4.27-.61-8.6-.73-12.9-.28-6.16.64-13.8,2.42-15.99,9.08l1.85-1.05c-3.1-.47-6.15-.4-9.22.25-1.89.4-1.09,3.29.8,2.89h0Z"/>
      </g>
      <path class="cls-1" d="M68.09,74.69c3.07,2.39,6.13,4.79,9.2,7.18,1.52,1.18,3.03,2.37,4.55,3.55,1.34,1.04,3.01,1.98,4.73,1.34.76-.28,1.28-1.01,1.05-1.85-.2-.73-1.08-1.33-1.85-1.05-1.13.42-2.49-1.09-3.3-1.72l-4.13-3.23c-2.71-2.12-5.42-4.23-8.13-6.35-.64-.5-1.5-.62-2.12,0-.52.52-.64,1.62,0,2.12h0Z"/>
      <path class="cls-1" d="M112.97,75.54c2.76,1.54,5.56,3.09,8,5.11s4.49,4.19,7.23,5.59c1.72.88,3.24-1.71,1.51-2.59-2.68-1.37-4.7-3.59-7.02-5.44-2.55-2.04-5.37-3.66-8.21-5.25-1.69-.94-3.2,1.65-1.51,2.59h0Z"/>
      <g>
        <path d="M52.19,57.39l-6.35,9.89c-.23.35-.46.73-.47,1.14-.03.9.93,1.5,1.8,1.75,4.34,1.25,8.81-1.15,12.66-3.5,4.26-2.61,8.53-5.3,12-8.89s6.13-8.18,6.47-13.16c1.37,4.38.39,9.41-2.51,12.96,1.27.96,3.09.1,4.37-.85,4.92-3.62,8.94-8.47,11.56-13.99-1.68,4.54-1.96,9.59-.81,14.3.1.39.23.83.59,1.02.7.4,1.45-.43,1.84-1.14,3.18-5.81,6.35-11.62,9.53-17.43.7,6.61,4.12,12.89,9.28,17.08s12.01,6.24,18.63,5.57c-1.39-4.01-1.29-8.52.28-12.46,3.05,4.76,6.15,9.48,9.31,14.17,1.34,1.99,2.73,4.02,4.64,5.48,4.57,3.49,10.97,2.98,16.6,1.81,2.07-.43,4.43-1.17,5.22-3.13.43-1.07.28-2.29-.06-3.4-1.64-5.37-7.12-8.71-9.48-13.81-1.1-2.37-1.47-5.01-1.82-7.6-1.26-9.42-2.36-18.86-3.29-28.32-.32-3.26-.68-6.68-2.54-9.37-2.64-3.81-8.27-5.18-12.37-3-3.05,1.62-4.96,4.71-7.26,7.29-5.54,6.21-13.75,9.63-22.02,10.45s-16.64-.81-24.52-3.47c-1.54-.52-3.09-1.08-4.48-1.93-2.16-1.3-3.88-3.21-5.67-4.99-2.99-2.99-6.43-5.79-10.55-6.76s-9.03.37-11.11,4.06c-1.69,3-1.18,6.7-1.53,10.13-.34,3.32-1.52,6.51-1.97,9.82-.47,3.51-.11,7.07.28,10.59.7,6.41,1.44,12.82,2.24,19.22"/>
        <path d="M50.89,56.63l-3.97,6.18-1.85,2.89c-.58.9-1.22,1.77-1.19,2.89.06,1.95,2.06,2.92,3.73,3.24,2.1.39,4.25.14,6.26-.53,4.02-1.32,7.69-3.83,11.19-6.16s6.92-4.96,9.57-8.27c2.85-3.56,4.79-7.67,5.16-12.24l-2.95.4c1.16,3.92.43,8.28-2.13,11.5-.61.76-.59,1.8.3,2.36,1.82,1.14,3.92.48,5.58-.63,1.78-1.19,3.42-2.66,4.93-4.17,3.06-3.08,5.59-6.67,7.48-10.58l-2.74-1.16c-1.19,3.33-1.73,6.9-1.51,10.44.13,2.11.44,8.26,4.09,6.65,1.47-.65,2.13-2.39,2.84-3.71.91-1.67,1.83-3.34,2.74-5.01,1.91-3.49,3.81-6.97,5.72-10.46l-2.8-.76c.79,6.88,4.07,13.42,9.42,17.89s12.8,6.92,19.99,6.25c.91-.08,1.78-.9,1.45-1.9-1.28-3.86-1.17-7.87.28-11.67l-2.74.36c2.92,4.55,5.89,9.08,8.9,13.57,2.57,3.84,5.24,7.34,9.85,8.75,4.23,1.29,8.84.77,13.1-.09,1.85-.37,3.78-.9,5.23-2.18,1.69-1.5,2.01-3.74,1.48-5.86-.98-3.93-3.98-6.9-6.53-9.87-1.34-1.57-2.63-3.23-3.41-5.16-.91-2.26-1.2-4.74-1.52-7.13-.72-5.44-1.39-10.89-2.01-16.34-.57-5.09-.83-10.28-1.7-15.33-.71-4.12-2.7-7.95-6.65-9.73-3.59-1.62-7.87-1.46-11.13.85-3.5,2.47-5.61,6.37-8.81,9.18s-7.36,4.98-11.58,6.25c-9.63,2.9-19.89,1.53-29.33-1.43-2.42-.76-4.9-1.53-6.96-3.06-1.86-1.38-3.39-3.18-5.05-4.78-3.18-3.06-7.01-5.94-11.49-6.62-3.73-.56-7.95.4-10.57,3.27-3.19,3.5-2.51,8.22-2.96,12.56-.27,2.59-1.1,5.08-1.61,7.62s-.66,5.13-.53,7.73c.27,5.39,1.07,10.79,1.7,16.15.32,2.71.65,5.42.98,8.13.23,1.89,3.24,1.91,3,0-.63-5.09-1.23-10.18-1.8-15.28s-1.46-10.09-.63-15.04c.41-2.4,1.14-4.73,1.57-7.12.39-2.19.42-4.38.53-6.59.1-2.01.35-4.16,1.65-5.79,1.08-1.36,2.69-2.17,4.35-2.56,3.95-.92,7.8.83,10.88,3.2,3.41,2.62,5.95,6.33,9.7,8.51,1.99,1.16,4.25,1.86,6.44,2.55,2.33.73,4.69,1.36,7.07,1.86,4.8,1,9.74,1.51,14.65,1.19,8.22-.54,16.41-3.42,22.55-9.03,2.9-2.66,4.88-6.51,8.24-8.63,2.93-1.86,6.93-1.53,9.62.65,3.34,2.71,3.45,7.58,3.84,11.51.51,5.05,1.06,10.1,1.66,15.15s1.08,9.84,1.91,14.7c.72,4.2,2.54,7.49,5.28,10.69,1.25,1.46,2.58,2.85,3.69,4.41,1.05,1.47,2.24,3.37,2.21,5.24-.03,1.99-2.1,2.62-3.71,3.01-1.96.47-3.98.79-5.99.91-4.09.26-8.26-.4-11.23-3.46-1.59-1.64-2.8-3.62-4.07-5.52-1.39-2.08-2.77-4.17-4.14-6.26s-2.73-4.19-4.08-6.3c-.74-1.15-2.28-.84-2.74.36-1.63,4.25-1.72,8.95-.28,13.26l1.45-1.9c-6.37.59-12.93-1.24-17.87-5.38s-7.84-9.67-8.54-15.77c-.16-1.36-2.01-2.19-2.8-.76-2.94,5.37-5.87,10.75-8.81,16.12-.23.41-.97,1.31-1.01,1.73-.22.17-.12.24.29.23.35.22.47.21.36-.03.08-.18-.19-.79-.24-1.04-.28-1.35-.42-2.73-.44-4.11-.05-2.92.47-5.76,1.45-8.51.57-1.59-2-2.69-2.74-1.16-1.54,3.19-3.5,6.17-5.89,8.79-1.19,1.3-2.47,2.53-3.83,3.65-.92.76-2.88,2.67-4.16,1.86l.3,2.36c3.23-4.07,4.39-9.4,2.9-14.42-.5-1.68-2.81-1.25-2.95.4-.73,9.04-8.58,15.05-15.66,19.48-3.56,2.23-7.84,5.34-12.29,4.89-.42-.04-1.23-.09-1.58-.36-.51-.41-.25-.41.13-1,.61-.97,1.24-1.92,1.85-2.89l4.24-6.59c1.05-1.63-1.55-3.14-2.59-1.51h0Z"/>
      </g>
      <g>
        <path class="cls-1" d="M57.31,40c-2.25-8.21-2.44-17.46,1.94-24.76.38-.63.82-1.27,1.48-1.61,1.44-.74,3.16.26,4.3,1.4,3.3,3.27,4.95,7.81,6.51,12.19.31.88.63,1.79.55,2.72-.16,1.98-2.03,3.38-3.89,4.07s-3.9.96-5.58,2.02c-1.2.76-2.14,1.88-2.93,3.06-.26.38-.52.78-.91,1.02s-.97.24-1.26-.12.02-1.05.47-.95"/>
        <path d="M58.76,39.6c-2.07-7.66-2.51-16.58,1.79-23.61.47-.76.91-1.34,1.87-.99s1.63,1.12,2.26,1.83c1.31,1.48,2.31,3.22,3.15,5,.88,1.87,1.59,3.83,2.27,5.78.31.91.75,1.92.33,2.86-.35.78-1.12,1.32-1.84,1.72-1.99,1.09-4.36,1.22-6.35,2.33-.91.5-1.73,1.2-2.42,1.97-.39.43-.74.9-1.08,1.37-.11.16-.22.32-.34.48-.08.14-.17.27-.29.38-.43.4-.2.87.69,1.41l-1.06.44.25-.03c1.89-.23,1.92-3.23,0-3-2.93.35-2.46,4.53.46,4.21,1.2-.13,1.88-.97,2.54-1.9.86-1.2,1.78-2.28,3.14-2.93,2.44-1.16,5.17-1.27,7.33-3.06,2.28-1.89,2.47-4.38,1.55-7.05s-1.9-5.31-3.21-7.78c-1.24-2.33-2.9-4.84-5.18-6.27-2.39-1.5-4.91-.93-6.44,1.4s-2.45,4.87-3.07,7.45c-1.47,6.18-.86,12.7.78,18.78.5,1.86,3.4,1.07,2.89-.8h0Z"/>
      </g>
      <g>
        <path class="cls-1" d="M128.37,27.12c-.55.82-.13,1.98.6,2.64s1.71.97,2.59,1.42c2.68,1.36,4.53,3.95,6.98,5.69,1.29.92,2.94,1.61,4.44,1.08,1.22-.43,2.06-1.62,2.41-2.86s.31-2.57.26-3.87c-.16-4.04-.32-8.08-.48-12.12-.08-2.06-.17-4.14-.6-6.15-.21-.98-.56-2.02-1.39-2.58-1.56-1.03-3.58.25-4.92,1.55-4.29,4.15-7.8,9.11-10.3,14.54"/>
        <path d="M127.07,26.36c-1.3,2.47.53,4.61,2.71,5.64,2.33,1.11,3.98,2.71,5.87,4.43s4.25,3.56,6.96,3.14c2.46-.38,4-2.59,4.4-4.92.5-2.9.02-6.07-.1-9-.12-3.13-.17-6.28-.41-9.4-.18-2.33-.31-5.59-2.45-7.07s-4.84-.15-6.59,1.43c-4.58,4.11-8.23,9.55-10.81,15.1-.81,1.74,1.78,3.27,2.59,1.51,1.77-3.82,4-7.43,6.72-10.65,1.3-1.54,2.71-3.33,4.4-4.45.58-.38,1.49-.94,2.12-.37s.68,1.81.8,2.54c.39,2.38.37,4.84.46,7.24s.19,4.85.29,7.27c.08,1.98.56,4.51-.28,6.38-.98,2.18-3.1,1.41-4.63.28-1.74-1.29-3.15-2.97-4.87-4.3-.83-.64-1.68-1.15-2.62-1.59-.45-.21-2.39-.91-1.98-1.69.9-1.71-1.69-3.23-2.59-1.51h0Z"/>
      </g>
    </g>
  </g>
</svg>