<?xml version="1.0" encoding="UTF-8"?>
<svg id="Capa_2" data-name="Capa 2" xmlns="http://www.w3.org/2000/svg" viewBox="0 0 491.11 491.11">
  <defs>
    <style>
      .cls-1 {
        fill: #fff;
      }

      .cls-2 {
        fill: #bc84e7;
      }
    </style>
  </defs>
  <g id="Capa_3" data-name="Capa 3">
    <path class="cls-2" d="M491.11,236.47c-.42,135.52-110.69,249.45-246.31,254.47C109.18,495.96-.42,390.16,0,254.64.42,119.12,110.7,5.19,246.31.17c135.62-5.02,245.22,100.78,244.8,236.3Z"/>
    <g>
      <path class="cls-1" d="M119.38,223.69c-16.31,23.55-23.33,54.57-13.86,81.61,9.02,25.76,31.76,44.99,57.02,55.32,25.26,10.33,53,12.81,80.28,13.55,28.54.77,57.51-.28,84.87-8.46,27.36-8.18,53.2-24.12,68.75-48.07,15.55-23.95,19.21-56.46,5.14-81.3-6.78-11.97-17.32-21.98-21.39-35.13-2.17-7.02-2.34-14.48-2.7-21.82-1.16-23.74-4.56-47.37-10.13-70.48-2.63-10.9-8.04-23.76-19.2-24.93-6.57-.69-12.68,3.18-18.01,7.08-8.63,6.32-16.87,13.17-24.67,20.49-6.47,6.09-12.87,12.67-21.1,16.02-6.78,2.76-14.27,3.11-21.58,3.42-27.52,1.16-57.52,1.59-79.5-15.02-8.73-6.6-15.54-15.49-24.36-21.98-8.82-6.48-21.07-10.27-30.67-5.01-9.5,5.21-12.88,17.04-14.63,27.73-5.65,34.61-3.48,70.48,6.3,104.16"/>
      <path d="M118.09,222.93c-9.66,14-16.02,30.34-17.83,47.29-1.76,16.5,1.25,33.25,9.36,47.78,7.63,13.68,19.14,24.94,32.19,33.45,14.71,9.6,31.49,15.54,48.63,19.04,18.77,3.83,38,4.91,57.12,5.29,19.69.38,39.49-.25,58.93-3.6,17.36-2.99,34.35-8.28,49.87-16.69,14.28-7.74,27.21-18.11,37.1-31.04,10.01-13.08,16.32-28.76,17.98-45.16,1.66-16.38-1.69-33.05-10.55-47.01-4.54-7.15-10.06-13.63-14.4-20.91-2.15-3.61-3.97-7.41-5.12-11.46-1.34-4.69-1.8-9.56-2.08-14.42-.57-10.04-1.11-20.04-2.23-30.04s-2.64-19.99-4.55-29.88c-.95-4.92-2-9.82-3.14-14.7-.87-3.7-1.82-7.38-3.19-10.93-2.39-6.17-6.03-12.71-12.18-15.78-7.91-3.94-16.14-.33-22.83,4.35-7.97,5.57-15.53,11.81-22.74,18.32-6.57,5.92-12.63,12.77-20.34,17.26-8.26,4.81-17.78,5.11-27.08,5.49-16.72.68-33.82,1.08-50.22-2.8-8.04-1.9-15.82-4.89-22.79-9.36-7.47-4.79-13.41-11.38-19.79-17.46s-13.04-11.28-21.41-13.7c-7.7-2.22-16.06-1.54-22.46,3.59-5.79,4.64-8.79,11.89-10.58,18.89-2.21,8.66-3.15,17.74-3.88,26.63-1.59,19.41-.76,39,2.38,58.22,1.53,9.35,3.62,18.6,6.25,27.7.54,1.85,3.43,1.06,2.89-.8-5.32-18.38-8.4-37.37-9.14-56.49-.37-9.62-.16-19.27.63-28.86.72-8.66,1.65-17.52,3.84-25.95,1.75-6.72,4.7-13.85,10.66-17.89,6.7-4.55,15.17-3.81,22.35-.82,8.03,3.34,14.28,9.52,20.36,15.54,6.07,6.01,12.24,11.83,19.75,16.02,14.25,7.95,30.8,10.35,46.9,10.84,8.28.26,16.57,0,24.85-.33,9.06-.37,18.35-.76,26.55-5.07,7.66-4.03,13.67-10.49,19.96-16.3,7.06-6.54,14.49-12.69,22.24-18.39,6.24-4.59,14.4-9.98,22.27-5.96,5.89,3.01,9.16,9.56,11.27,15.53,1.29,3.66,2.17,7.43,3.04,11.21,1.12,4.89,2.14,9.79,3.07,14.72,1.82,9.72,3.27,19.51,4.32,29.35,1.04,9.75,1.44,19.5,2.08,29.28.31,4.72.84,9.48,2.16,14.03,1.15,3.95,2.9,7.71,4.95,11.25,4.15,7.16,9.51,13.5,14.03,20.41,4.42,6.75,7.67,14.08,9.49,21.95,3.64,15.72,1.73,32.46-4.16,47.39-5.87,14.88-16.09,27.69-28.37,37.82-12.35,10.19-26.85,17.73-41.98,22.85-17.9,6.05-36.75,8.79-55.56,9.79-19,1.01-38.21.64-57.17-.89-18.62-1.5-37.25-4.67-54.71-11.47-14.51-5.65-28.09-14.1-39.04-25.23-10.91-11.1-18.87-24.89-21.87-40.24-3.19-16.33-.82-33.41,5.17-48.82,2.92-7.51,6.77-14.65,11.34-21.28,1.1-1.59-1.5-3.09-2.59-1.51h0Z"/>
    </g>
    <path d="M45.07,311.14c20.94-8.76,43.71-12.88,66.4-12.02,6.41.24,12.8.89,19.13,1.93,1.89.31,2.7-2.58.8-2.89-22.79-3.76-46.31-2.53-68.58,3.65-6.31,1.75-12.5,3.91-18.55,6.43-.75.31-1.27.99-1.05,1.85.19.71,1.1,1.36,1.85,1.05h0Z"/>
    <path d="M50.91,336.18c5.61-2.2,11.39-3.95,17.18-5.6,5.88-1.68,11.76-3.34,17.67-4.9,11.68-3.09,23.53-5.78,35.59-6.86,6.85-.61,13.74-.68,20.59-.07,1.92.17,1.91-2.83,0-3-24.66-2.2-48.88,4.65-72.36,11.29-6.56,1.86-13.12,3.76-19.47,6.25-1.78.7-1,3.6.8,2.89h0Z"/>
    <path d="M59.73,363.09c23.31-5.94,46.16-13.6,68.33-22.92,6.2-2.61,12.36-5.35,18.45-8.21,1.75-.82.23-3.41-1.51-2.59-21.51,10.1-43.76,18.6-66.53,25.42-6.47,1.94-12.99,3.74-19.54,5.41-1.87.48-1.08,3.37.8,2.89h0Z"/>
    <path d="M82.82,378.7c21.33-4.15,41.98-11.72,60.95-22.32,5.39-3.01,10.63-6.27,15.73-9.75,1.58-1.08.09-3.68-1.51-2.59-17.79,12.17-37.47,21.48-58.18,27.48-5.86,1.7-11.79,3.12-17.77,4.29-1.89.37-1.09,3.26.8,2.89h0Z"/>
    <path d="M363.35,290.97c19.04-1.91,38.25-2.03,57.32-.31,5.46.49,10.91,1.13,16.34,1.92,1.89.28,2.7-2.61.8-2.89-19.16-2.79-38.55-3.81-57.89-2.93-5.53.25-11.05.66-16.56,1.21-1.9.19-1.92,3.19,0,3h0Z"/>
    <path d="M325.75,313.63c30.43-1.4,60.95-.77,91.29,1.92,8.53.76,17.04,1.68,25.54,2.75,1.91.24,1.89-2.76,0-3-30.22-3.82-60.69-5.63-91.15-5.37-8.56.07-17.12.31-25.67.7-1.92.09-1.93,3.09,0,3h0Z"/>
    <path d="M327.64,333.88c29.16.02,58.32,2.2,87.15,6.58,8.09,1.23,16.15,2.63,24.18,4.2,1.89.37,2.69-2.52.8-2.89-28.72-5.6-57.86-9.08-87.1-10.34-8.34-.36-16.68-.54-25.03-.55-1.93,0-1.93,3,0,3h0Z"/>
    <path d="M326.35,334.79c25.16,1.88,49.96,8.6,72.64,19.66,6.41,3.13,12.64,6.6,18.68,10.39,1.64,1.03,3.15-1.57,1.51-2.59-21.77-13.66-46.16-23.14-71.45-27.74-7.07-1.29-14.21-2.19-21.38-2.73-1.93-.14-1.92,2.86,0,3h0Z"/>
    <g>
      <path d="M244.7,299.69c-5.87-.88-12.01.14-17.28,2.87-1.36.7-2.81,1.76-2.87,3.29-.04,1.1.66,2.06,1.34,2.93,2.43,3.12,4.86,6.24,7.3,9.35.92,1.17,1.94,2.41,3.36,2.85,1.93.59,3.94-.44,5.69-1.44,3.63-2.07,7.41-4.3,9.58-7.87,2.17-3.58,2.01-8.93-1.46-11.27-1.47-.99-3.31-1.31-5.09-1.27"/>
      <path d="M245.09,298.25c-6.17-.88-12.45.02-18.05,2.82-2.44,1.22-4.78,3.37-3.72,6.36.48,1.36,1.53,2.46,2.4,3.58,1.11,1.43,2.23,2.86,3.34,4.29s2.17,2.8,3.28,4.18c.86,1.07,1.82,2.09,3.09,2.66,2.87,1.31,5.76-.28,8.24-1.71,4.53-2.61,9.59-5.93,10.78-11.4.55-2.53.35-5.39-1.07-7.62-1.78-2.79-4.93-3.81-8.11-3.79-1.93,0-1.93,3.01,0,3,2.08,0,4.3.45,5.52,2.31.91,1.4,1.11,3.2.86,4.83-.65,4.24-4.36,7-7.79,9.08-1.75,1.07-4.14,2.95-6.29,2.8s-3.68-3.02-4.86-4.52c-1.68-2.14-3.35-4.28-5.02-6.43-.57-.73-1.85-1.95-1.62-2.98.2-.9,1.36-1.47,2.09-1.85,4.87-2.57,10.68-3.49,16.13-2.72.81.11,1.6-.2,1.85-1.05.2-.7-.25-1.73-1.05-1.85h0Z"/>
    </g>
    <path d="M213.57,332.3c4.1,5.12,11.24,3.9,16.66,2.07,2.88-.97,5.92-1.92,8.21-4.01,2.12-1.92,3.27-4.81,2.58-7.63-.47-1.92-3.17-1.06-2.89.8.7,4.74,3.6,9.09,7.73,11.53,4.55,2.7,10.13,2.82,14.92.75,1.77-.76.24-3.35-1.51-2.59-3.92,1.69-8.61,1.33-12.22-.94-3.34-2.11-5.46-5.67-6.03-9.54l-2.89.8c1.24,5.11-6.09,7.11-9.58,8.24-4.23,1.37-9.68,2.38-12.86-1.59-1.21-1.51-3.32.63-2.12,2.12h0Z"/>
    <g>
      <path d="M227.42,271.21c6.9-1.54,14.09-1.76,21.06-.63,3.57-11.72,17.09-17.03,29.18-18.99,15.07-2.44,30.57-2.16,45.54.83,7.29,1.45,15.9,5.23,16.29,12.65.17,3.15-1.3,6.12-2.73,8.93-4.46,8.78-9.31,17.98-17.66,23.19-12.18,7.6-28.03,4.5-41.61-.16-10.46-3.59-20.66-7.96-30.47-13.06-2.93-1.52-5.9-3.14-9.16-3.68-6.88-1.15-13.64,2.67-18.92,7.23-5.29,4.56-9.89,10.05-16.01,13.4-10.63,5.81-24.11,4.01-34.85-1.6-10.73-5.61-19.3-14.53-27.66-23.3-1.4-1.47-2.86-3.04-3.28-5.03-.47-2.24.48-4.52,1.6-6.51,4.99-8.81,13.8-15.1,23.44-18.17,9.64-3.07,20.06-3.11,30.04-1.38,9.37,1.62,19.04,5.18,24.72,12.81,3.59,4.83,5.59,11.23,10.84,14.17"/>
      <path d="M227.82,272.66c6.65-1.46,13.54-1.69,20.26-.63.82.13,1.58-.2,1.85-1.05,3.88-12.37,18.64-16.57,30.04-18.23,8.61-1.26,17.36-1.58,26.04-1.05,4.44.27,8.86.77,13.24,1.52,3.34.57,6.67,1.22,9.83,2.47,2.62,1.03,5.29,2.53,7.07,4.76,2.09,2.6,2.2,5.74,1.13,8.81-1.23,3.51-3.24,6.88-5.04,10.14s-3.57,6.2-5.78,9c-4.49,5.68-10.34,9.7-17.49,11.18s-14.73.51-21.78-1.22c-7.81-1.92-15.41-4.81-22.82-7.9-4.04-1.68-8.02-3.5-11.95-5.43-3.68-1.81-7.26-4-11.14-5.38-7.52-2.68-15.11.35-21.14,4.97s-10.7,10.75-17.25,14.59c-13.44,7.87-30.02,2.48-41.73-5.96-6.34-4.57-11.89-10.16-17.29-15.78-2.49-2.59-6.25-5.4-5.09-9.42.96-3.32,3.44-6.47,5.75-8.98,10.62-11.58,26.86-14.93,41.98-13.41,7.17.72,14.58,2.31,20.91,5.88,2.99,1.68,5.71,3.83,7.86,6.52s3.49,5.61,5.25,8.4,3.71,5.15,6.48,6.77c1.67.97,3.18-1.62,1.51-2.59-2.99-1.74-4.83-4.65-6.54-7.57s-3.51-6.13-5.97-8.71c-5.09-5.32-12.17-8.31-19.22-10-15.7-3.76-33.65-2.91-47.28,6.48-3,2.07-5.76,4.48-8.11,7.27s-4.89,6.16-5.66,9.78c-.92,4.32,1.74,7.25,4.51,10.16s5.71,5.95,8.7,8.8c11.42,10.9,25.93,20.57,42.47,19.02,3.82-.36,7.53-1.32,11-2.98s6.67-4.21,9.58-6.85c5.85-5.31,11.39-11.8,19.34-13.89,4.18-1.1,8.08-.25,11.9,1.6s7.91,4.06,11.95,5.94c7.99,3.71,16.22,7.04,24.62,9.72,14.41,4.59,31.59,6.86,43.96-3.79,5.7-4.9,9.52-11.6,12.94-18.19,1.85-3.57,4.12-7.32,4.29-11.43.13-3.13-1.19-6.08-3.33-8.32-4.81-5.01-12.26-6.47-18.81-7.52-9.02-1.44-18.18-1.97-27.3-1.5-7.86.4-15.92,1.29-23.45,3.67-6.11,1.93-12.26,4.93-16.54,9.84-2.06,2.36-3.6,5.07-4.53,8.06l1.85-1.05c-7.29-1.15-14.65-.95-21.86.63-1.88.41-1.09,3.31.8,2.89h0Z"/>
    </g>
    <path class="cls-1" d="M160.94,262.33c7.42,5.8,14.85,11.59,22.27,17.39,3.65,2.85,7.29,5.69,10.94,8.54,2.99,2.33,6.8,5.3,10.81,3.67,1.76-.72.99-3.62-.8-2.89-3.69,1.5-7.6-2.67-10.23-4.73-3.39-2.64-6.77-5.29-10.16-7.93-6.9-5.39-13.8-10.78-20.71-16.17-1.5-1.17-3.64.93-2.12,2.12h0Z"/>
    <path class="cls-1" d="M272.69,264.11c7.06,3.95,14.19,7.93,20.45,13.11,5.72,4.74,10.93,10.24,17.63,13.63,1.72.87,3.24-1.72,1.51-2.59-6.74-3.41-11.88-8.99-17.68-13.69-6.3-5.1-13.35-9.1-20.4-13.04-1.69-.94-3.2,1.65-1.51,2.59h0Z"/>
    <g>
      <path d="M119.6,220.67c-5.29,8.24-10.59,16.49-15.88,24.73-.56.88-1.15,1.81-1.18,2.86-.08,2.26,2.33,3.75,4.5,4.38,10.85,3.14,22.03-2.87,31.66-8.76,10.64-6.51,21.31-13.26,30-22.22,8.69-8.96,15.32-20.46,16.17-32.91,3.42,10.94.98,23.53-6.29,32.4,3.19,2.41,7.72.25,10.94-2.11,12.31-9.05,22.34-21.19,28.91-34.98-4.2,11.36-4.91,23.98-2.03,35.75.24.98.58,2.07,1.47,2.56,1.76.99,3.63-1.08,4.6-2.85,7.94-14.52,15.88-29.05,23.81-43.57,1.76,16.53,10.29,32.23,23.2,42.71s30.03,15.59,46.56,13.92c-3.48-10.03-3.22-21.3.7-31.16,7.63,11.89,15.38,23.7,23.26,35.42,3.35,4.99,6.82,10.05,11.59,13.7,11.42,8.72,27.43,7.45,41.51,4.53,5.19-1.08,11.07-2.92,13.05-7.84,1.08-2.68.69-5.73-.15-8.5-4.11-13.44-17.79-21.78-23.71-34.52-2.75-5.93-3.68-12.52-4.55-19-3.15-23.55-5.89-47.15-8.23-70.79-.8-8.14-1.7-16.69-6.36-23.42-6.6-9.54-20.67-12.95-30.91-7.5-7.62,4.05-12.4,11.78-18.14,18.21-13.84,15.51-34.37,24.09-55.06,26.12-20.69,2.03-41.59-2.03-61.3-8.66-3.86-1.3-7.72-2.71-11.21-4.82-5.41-3.26-9.7-8.03-14.17-12.49-7.48-7.47-16.08-14.47-26.37-16.9-10.3-2.43-22.59.92-27.78,10.14-4.23,7.51-2.96,16.75-3.84,25.33-.85,8.31-3.81,16.27-4.92,24.55-1.18,8.77-.26,17.68.69,26.48,1.74,16.03,3.6,32.05,5.59,48.06"/>
      <path d="M118.3,219.91c-3.14,4.89-6.28,9.78-9.42,14.67l-4.58,7.13c-1.22,1.9-3.24,4.16-3.27,6.55-.07,4.84,6.09,6.24,9.81,6.62,4.86.5,9.8-.58,14.33-2.32,4.88-1.87,9.44-4.44,13.9-7.16s8.62-5.3,12.81-8.13c8.27-5.59,16.22-11.9,22.45-19.76,6.57-8.3,11.25-18.1,12.02-28.75l-2.95.4c3.21,10.49,1.02,22.39-5.9,30.94-.64.79-.55,1.76.3,2.36,3.24,2.27,7.32,1.04,10.45-.8,3.31-1.94,6.34-4.6,9.19-7.15,5.89-5.27,11.1-11.3,15.51-17.86,2.54-3.77,4.78-7.73,6.75-11.83l-2.74-1.16c-2.2,6.03-3.46,12.39-3.76,18.8-.15,3.25-.04,6.51.32,9.75.33,2.95.67,6.18,1.69,8.99.93,2.53,3.46,3.75,5.83,2.18s3.7-4.96,5.07-7.46c3.33-6.1,6.67-12.2,10-18.3,3.81-6.97,7.62-13.94,11.43-20.91l-2.8-.76c1.43,13.04,6.76,25.41,15.19,35.45,8.57,10.2,20.33,17.46,33.21,20.82,7.44,1.94,15.21,2.59,22.86,1.84.9-.09,1.79-.9,1.45-1.9-3.37-9.88-3.11-20.65.7-30.36l-2.74.36c7.18,11.2,14.48,22.33,21.89,33.38,3.22,4.81,6.4,9.79,10.6,13.82,3.85,3.69,8.55,6.29,13.68,7.74,10.23,2.9,21.25,1.58,31.5-.52,4.4-.9,9.35-2.2,12.45-5.68,3.79-4.24,3.01-10.06,1.03-14.96-3.72-9.18-11.25-15.89-17.29-23.5-3.29-4.15-5.96-8.65-7.5-13.75-1.79-5.97-2.42-12.25-3.23-18.4-1.74-13.25-3.35-26.52-4.83-39.8-.73-6.56-1.43-13.12-2.1-19.69-.6-5.87-.98-11.81-2.13-17.61-1.06-5.36-2.98-10.65-6.54-14.87-2.91-3.45-6.86-5.96-11.1-7.44s-8.93-1.87-13.4-1.1c-4.87.84-9.17,3.3-12.84,6.54-3.99,3.53-7.16,7.85-10.56,11.92s-7.16,7.81-11.36,11.06c-8.54,6.61-18.53,11.26-28.93,14.09-23.79,6.48-48.97,3.02-72.16-4.24-5.78-1.81-11.73-3.64-16.8-7.05-4.89-3.3-8.83-7.79-13-11.91-7.63-7.53-16.67-14.79-27.45-16.92-8.93-1.76-19.32.34-25.67,7.22-8.01,8.68-5.55,20.93-7.05,31.62-.89,6.33-2.84,12.44-4.04,18.71-1.23,6.39-1.42,12.84-1.02,19.33s1.25,13.32,1.99,19.96c.75,6.69,1.51,13.38,2.3,20.07s1.54,12.88,2.34,19.31c.23,1.89,3.24,1.91,3,0-1.62-13.03-3.16-26.08-4.61-39.13-1.41-12.62-3.55-25.64-1.2-38.27,1.14-6.12,3.02-12.09,3.99-18.24.9-5.69.68-11.42,1.17-17.14.43-5.08,1.71-10.25,5.26-14.09,2.97-3.22,6.98-5.24,11.21-6.23,10.05-2.36,19.87,1.6,27.94,7.48,4.4,3.21,8.32,7,12.13,10.87s7.85,7.99,12.65,10.88c5.07,3.06,10.9,4.82,16.52,6.57,6.03,1.87,12.15,3.48,18.34,4.73,11.99,2.42,24.31,3.53,36.52,2.55,20.82-1.67,41.74-9.69,56.38-24.96,6.76-7.05,12.09-17.19,21.71-20.76,8.18-3.04,18.04-.92,24.25,5.21,7.9,7.79,7.99,20.31,9.03,30.61,1.31,12.89,2.73,25.76,4.28,38.62.77,6.39,1.57,12.77,2.4,19.15s1.41,12.35,2.75,18.4c1.18,5.33,3.21,10.33,6.29,14.85,2.69,3.95,5.89,7.51,9.03,11.1s6.18,7.14,8.54,11.23,5.08,10.08,2.54,14.57c-2.2,3.89-7.27,5.17-11.31,6.03-5.05,1.08-10.18,1.88-15.34,2.13-10.28.49-20.74-1.49-28.24-9.03-4.13-4.15-7.25-9.21-10.49-14.05-3.61-5.39-7.19-10.8-10.75-16.23-3.42-5.22-6.81-10.46-10.18-15.71-.74-1.16-2.28-.83-2.74.36-3.98,10.16-4.22,21.63-.7,31.96l1.45-1.9c-12.9,1.26-26.04-1.52-37.31-7.92s-19.71-15.81-25.18-27.16c-3.03-6.29-5.01-13.11-5.77-20.05-.15-1.37-2.02-2.18-2.8-.76-6.03,11.04-12.07,22.08-18.1,33.11-1.51,2.76-3.02,5.52-4.52,8.28-.42.78-3.14,6.37-4.23,3.82-.48-1.12-.64-2.46-.88-3.65-.3-1.5-.54-3.01-.71-4.54-.32-2.86-.44-5.74-.36-8.61.18-6.54,1.45-12.99,3.69-19.14.58-1.58-2.01-2.69-2.74-1.16-6.31,13.18-15.71,24.88-27.38,33.7-2.72,2.06-7.02,5.23-10.41,2.85l.3,2.36c7.6-9.39,10.22-22.28,6.67-33.86-.51-1.66-2.82-1.27-2.95.4-1.33,18.2-14.52,32.63-28.6,42.86-3.85,2.8-7.85,5.4-11.88,7.92-4.04,2.53-8.09,5.08-12.32,7.29s-8.49,4-13.1,4.81c-2.24.39-4.56.49-6.82.22-1.93-.23-4.25-.64-5.76-1.97-1.98-1.74.44-4.2,1.48-5.83l4.85-7.54c3.23-5.03,6.46-10.06,9.69-15.09,1.05-1.63-1.55-3.14-2.59-1.51h0Z"/>
    </g>
    <g>
      <path class="cls-1" d="M132.4,177.19c-5.63-20.52-6.1-43.66,4.86-61.9.95-1.58,2.05-3.18,3.69-4.03,3.59-1.85,7.89.65,10.76,3.5,8.25,8.18,12.38,19.52,16.26,30.47.78,2.2,1.57,4.48,1.38,6.8-.41,4.95-5.08,8.45-9.74,10.18-4.65,1.73-9.76,2.41-13.95,5.06-3.01,1.9-5.34,4.7-7.34,7.65-.65.95-1.3,1.96-2.28,2.55s-2.43.6-3.15-.3.04-2.61,1.17-2.39"/>
      <path d="M133.84,176.79c-2.89-10.61-4.4-21.65-3.66-32.65.36-5.34,1.28-10.63,2.87-15.74.81-2.61,1.79-5.17,2.97-7.64,1.11-2.32,2.3-4.92,4.02-6.85,4.16-4.69,9.98.97,12.83,4.3,3.46,4.03,6.08,8.73,8.27,13.55s4.14,10.06,5.84,15.2c.89,2.68,1.38,5.42-.1,7.98-1.19,2.05-3.12,3.56-5.17,4.68-5.35,2.93-11.8,3.11-16.98,6.48-2.53,1.64-4.58,3.84-6.39,6.23-.85,1.13-1.56,2.56-2.61,3.51-.45.4-.84.56-1.43.53-.37-.02-.07-.06-.24-.08,1.93.15,1.92-2.85,0-3-2.7-.21-3.84,3.45-2.02,5.17,2.32,2.2,5.41.24,6.92-1.83,1.79-2.45,3.43-4.89,5.78-6.85,2.53-2.11,5.62-3.21,8.74-4.12,5.57-1.64,11.54-3.14,15.21-8.04,1.82-2.42,2.49-5.31,2-8.3-.53-3.26-1.96-6.45-3.09-9.53-2.13-5.77-4.47-11.52-7.65-16.81-2.97-4.93-6.97-10.59-12.41-12.96-2.74-1.19-5.86-1.28-8.33.58s-3.9,4.89-5.24,7.54c-2.76,5.48-4.66,11.38-5.74,17.42-2.5,13.97-.99,28.42,2.72,42.03.51,1.86,3.4,1.07,2.89-.8h0Z"/>
    </g>
    <g>
      <path class="cls-1" d="M310.04,144.99c-1.38,2.04-.33,4.96,1.5,6.61s4.26,2.43,6.46,3.55c6.71,3.4,11.31,9.86,17.45,14.23,3.23,2.3,7.36,4.03,11.1,2.71,3.06-1.08,5.15-4.04,6.04-7.16.89-3.12.77-6.42.64-9.67-.4-10.1-.81-20.2-1.21-30.3-.21-5.15-.41-10.34-1.49-15.39-.52-2.45-1.39-5.06-3.48-6.44-3.89-2.57-8.95.63-12.31,3.88-10.73,10.38-19.51,22.78-25.74,36.35"/>
      <path d="M308.74,144.23c-1.43,2.36-.84,5.24.77,7.35,1.84,2.41,4.74,3.4,7.37,4.68,5.38,2.64,9.34,7.21,13.74,11.13,4.2,3.74,9.95,8.02,15.94,6.26s8.05-8.21,8.23-13.75c.12-3.53-.17-7.08-.31-10.61s-.29-7.29-.44-10.93c-.29-7.2-.36-14.45-1-21.63-.28-3.22-.62-6.59-1.63-9.68-.83-2.55-2.34-4.9-4.94-5.9-5.6-2.16-11.05,2.97-14.63,6.59-9.99,10.09-18.19,21.94-24.14,34.83-.8,1.74,1.78,3.27,2.59,1.51,4.76-10.32,10.94-19.97,18.4-28.54,1.84-2.11,3.75-4.16,5.73-6.14,1.86-1.86,3.77-3.67,6.15-4.85,2.12-1.05,4.74-1.4,6.48.52s2.04,4.67,2.43,7c1.06,6.35,1.03,12.89,1.29,19.31s.52,12.92.77,19.37c.22,5.47,1.37,12.19-1.92,16.99-1.44,2.1-3.65,3.37-6.23,3.25s-5.21-1.53-7.35-3.07c-4.82-3.46-8.61-8.14-13.38-11.67-2.45-1.81-5.14-2.9-7.82-4.29-2.09-1.09-5.13-3.59-3.51-6.25,1.01-1.65-1.59-3.16-2.59-1.51h0Z"/>
    </g>
  </g>
</svg>