<?xml version="1.0" encoding="UTF-8"?>
<svg id="Capa_2" data-name="Capa 2" xmlns="http://www.w3.org/2000/svg" viewBox="0 0 120.64 123.32">
  <defs>
    <style>
      .cls-1 {
        fill: #fff;
        stroke: #fff;
        stroke-miterlimit: 10;
      }

      .cls-2 {
        fill: #bc84e7;
      }
    </style>
  </defs>
  <g id="Capa_3" data-name="Capa 3">
    <g>
      <ellipse class="cls-2" cx="60.32" cy="61.66" rx="60.32" ry="61.66"/>
      <g>
        <path class="cls-1" d="M76.32,87.61s-17.42-49.29-18.07-51.36c-.65-2.06-.9-1.55-.9-1.55,0,0-10.52.06-12.58-.06-2.06-.13-1.16,2.97-1.16,2.97l-17.1,49.87,9.82.18c.57.01,1.08-.35,1.26-.89l3.77-11.48,18.78.13s3.35,9.68,3.94,11.36c.58,1.68.9,1.1.9,1.1,0,0,6.71.06,9.29,0,2.58-.06,2.06-.26,2.06-.26ZM44.32,64.9l6.39-20.97,6.32,21.1-12.71-.13Z"/>
        <rect class="cls-1" x="82.65" y="49.58" width="10.56" height="38.49" rx="2.62" ry="2.62"/>
        <ellipse class="cls-1" cx="88.11" cy="39.72" rx="6.02" ry="6.11"/>
      </g>
    </g>
  </g>
</svg>