<?xml version="1.0" encoding="UTF-8"?>
<svg id="Capa_2" data-name="Capa 2" xmlns="http://www.w3.org/2000/svg" viewBox="0 0 390.68 257.8">
  <g id="Capa_3" data-name="Capa 3">
    <g>
      <path d="M201.85,121.61c15.68-7.97,31.92-14.78,48.59-20.38,1.16-.39,1.36-1.61.66-2.51-8.71-11.28-10.65-27.03-5.98-40.36,1.33-3.81,3.26-7.38,5.66-10.62.36-.48.24-1.44-.23-1.82-3.14-2.53-5.78-5.58-7.77-9.1s-3.96-8.22-3.33-12.42c1.05-7,7.91-11.77,14.45-12.93,3.17-.56,6.48-.3,9.51.79,3.51,1.27,6.17,3.96,9.21,6.02,3.73,2.52,7.8,3.2,12.23,2.61s9.05-1.94,13.72-2.24,9.31.03,13.86,1c2.27.49,4.43,1.23,6.65,1.88s3.83.14,5.62-1.13c5.93-4.24,14.01-5.53,20.8-2.59,6.28,2.72,10.17,9.01,10.22,15.81.02,3.23-.86,6.47-2.77,9.1-1.21,1.66-2.82,2.99-4.06,4.64s-2.02,3.44-2.49,5.36c-2.07,8.46,2.11,16.81,1.59,25.31-.46,7.5-3.67,14.86-8.81,20.34-1.3,1.39-2.72,2.66-4.25,3.79s-.04,3.74,1.51,2.59c6.53-4.81,11.26-11.75,13.38-19.58,1.04-3.85,1.45-7.91,1.1-11.89-.43-4.9-1.95-9.67-2.1-14.59-.06-2.14.13-4.27.79-6.31s1.98-3.71,3.48-5.29c2.63-2.77,4.57-5.83,5.27-9.63,1.27-6.93-1.15-14.67-6.62-19.25-5.98-5.01-14.5-6.13-21.82-3.78-1.87.6-3.69,1.42-5.36,2.45-.81.51-1.55,1.13-2.38,1.62-1.21.7-2.38.12-3.6-.28-4.59-1.51-9.4-2.37-14.23-2.6s-9.81.3-14.64,1.33-9.51,2.16-13.89-.21c-3.6-1.95-6.4-5.12-10.18-6.78-3.19-1.4-6.7-1.97-10.17-1.67-7.09.6-13.98,4.46-17.34,10.88-4.25,8.15.29,17.96,5.72,24.42,1.38,1.64,2.92,3.13,4.58,4.47l-.23-1.82c-9.07,12.27-10.94,29.28-5.5,43.44,1.55,4.03,3.65,7.76,6.29,11.17l.66-2.51c-16.91,5.68-33.4,12.6-49.3,20.69-1.72.88-.2,3.46,1.51,2.59h0Z"/>
      <path d="M255.15,136.63c7.64,3.45,16.65,2.31,23.52-2.4,3.19-2.19,5.89-5,8.06-8.2s4.24-6.98,4.4-10.83c.18-4.52-3.24-6.74-6.88-8.47-3.88-1.85-7.9-3.54-12.2-4.06-3.7-.45-8.61.14-11.2,3.16s.02,7.27,2.56,9.54c5.39,4.81,13.29,5.53,20.09,6.78,8.57,1.58,17.56,3.33,26.21,1.24,3.81-.92,8.13-2.57,10.43-5.94s1.53-7.67-1.89-9.91-7.95-3.04-11.94-2.95c-4.02.09-8.22,1.15-11.61,3.36-3.04,1.99-5.59,5-5.94,8.73-.4,4.26,2.45,8.26,4.83,11.52,4.97,6.78,11.87,12.48,20.43,13.66,2.13.29,4.2.26,6.33-.04,1.9-.27,1.09-3.16-.8-2.89-7.22,1.01-14.22-2.51-19.25-7.46-2.5-2.46-4.63-5.28-6.46-8.27s-2.99-6.2-.98-9.38c3.57-5.63,12.03-7.07,18.09-5.84,2.67.54,7.6,1.73,7.55,5.21s-3.85,5.41-6.69,6.44c-6.98,2.53-14.59,1.83-21.76.65-3.6-.59-7.19-1.27-10.78-1.93-2.88-.52-5.76-1.12-8.51-2.13-2.51-.93-5-2.32-6.66-4.47-.85-1.11-2.06-2.83-.89-4.07,1.11-1.17,2.99-1.72,4.54-1.99,3.48-.59,7.09.4,10.33,1.62,1.72.64,3.38,1.4,5.03,2.2,1.43.69,3.08,1.38,4.11,2.64,2.15,2.63.13,6.68-1.2,9.22-1.5,2.86-3.42,5.48-5.76,7.72-4.92,4.71-11.77,7.38-18.6,6.4-1.72-.25-3.43-.73-5.02-1.45-1.75-.79-3.27,1.8-1.51,2.59h0Z"/>
      <path d="M279.36,85.71c1.84,4.5,7.28,6.68,11.79,4.82,4.82-1.99,6.93-7.71,5.78-12.57-.32-1.37-2.65-1.49-2.89,0-.62,3.83-2.34,8.4.95,11.56,1.35,1.3,3.23,1.66,5.01,1.18s3.37-1.76,5.24-2.18c1.65-.37,1.29-3-.4-2.95-.51.02-1.01.03-1.52.05-1.93.06-1.93,3.06,0,3,.51-.02,1.01-.03,1.52-.05l-.4-2.95c-1.43.32-2.68,1.05-3.98,1.68-1.07.51-2.35.99-3.35.09-2.33-2.1-.58-6.13-.18-8.65h-2.89c.79,3.32-.55,7.42-3.81,8.92-2.74,1.26-6.77.16-7.97-2.77-.72-1.76-3.62-.99-2.89.8h0Z"/>
      <path d="M296.88,70.5c-1.62-.4-3.33-.61-5-.5-1.52.1-3.18.73-3.55,2.4s.78,3.09,2.02,4.04c.66.51,1.36.99,2.05,1.47.63.45,1.25.94,1.93,1.31s1.51.67,2.33.61c.91-.06,1.71-.49,2.34-1.15,1.01-1.06,2.05-2.46,2.36-3.92.35-1.68-.27-3.35-1.76-4.25-1.34-.81-2.99-.79-4.45-.35-1.62.49-3.97,1.37-4.05,3.39-.04,1.13.78,1.88,1.71,2.33.86.41,1.73.83,2.6,1.24s1.96.11,2.2-.9c.21-.88.42-1.75.64-2.63.24-1-.46-1.83-1.45-1.9-.76-.05-1.45.26-2,.77-.6.55-.56,1.57,0,2.12.6.6,1.52.55,2.12,0-.1.09-.43.09-.12.11l-1.45-1.9c-.21.88-.42,1.75-.64,2.63l2.2-.9c-.52-.25-1.04-.5-1.56-.74-.29-.14-.58-.28-.87-.41-.12-.06-.23-.11-.35-.17-.09-.04-.18-.09-.27-.14l.06.06c-.04.07.17.39.15.56,0,.03-.09.35-.13.31,0,0,.22-.21.2-.2-.16.15.01,0,.05-.03.46-.26.79-.4,1.32-.58.44-.16,1-.32,1.33-.34.13,0,.25-.01.38,0,.08,0,.37.04.07,0,.22.04.44.09.65.18-.35-.14.44.31.14.08.09.07.36.41.21.18-.01-.02.18.35.12.19s.07.28.06.25c-.01-.07-.02-.25-.01.04,0,.4.08-.2-.01.2-.12.52-.18.63-.46,1.11s-.52.79-.82,1.15c-.16.19-.32.38-.51.54.22-.19-.35.16-.1.06-.35.15.07.02-.13.01-.24-.01.28.12-.13-.02-.1-.03-.2-.06-.3-.1.18.07-.24-.13-.23-.13-1.02-.56-1.94-1.33-2.89-2-.23-.16-.46-.32-.69-.49-.22-.16.25.23-.1-.08-.07-.07-.15-.13-.22-.2-.09-.09-.18-.17-.27-.27-.04-.04-.24-.29-.1-.09-.06-.08-.11-.16-.16-.24-.01-.02-.24-.42-.07-.13-.15-.26.04-.05-.02.02,0-.17,0-.17-.02.03l.04-.12s-.21.29-.08.17c.08-.07.06-.06-.06.03.07-.05.14-.09.22-.13-.07.03-.26.08,0,.01.13-.03.26-.06.39-.09-.27.06-.07,0,0,0,.15,0,.3-.02.45-.02,1.37-.05,2.58.09,3.88.41.76.19,1.66-.24,1.85-1.05s-.23-1.65-1.05-1.85h0Z"/>
      <path d="M298.48,73.23l-1.36.68c-.17.09-.32.22-.42.39-.13.14-.22.31-.27.51-.06.2-.07.4-.03.6,0,.2.07.39.18.56l.23.3c.19.19.41.31.66.39l.4.05c.27,0,.52-.07.76-.2l1.36-.68c.17-.09.32-.22.42-.39.13-.14.22-.31.27-.51.06-.2.07-.4.03-.6,0-.2-.07-.39-.18-.56l-.23-.3c-.19-.19-.41-.31-.66-.39l-.4-.05c-.27,0-.52.07-.76.2h0Z"/>
      <path d="M319.78,57.57c-1.14-.81-2.67-.68-3.85-.05-1.3.7-2.08,2-2.22,3.45s.44,2.87,1.29,3.98c.99,1.29,2.34,2.47,4.08,2.23,1.52-.2,2.75-1.6,3.03-3.07s-.07-2.94-1.03-4.08-2.4-1.51-3.79-1.2c-1.29.29-2.49,1.33-2.82,2.63-.36,1.45.34,2.87,1.58,3.65s3.2.78,4.05-.54c.26-.41.29-1.1.35-1.56s.03-.89-.05-1.34c-.15-.85-.7-1.63-1.43-2.09-.81-.5-1.8-.52-2.64-.08-.67.35-1.18,1.03-1.56,1.67-.36.6-.63,1.32-.61,2.02.03,1.04.68,1.89,1.66,2.22,1.56.53,3.35-.36,4.27-1.61s.73-3.04-.25-4.24-2.74-1.43-4.01-.63c-2.21,1.39-2.76,4.77-1.89,7.08.54,1.45,1.64,2.57,3.23,2.73,1.26.13,2.61-.52,3.28-1.59.4-.64.47-1.39.32-2.11-.16-.77-1.11-1.29-1.85-1.05-.81.26-1.22,1.02-1.05,1.85.07.32,0-.36-.02-.05,0-.02.08-.39.02-.16-.08.29.19-.31.03-.06-.09.14-.06,0,.1-.1-.05.03-.1.11-.14.15-.17.19-.08-.06.07-.05-.03,0-.16.09-.19.11-.3.19.25-.05-.02,0-.06.01-.12.03-.18.05-.3.1.35,0,.04,0-.06,0-.12,0-.18,0-.05,0-.35,0-.07,0,.25,0,0-.02-.06-.03-.27-.06.16.15.07.03-.04-.04-.16-.1-.21-.13.29.18.04.01-.03-.05l-.07-.08c-.11-.13-.1-.11.03.05-.03-.01-.11-.17-.12-.18-.05-.08-.08-.16-.13-.24-.11-.19.1.34,0,0-.05-.18-.11-.36-.15-.55,0-.04-.05-.18-.04-.23.02.21.03.23,0,.05,0-.08-.01-.15-.02-.23-.02-.34,0-.68.01-1.03.02-.36-.07.34,0-.02.02-.07.03-.14.04-.21.05-.22.12-.42.19-.63.11-.33-.12.17,0,0,.05-.07.08-.16.12-.24.03-.06.07-.12.11-.18l.06-.09c.09-.13.08-.12-.05.05,0-.06.35-.35.35-.35.02.02-.33.2-.07.07.05-.03.11-.06.16-.09-.2.08-.25.1-.14.06.03,0,.21-.04.22-.06-.06.08-.33.03-.11.03h.1c-.23-.04-.26-.04-.1,0,.18.17,0-.1-.07-.05l.09.05c.14.09.12.07-.05-.06.02,0,.14.13.15.14.24.2-.12-.26.02.02l.05.09c.07.15.07.12-.02-.08.03.01.05.16.06.2.12.3.02-.31,0,.01,0-.02,0,.21,0,.21l.03-.19c-.01.07-.03.14-.05.2-.02.12-.12.17.02-.04-.06.09-.11.2-.18.29.04-.06.2-.2.01-.04-.12.1-.25.19-.05.06-.1.06-.2.12-.3.18-.08.05-.23.06.04-.01-.11.03-.23.06-.33.1-.12.04-.17.11.06,0-.08.04-.21,0-.3,0-.16.02.13.04.19.08.14.09.18.23.26.36.04.13.05.13,0,0,.02.24.03.28.03.11,0,.05-.09.35-.01.09.01-.04.15-.45.06-.24-.09.22.06-.11.07-.12.05-.1.11-.19.17-.28.06-.1.13-.19.2-.29-.15.21,0,.01.08-.08.19-.23.03,0-.03,0,.15-.08.13-.09-.04,0,.17-.04.15-.04-.06,0-.06,0-.32-.09-.08,0-.19-.08-.21-.09-.06,0l-.12-.1c.09.09.2.32.07.05.04.09.14.38.04.06.12.41.02-.15.04.1,0,.17,0,.34,0,.51-.02.3-.01.11,0,.04-.03.19-.07.39-.11.58l.39-.66.15-.12c-.05.03-.1.06-.16.09.03-.07.3-.12.11-.06-.29.09.35.02.05,0-.01,0-.16-.02-.18,0,.17-.08.31.06.04-.02,0,0-.16-.07-.18-.06.13-.05.28.14.02-.01l-.08-.05c-.13-.09-.1-.07.08.06,0,0-.15-.15-.17-.16-.22-.2.08-.02.03.05,0,0-.1-.18-.12-.2-.11-.12.08.34.03.06-.01-.07-.12-.29-.02-.07.15.32-.05-.13.02-.08.05.03-.07.36,0,.06.09-.35-.14.18.01-.04,0,.01.1-.16.1-.16.02.01-.24.26.01,0,.02-.02.14-.14.14-.13,0,0-.28.19.02,0,.06-.03.12-.06.17-.1.28-.17-.31.07,0,0,.06-.02.13-.04.19-.06.06-.02.13-.03.2-.04-.22.03-.27.03-.15.03.07.01.18,0,.25,0,.31-.01-.22-.09-.06-.01.07.03.17.04.24.06.28.07-.14-.13-.03-.01.05.05.17.1.23.14.26.16-.06-.04-.05-.04.04,0,.19.19.22.22.23.23-.14-.25.02.03.05.09.11.19.16.28.06.1.14.13-.02-.07.1.12.11.37.15.52.1.34,0-.33,0,.03,0,.07,0,.14,0,.22,0,.04.02.29-.01.32l.03-.18c-.01.07-.03.14-.04.21-.02.09-.06.17-.08.26-.05.21.17-.3,0,.01-.04.06-.08.14-.11.2-.15.32.2-.18-.04.07-.05.05-.11.11-.16.16-.25.28.18-.24-.06.04l-.1.06.16-.06c-.07.03-.14.05-.21.07.22-.02.24-.02.07,0-.09-.01-.22-.05.04.02-.06-.02-.42-.16-.11-.01-.08-.04-.15-.08-.22-.12-.04-.03-.37-.28-.11-.07-.15-.12-.29-.25-.42-.39-.08-.08-.15-.15-.22-.23-.06-.07-.25-.3-.09-.1-.26-.34-.49-.72-.66-1.11.14.32-.01-.07-.03-.12-.03-.08-.05-.16-.07-.24-.03-.12-.05-.24-.08-.37.06.36.01-.03,0-.1,0-.1.01-.21,0-.31,0-.11,0-.08-.02.09.01-.08.03-.17.05-.25.02-.07.04-.13.06-.19.06-.15.05-.13-.03.08.03-.06.06-.12.1-.18.02-.03.09-.17.11-.17-.13.17-.15.19-.05.06.03-.04.07-.08.1-.11.06-.06.12-.12.18-.17.22-.22-.23.13.02-.01.09-.05.18-.1.26-.15.27-.17-.3.08,0,0,.08-.02.16-.04.24-.07.35-.12-.25-.02.03-.01.06,0,.13,0,.19,0,.27-.02-.36-.05.07.02.23.04-.11.05-.09-.05,0,0,.31.18.34.2.64.46,1.7.13,2.05-.54.41-.77.15-1.56-.54-2.05h0Z"/>
      <path d="M272.94,52.92c-2.18.54-2.94,2.75-3.16,4.73-.11.97-.11,1.98.07,2.94.26,1.4,1.22,2.39,2.51,2.9,1.96.77,4.2.2,5.8-1.07,1.7-1.36,2.39-3.6,1.89-5.7-.53-2.22-2.39-3.77-4.65-3.94s-4.36,1.24-4.86,3.4.51,4.64,2.74,5.31c1.4.42,2.86-.29,3.47-1.59.48-1.02.76-2.28.35-3.37-.59-1.54-2.35-2.22-3.79-1.34-1.08.66-1.89,2.01-1.78,3.3.07.82.42,1.59,1.16,2,.87.48,1.94.17,2.56-.55.97-1.12,1.24-2.86.69-4.23-.29-.71-1.01-1.34-1.85-1.05-1.33.46-1.99,1.94-1.28,3.21.38.69,1.38.97,2.05.54s.95-1.32.54-2.05c.28.5,0,1.02-.51,1.2l-1.85-1.05c.07.17.1.35.16.52.07.2,0-.25,0-.04,0,.1.01.2,0,.3,0,.06,0,.19-.02.24.01-.03.08-.33,0-.04-.02.08-.04.16-.07.23-.09.34.14-.22-.04.09,0-.02-.12.21-.12.21-.05-.02.19-.18.21-.19.55-.33,1.03.03,1.32.43.19.27-.06-.11,0-.08.02.01.04.39.03.12,0-.16.07-.08-.03.12.04-.07.05-.22.08-.3.06-.22.03.06-.03.06,0,0,.09-.16.1-.19.02-.04.08-.15.12-.18-.25.2-.07.1,0,.02.04-.04.21-.19.04-.05-.21.18.08-.07.09-.05.02.04-.37.09-.1.04s-.35,0-.04,0c-.03,0-.38-.07-.13,0-.13-.04-.22-.09-.32-.19.18.18-.02-.05-.04-.08.16.25-.04-.09-.02-.09.03,0,.05.22.07.24.08.17,0-.28-.02-.09,0,.08,0,.18,0,.27,0,.28.05-.2,0-.03-.04.16-.07.31-.11.47,0,.03-.07.21-.07.21-.03-.02.13-.26.02-.06-.03.06-.07.13-.1.19-.13.29.15-.13.01,0-.04.04-.21.18-.04.06.1-.07.09-.07-.02,0,.19-.07.22-.09.11-.05-.22.06.25-.02.02,0h-.06c.19.03.2.02.02-.02-.07.04-.25-.18,0,0-.07-.05-.15-.09-.22-.13-.25-.15.09.04.07.06,0,0-.12-.11-.14-.13l-.07-.07c-.08-.1-.08-.1,0,0,.08.1.08.1,0,0l-.05-.08c-.04-.07-.08-.14-.12-.21-.03-.06-.15-.21-.02-.04s0-.02-.02-.09c-.02-.06-.04-.12-.05-.19s-.03-.13-.04-.19c-.06-.27.03.1.01.11.02-.01-.01-.43-.01-.49,0,0,.02-.19.02-.19.07.08-.06.32,0,.11.04-.14.09-.28.12-.42.04-.2-.18.32-.02.04.03-.06.06-.12.09-.17s.07-.11.1-.16c.16-.27-.22.21,0,0,.08-.08.2-.27.3-.29-.14.03-.2.13-.05.05.08-.04.15-.09.22-.13.06-.03.12-.06.19-.09.19-.1-.35.1-.02.01.17-.04.34-.09.51-.13.23-.05-.07,0-.09.01,0-.01.22-.01.21-.01.14,0,.28,0,.42,0,.35,0-.24-.06-.03,0,.07.02.14.03.21.04.09.02.17.04.25.07.05.01.33.13.12.04-.23-.1.08.05.11.06.06.03.12.07.18.11.03.02.16.12.18.12-.08.02-.21-.18-.05-.03.12.11.22.23.34.34.15.14-.15-.22-.04-.05.06.09.12.18.18.27.07.12.19.29.22.43,0-.03-.11-.32-.03-.06.02.07.05.14.07.21.04.14.07.28.1.42.08.34-.01-.25,0-.02,0,.09.02.18.02.27,0,.16,0,.33-.01.49v.05c-.02.17-.02.14,0-.08.01.02-.04.21-.04.21-.03.14-.08.28-.12.42-.08.28.03-.05.03-.06,0,.08-.1.2-.14.28-.07.13-.18.26-.25.39-.08.17.19-.19.05-.06-.06.06-.11.13-.17.19-.09.1-.19.2-.3.29-.04.03-.14.1-.16.13.15-.12.19-.14.1-.08-.04.03-.08.06-.13.09-.11.08-.23.15-.35.22-.06.03-.12.07-.18.1-.03.01-.34.13-.11.05.21-.07-.01,0-.06.02-.08.03-.16.06-.25.08-.17.05-.34.08-.5.12-.23.05.09,0,.09-.01,0,.01-.22.02-.21.02-.14,0-.28,0-.41,0-.08,0-.17-.02-.26-.02-.2,0,.28.08.09,0-.15-.06-.34-.07-.5-.13-.09-.03-.31-.13-.03,0-.09-.04-.18-.09-.27-.14-.08-.05-.27-.21-.04,0-.03-.03-.28-.25-.13-.11s-.07-.12-.08-.14c-.16-.22.03.14-.02-.01-.05-.19-.1-.38-.14-.57-.05-.23.01.36,0-.02,0-.1-.01-.2-.02-.3,0-.2,0-.4,0-.61,0-.33.02-.67.05-1,0-.04,0-.24.03-.25-.04.03-.06.36,0,.05.03-.17.06-.33.1-.5s.08-.32.14-.48c0-.02.09-.22.08-.23.03.02-.17.34-.02.05.07-.13.16-.26.23-.4.09-.17-.25.27-.04.06.05-.05.1-.11.15-.16.16-.17.1.03-.07.04.05,0,.15-.09.19-.12.23-.15.03.08-.07.02.03.02.24-.07.27-.08.76-.19,1.29-1.09,1.05-1.85s-1.03-1.25-1.85-1.05h0Z"/>
      <path d="M253.23,32.36l.62-4.01c.1-.67.2-1.34.31-2,.04-.28.11-.55.17-.83.06-.17.06-.18,0-.03l.06-.12c.1-.16.1-.16-.01,0,.04-.05.08-.09.12-.13.08-.07.06-.06-.07.04.05-.04.1-.07.15-.1.04-.02.38-.21.2-.12s.18-.06.23-.08c.12-.04.24-.07.36-.1.25-.06.5-.1.76-.15.11-.02.09-.01-.06,0,.07,0,.14-.02.2-.02.14-.01.27-.03.41-.03.27-.02.54-.02.82,0,.05,0,.46.03.27.01s.21.04.26.05c.13.03.26.06.38.1.04.01.41.15.25.08s.19.1.23.12c.06.03.43.29.19.1.62.48,1.53.65,2.12,0,.49-.54.66-1.61,0-2.12-1.22-.96-2.63-1.38-4.18-1.35-1.32.02-2.94.22-4.05.98-.74.5-1.23,1.16-1.5,2.01-.22.68-.27,1.44-.38,2.15l-.74,4.76c-.12.77.2,1.65,1.05,1.85.72.16,1.72-.22,1.85-1.05h0Z"/>
      <path d="M337.12,28.14c.14-.02.28-.04.43-.06-.3.04.12-.01.18-.02.32-.04.63-.07.95-.1.58-.05,1.17-.07,1.76-.04.14,0,.29.02.43.03.07,0,.14.01.21.02-.16-.03-.16-.02.02,0,.28.05.55.1.82.18.13.04.26.09.39.13.3.09-.15-.1.15.06.25.13.48.26.71.42-.23-.16.11.1.13.11.11.1.21.2.3.3.02.02.29.36.12.13.08.11.16.23.23.35s.14.24.2.37c.01.02.19.43.08.15.1.26.19.53.26.81s.14.56.19.84c.03.14.05.29.07.43-.04-.3.01.12.02.18.06.63.09,1.26.11,1.89.03.78.67,1.54,1.5,1.5s1.53-.66,1.5-1.5c-.11-2.99-.5-6.18-3.09-8.08-2.42-1.78-5.69-1.4-8.47-.99-.78.11-1.28,1.14-1.05,1.85.28.85,1.01,1.17,1.85,1.05h0Z"/>
      <path d="M197.12,162.01c4.67,3.77,10.8,4.35,16.52,3.13,3.06-.65,5.98-1.87,8.8-3.19,1.48-.69,2.93-1.43,4.39-2.16.73-.37,1.46-.73,2.19-1.09.33-.16.67-.33,1-.48.42-.2,1.29-.42,1.61-.75l.35-.15c-.44-.83-.65-.9-.63-.2-.11.19-.13.82-.16.98-.16.98-.31,1.96-.47,2.94-.3,1.88-.6,3.76-.9,5.64-.59,3.68-1.18,7.36-1.77,11.03-1.18,7.36-2.35,14.71-3.53,22.07-2.09,13.08-5.68,28.27,2.06,40.25,3.13,4.84,8.02,8.43,13.78,9.32,2.8.43,5.7.25,8.36-.8,2.83-1.11,5.16-3.08,7.24-5.25,5.4-5.63,10.27-11.85,14.79-18.2,1.84-2.59,3.58-5.9,6.51-7.4,1.99-1.02,5.28-.6,5.73,1.97.33,1.9,3.22,1.09,2.89-.8-.41-2.37-2.48-4.02-4.76-4.51-2.68-.57-5.16.3-7.24,2.02-2.31,1.91-3.88,4.6-5.6,7.01-2.04,2.87-4.16,5.69-6.37,8.43s-4.54,5.48-6.94,8.11c-2.11,2.31-4.41,4.73-7.41,5.84-5.23,1.95-11.36.13-15.34-3.6-10.53-9.84-7.3-26.14-5.3-38.67,2.38-14.88,4.76-29.75,7.14-44.63.25-1.53.84-3.64-1-4.44-1.5-.65-3.26.53-4.58,1.17-3.49,1.67-6.88,3.57-10.48,4.99-5.88,2.32-13.47,3.56-18.8-.74-1.49-1.2-3.62.91-2.12,2.12h0Z"/>
      <path d="M282.77,220.03c2.67,9.65,7.34,19.1,14.14,26.53,5.91,6.46,14.1,11.41,23.12,10.94,8.21-.43,16.07-5,18.69-13.1,1.55-4.81,1.07-9.98.3-14.88-.84-5.32-1.92-10.56-2.3-15.95-.4-5.73-.36-11.49-.22-17.23.12-5.39.16-10.81.82-16.17.32-2.57.82-5.13,1.58-7.61.64-2.09,1.38-4.84,3.08-6.35.93-.83,1.7-.66,2.7-.02,1.09.7,2.15,1.44,3.28,2.07,2.23,1.24,4.61,2.23,7,3.1,4.78,1.73,9.81,3.36,14.85,4.13,4.63.71,9.62.51,13.62-2.2,7.28-4.92,8.72-14.93,5.94-22.75-1.64-4.62-4.41-8.7-7.55-12.42-3.35-3.97-7.09-7.67-11.41-10.58s-9.22-5.6-13.56-8.88c-4.57-3.45-8.97-7.13-13.42-10.73-2.27-1.83-4.54-3.66-6.81-5.5-1.49-1.2-3.62.91-2.12,2.12,4.41,3.56,8.82,7.12,13.22,10.68,4.08,3.29,8.15,6.61,12.52,9.51s9.02,5.23,12.95,8.73c3.6,3.22,6.97,6.91,9.67,10.92,4.63,6.88,7.22,16.27,1.86,23.56-6.02,8.17-17.49,4.2-25.4,1.71-2.41-.76-4.81-1.57-7.11-2.62s-4.23-2.42-6.38-3.66c-4.7-2.72-7.64,2.33-9.07,6.08-1.79,4.69-2.5,9.73-2.85,14.71-.37,5.25-.44,10.55-.51,15.81s0,11.01.54,16.48c.51,5.1,1.66,10.08,2.36,15.15.65,4.7.84,9.82-1.38,14.16-1.7,3.31-4.65,5.78-8.07,7.2-18.16,7.5-32.94-11.86-38.77-26.53-.94-2.36-1.74-4.77-2.41-7.22-.51-1.86-3.41-1.07-2.89.8h0Z"/>
      <path d="M232.78,240.67c.06-.54.2-1.36.36-2.08.17-.79.39-1.57.64-2.34.49-1.51,1.04-2.73,1.84-4.16.38-.68.19-1.67-.54-2.05s-1.64-.19-2.05.54c-1.76,3.13-2.83,6.53-3.25,10.09-.09.78.76,1.53,1.5,1.5.89-.04,1.4-.66,1.5-1.5h0Z"/>
      <path d="M250.9,246.06l-1.33-9.2c-.11-.78-1.14-1.28-1.85-1.05-.85.28-1.17,1.01-1.05,1.85l1.33,9.2c.11.78,1.14,1.28,1.85,1.05.85-.28,1.17-1.01,1.05-1.85h0Z"/>
      <path d="M321.82,255.91c-.76-4.05-1.79-8.04-3.08-11.95l-.39,1.46c.12-.13.15-.19.28-.2.81-.04,1.5-.66,1.5-1.5,0-.78-.69-1.54-1.5-1.5-.92.05-1.77.38-2.4,1.07-.35.39-.56.94-.39,1.46,1.3,3.91,2.32,7.9,3.08,11.95.15.8,1.11,1.25,1.85,1.05.84-.23,1.2-1.05,1.05-1.85h0Z"/>
      <path d="M338.09,246.28c-2.42-3.23-5.37-6-8.79-8.15v2.59c.44-.27.88-.54,1.32-.81.67-.41.98-1.36.54-2.05s-1.34-.98-2.05-.54c-.44.27-.88.54-1.32.81-.98.6-.96,1.99,0,2.59.77.48,1.51,1,2.23,1.54.36.27-.11-.09.09.07.09.08.19.15.28.22.19.15.37.3.55.45.35.29.69.59,1.02.9.67.61,1.3,1.26,1.91,1.93.3.34.6.68.89,1.03.15.18.3.37.45.56.06.07.13.16.03.03.09.11.17.23.26.34.47.63,1.32,1.01,2.05.54.62-.4,1.04-1.38.54-2.05h0Z"/>
      <path d="M381.52,171.61c-3.19-2.74-6.57-5.26-10.11-7.54l-1.16,2.74c.37.11.74.21,1.11.32.75.21,1.67-.26,1.85-1.05s-.24-1.62-1.05-1.85c-.37-.11-.74-.21-1.11-.32-.71-.2-1.5.19-1.77.87s-.03,1.46.61,1.87c3.36,2.16,6.49,4.48,9.5,7.07.61.53,1.52.6,2.12,0,.54-.54.62-1.59,0-2.12h0Z"/>
      <path d="M13.13,197.48c5.92-4.49,11.95-8.86,17.76-13.5,5.18-4.14,9.03-9.06,11.21-15.36s2.75-12.47,3.02-18.76c.14-3.32.04-6.71-.85-9.93s-2.63-5.95-4.87-8.34c-4.66-4.98-10.45-8.96-15.73-13.24s-10.53-8.5-14.46-13.86c-3.27-4.46-6.26-10.4-4.87-16.09s6.26-8.4,11.44-9.49c6.17-1.3,12.87-.43,18.84,1.39,6.49,1.98,12.43,5.51,16.88,10.67l2.12-2.12c-5.29-5.27-10.62-11.03-13.36-18.1-2.53-6.52-2.75-14.19,1.23-20.19.44-.67.14-1.67-.54-2.05-6.77-3.83-11.48-11.12-11.85-18.94s3.72-16.28,10.62-20.6c3.73-2.34,8.06-3.17,12.39-2.27s8.25,3.07,11.8,5.63c1.82,1.31,3.41,2.99,5.3,4.19s3.87.94,5.57-.46c1.54-1.26,3.03-2.4,4.89-3.17s3.74-1.19,5.66-1.45c4.7-.63,9.49-.2,14.2.16,5.83.45,11.64,1,17.45,1.64.82.09,1.49-.76,1.5-1.5.08-3.94,3.36-7.06,6.96-8.13,4.58-1.36,9.55-.22,13.94,1.32,7.52,2.63,14.92,7.92,17.12,15.95.98,3.59.92,7.55-.51,11.01-.71,1.72-1.79,3.21-3.11,4.5s-2.83,2.57-3.61,4.31c-.93,2.07-.45,4.12.46,6.1s1.8,3.77,2.47,5.78c1.33,3.95,2.04,8.08,2.13,12.24.2,9.34-2.65,18.59-8.28,26.06-1.16,1.54,1.44,3.04,2.59,1.51,5.42-7.2,8.36-16.09,8.67-25.07.16-4.48-.36-9.01-1.55-13.34-.58-2.1-1.33-4.15-2.22-6.14s-2.65-4.31-1.21-6.52c1.09-1.67,2.85-2.82,4.09-4.37,1.32-1.66,2.3-3.55,2.92-5.58,1.19-3.92,1.04-8.27-.21-12.15-2.75-8.58-10.59-14.22-18.77-17.12-5.18-1.84-11.34-3.1-16.65-1.06-4.49,1.72-8.13,5.73-8.23,10.7l1.5-1.5c-5.4-.59-10.81-1.11-16.22-1.54-4.61-.37-9.27-.8-13.9-.42-4.13.34-8.34,1.32-11.79,3.72-.85.59-1.59,1.33-2.42,1.94-1.11.81-2.02-.02-2.91-.78-1.84-1.56-3.73-3.06-5.74-4.41-3.82-2.55-8.12-4.59-12.71-5.21-4.6-.63-9.15.39-13.09,2.84-7.29,4.55-11.89,12.9-12.12,21.45-.25,9.47,5.14,18.62,13.35,23.26l-.54-2.05c-4.3,6.49-4.32,15-1.67,22.13,2.89,7.76,8.49,14.04,14.27,19.79,1.38,1.38,3.37-.67,2.12-2.12-7.9-9.16-20.66-13.78-32.6-13.52-5.4.12-11.14,1.4-15.26,5.09-4.4,3.93-5.55,9.95-4.13,15.51,1.54,6.02,5.41,11.22,9.74,15.55,5.02,5.03,10.66,9.37,16.2,13.8,2.67,2.14,5.36,4.28,7.87,6.61s4.79,5.02,5.81,8.42,1.01,6.64.85,9.99-.44,6.54-.97,9.76c-1.21,7.3-3.82,14.07-9.32,19.2-2.94,2.75-6.26,5.08-9.47,7.51-3.57,2.71-7.14,5.41-10.72,8.12-1.52,1.15-.03,3.76,1.51,2.59h0Z"/>
      <path d="M12.22,195.34c-3.49,1.58-5.73,4.98-6.55,8.65-.92,4.12-.15,8.21,1.72,11.96,2.08,4.17,5.35,7.65,8.55,10.99s6.49,6.78,10.71,8.75c9.51,4.42,19.63-.93,27.6-6.15,4.22-2.76,8.21-5.87,11.92-9.28s6.91-7.3,10.79-10.48c3.66-3,8.63-5.44,13.47-4.32,4.11.94,7.11,4.19,9.18,7.7,4.72,8,5.2,18.07,12.2,24.76,6.46,6.17,16.15,8.18,24.45,4.79,4.15-1.7,7.75-4.5,10.34-8.18,2.87-4.09,4.28-9,5.68-13.73,3.14-10.6,6.28-21.22,8.83-31.98,2.41-10.2,5.07-21.09,3.84-31.64-.3-2.56-.81-5.06-1.62-7.51l-2.2,1.69c7.38,5.58,16.51,8.7,25.76,8.92,4.55.11,9.58-.27,13.74-2.26,3.94-1.88,6.57-5.71,7.58-9.89,2.22-9.17-2.98-18.73-8.39-25.79-5.51-7.19-12.6-13.05-20.34-17.72-10-6.02-21.02-10.11-32.06-13.79-1.84-.61-2.62,2.28-.8,2.89,17.18,5.73,34.76,12.71,47.33,26.28,2.83,3.05,5.33,6.4,7.39,10.02,2.23,3.91,4.13,8.26,4.35,12.81.19,3.95-.98,8.09-3.94,10.83-3.16,2.93-8.09,3.42-12.21,3.58-9.65.38-19.21-2.68-26.91-8.49-1.05-.79-2.59.52-2.2,1.69,3.23,9.76,1.48,20.17-.54,29.99-2.14,10.36-4.95,20.56-7.9,30.71-1.39,4.76-2.68,9.58-4.3,14.26-1.51,4.36-3.65,8.42-7.27,11.39-6.67,5.49-16.19,5.98-23.44,1.36-8.03-5.11-9.37-14.57-12.84-22.68-1.57-3.65-3.74-7.26-6.85-9.81-3.37-2.77-7.48-3.94-11.8-3.26-9.52,1.51-15.42,10.29-22.1,16.31-3.61,3.26-7.49,6.21-11.59,8.82s-8.32,5.03-13,6.2c-4.68,1.17-9.2.54-13.23-2.13-3.65-2.42-6.69-5.86-9.64-9.07-5.15-5.6-10.67-13.89-5.89-21.45.9-1.43,2.16-2.47,3.69-3.17,1.76-.8.23-3.38-1.51-2.59h0Z"/>
      <path d="M194.51,150.49c3.51,1.99,7.37,3.34,11.37,3.9.74.1,1.47-.12,1.77-.87.28-.7.04-1.47-.61-1.87-.62-.38-1.23-.76-1.85-1.14-.69-.43-1.65-.15-2.05.54s-.15,1.63.54,2.05c.62.38,1.23.76,1.85,1.14l1.16-2.74c-3.75-.53-7.36-1.73-10.65-3.6-.7-.4-1.64-.17-2.05.54s-.17,1.65.54,2.05h0Z"/>
      <path d="M198.01,140.41c2.4,1.16,4.8,2.31,7.2,3.47.71.34,1.65.22,2.05-.54.35-.67.22-1.69-.54-2.05-2.4-1.16-4.8-2.31-7.2-3.47-.71-.34-1.65-.22-2.05.54-.35.67-.22,1.69.54,2.05h0Z"/>
      <path d="M.43,94.19c3.96,3.5,8.46,6.24,13.37,8.19,1.24.49,2.35-1.16,1.69-2.2-.25-.4-.51-.81-.76-1.21-1.02-1.63-3.62-.13-2.59,1.51.25.4.51.81.76,1.21l1.69-2.2c-4.4-1.75-8.5-4.29-12.05-7.42-.61-.54-1.52-.6-2.12,0-.55.55-.61,1.58,0,2.12H.43Z"/>
      <path d="M9.63,81.05c3.03,4.4,7.18,7.97,12.05,10.19.74.34,1.61.21,2.05-.54.38-.64.2-1.71-.54-2.05-4.41-2.01-8.24-5.14-10.97-9.11-.46-.67-1.32-.97-2.05-.54-.66.39-1,1.38-.54,2.05h0Z"/>
      <path d="M44.57,27.78c1.81-2.15,3.84-4.73,6.62-5.65,1.95-.64,4.59-.49,5.8,1.36,1.05,1.61,3.65.11,2.59-1.51-1.86-2.84-5.44-3.69-8.62-2.91-3.61.89-6.22,3.87-8.51,6.59-.52.62-.61,1.51,0,2.12.54.54,1.6.62,2.12,0h0Z"/>
      <path d="M128.75,21.55c4.41-1.67,9.86,1.02,11.04,5.64.48,1.87,3.37,1.08,2.89-.8-1.56-6.08-8.82-9.98-14.73-7.73-.76.29-1.28,1.01-1.05,1.85.2.73,1.08,1.34,1.85,1.05h0Z"/>
      <path d="M10.26,211.94c.11-.48.25-.95.43-1.4.02-.05.04-.11.07-.16-.07.16-.08.19-.04.09.05-.11.1-.21.15-.32.1-.21.21-.42.33-.62.13-.22.26-.44.41-.65.07-.1.13-.19.2-.29.05-.06.27-.34.05-.07.3-.36.61-.72.95-1.04.17-.16.34-.32.52-.47.09-.08.18-.15.27-.22-.28.23.03-.02.07-.05.38-.28.78-.53,1.19-.75.21-.11.42-.21.63-.31.31-.15-.22.08.07-.03.11-.04.22-.09.33-.12.48-.17.97-.3,1.47-.4.77-.15,1.28-1.12,1.05-1.85-.27-.82-1.02-1.21-1.85-1.05-4.44.86-8.19,4.54-9.21,8.93-.18.76.24,1.66,1.05,1.85.77.17,1.66-.23,1.85-1.05h0Z"/>
      <path d="M21.7,226.23c.35-.8.76-1.57,1.24-2.29.12-.18.24-.36.37-.54.06-.08.12-.16.17-.24.23-.32-.2.24.05-.07.27-.34.56-.67.85-.99s.61-.62.93-.91c.15-.13.3-.26.45-.39.09-.08.18-.15.28-.22.25-.2-.21.15.07-.05.71-.51,1.44-.98,2.21-1.37.7-.36.96-1.4.54-2.05-.46-.71-1.3-.92-2.05-.54-3.38,1.73-6.19,4.68-7.71,8.16-.31.72-.24,1.64.54,2.05.65.34,1.72.23,2.05-.54h0Z"/>
      <path d="M119.61,231.47c.07,3.62,1.46,7.08,3.88,9.77.35.39.96.52,1.46.39.55-.15.85-.55,1.05-1.05-.11.27.04-.06-.04.09-.09.16.1-.09.12-.12-.08.09-.16.1-.01.02.33-.18-.28.07.09-.03.76-.21,1.3-1.07,1.05-1.85s-1.03-1.27-1.85-1.05c-1.1.3-1.84,1.08-2.24,2.12l2.51-.66c-.54-.59-.75-.87-1.22-1.63-.2-.32-.39-.66-.56-1-.09-.17-.16-.34-.25-.52-.07-.16-.08-.17-.02-.03-.04-.09-.07-.18-.11-.27-.28-.71-.49-1.44-.64-2.19-.04-.19-.07-.37-.1-.56-.03-.18-.03-.19,0-.03-.01-.09-.02-.19-.03-.28-.04-.38-.06-.76-.07-1.14-.01-.78-.68-1.54-1.5-1.5s-1.52.66-1.5,1.5h0Z"/>
      <path d="M134.73,232.21c1.67,2.4,3.35,4.81,5.02,7.21.45.64,1.33,1,2.05.54.64-.41,1.02-1.36.54-2.05-1.67-2.4-3.35-4.81-5.02-7.21-.45-.64-1.33-1-2.05-.54-.64.41-1.02,1.36-.54,2.05h0Z"/>
      <path d="M65.54,137.19c8.11-.66,16.01-3.12,23.01-7.29,3.37-2,6.8-4.35,9.28-7.43,2.24-2.77,3.98-6.4,2.93-10.02s-4.63-5.8-7.91-7.4c-3.75-1.84-7.72-3.32-11.88-3.88-3.83-.52-8.03-.26-11.52,1.54-3.04,1.56-5.13,5.13-2.83,8.24,2.16,2.91,6.36,3.64,9.67,4.36,4.24.92,8.58,1.48,12.91,1.69,8.61.4,17.33-.65,25.59-3.11,3.58-1.07,8.29-2.21,10.27-5.72s.42-7.08-3.2-8.31c-3.35-1.14-7.47-.69-10.86.04-3.74.81-7.36,2.43-10.45,4.69s-6.5,5.21-5.47,9.52c.82,3.4,3.05,6.66,5.37,9.21,4.64,5.1,11.2,8.35,18.05,8.99,1.72.16,3.44.13,5.16-.08,1.89-.23,1.92-3.23,0-3-5.84.7-11.66-.83-16.53-4.09-2.34-1.57-4.46-3.56-6.11-5.85-1.46-2.02-4.25-5.99-2.72-8.5.8-1.32,2.24-2.44,3.45-3.37s2.63-1.8,4.05-2.52c2.89-1.46,6.11-2.36,9.35-2.59,2.04-.14,7.16-.6,7.76,2.21.73,3.44-4.18,4.94-6.54,5.73-13.8,4.62-29.19,5.21-43.22,1.2-1.8-.51-5.91-2.1-4.1-4.65s6.03-2.89,8.77-2.87c3.47.02,6.87.94,10.09,2.19,2.89,1.12,6.32,2.5,8.53,4.76,2.69,2.74,1.58,6.38-.46,9.14-2.21,2.98-5.43,5.18-8.57,7.08-6.62,4.01-14.14,6.46-21.85,7.09-1.91.16-1.93,3.16,0,3h0Z"/>
      <path d="M67.43,55.02c4.11-.64,8.4.27,11.96,2.4,1.66.99,3.17-1.6,1.51-2.59-4.3-2.57-9.34-3.47-14.27-2.7-.8.12-1.24,1.13-1.05,1.85.23.85,1.04,1.17,1.85,1.05h0Z"/>
      <path d="M117.21,58.27c.95-1.79,2.58-3.13,4.43-3.77,2.01-.69,3.9-.69,5.88.14.75.32,1.61.22,2.05-.54.37-.63.21-1.74-.54-2.05-1.38-.58-2.71-.98-4.21-1.04-1.34-.05-2.72.16-3.98.59-2.62.9-4.92,2.68-6.23,5.14-.38.72-.18,1.63.54,2.05.68.4,1.67.18,2.05-.54h0Z"/>
      <path d="M85.47,82.02c3.8,2.16,8.68,1.89,12.12-.85,3.23-2.58,4.58-6.96,3.66-10.94-.28-1.23-2.15-1.49-2.74-.36-2.49,4.78-.34,10.86,4.83,12.64,2.37.82,5.2.6,7.37-.67,1.12-.66,2.11-2.11,1.03-3.3-.81-.9-2.28-.6-2.84.41-.35.64-.2,1.28.23,1.82l.08.1c1.21,1.5,3.32-.63,2.12-2.12l-.08-.1.23,1.82-.93.53-1.06-.44.12.1-.44-1.06c0-.58-.16-.23-.57-.06-.31.13-.66.23-.99.31-.6.14-1.23.17-1.84.12-1.28-.1-2.55-.59-3.49-1.46-1.94-1.77-2.38-4.83-1.18-7.13l-2.74-.36c.66,2.83-.35,5.95-2.61,7.81-2.45,2.01-6.05,2.14-8.76.6-1.68-.96-3.19,1.64-1.51,2.59h0Z"/>
      <path d="M94.94,67.62c1.58-.45,2.95-.67,4.56-.71.81-.02,1.62,0,2.42.09.38.04.5.04.89.12.06.01.35.12.39.1-.15.09-.5-.44-.41-.52,0,0-.05.48,0,.19-.03.13-.06.26-.1.39-.03.09-.06.17-.09.26,0-.02.09-.21.02-.05-.07.14-.14.28-.22.42-.05.08-.1.15-.14.23,0,.01-.14.19-.04.07.07-.1-.14.16-.19.21-.11.12-.22.23-.34.33-.05.04-.1.09-.15.13-.18.15.17-.12-.02,0-.25.16-.49.31-.76.43.23-.1-.06.01-.15.04-.17.05-.35.09-.52.13-.28.06.15,0-.14,0-.16,0-.32,0-.48,0-.07,0-.14,0-.21-.02.03,0,.22.05.06,0-.17-.05-.36-.08-.53-.14-.07-.02-.13-.04-.2-.07.14.05.09.04-.02-.01-.17-.08-.33-.17-.48-.27-.06-.04-.11-.08-.17-.11-.2-.13.15.13-.03-.01-.14-.12-.28-.24-.41-.37-.05-.06-.32-.37-.17-.17-.11-.14-.21-.3-.3-.46-.05-.08-.24-.51-.15-.26-.07-.17-.12-.35-.16-.53l-1.45,1.9c2,.22,4,.44,6,.65.78.09,1.53-.75,1.5-1.5-.04-.89-.66-1.41-1.5-1.5-2-.22-4-.44-6-.65-1-.11-1.67,1.04-1.45,1.9.45,1.75,1.73,3.29,3.38,4.03,1.77.8,3.73.77,5.45-.18,1.52-.84,2.79-2.44,3.07-4.18.2-1.26-.15-2.56-1.42-3.1-.95-.4-2.08-.44-3.09-.51-2.37-.15-4.78.14-7.06.78-.75.21-1.3,1.07-1.05,1.85s1.04,1.28,1.85,1.05h0Z"/>
    </g>
  </g>
</svg>