<?xml version="1.0" encoding="UTF-8"?>
<svg id="Capa_2" data-name="Capa 2" xmlns="http://www.w3.org/2000/svg" viewBox="0 0 397.52 404.77">
  <defs>
    <style>
      .cls-1 {
        fill: #fff;
      }
    </style>
  </defs>
  <g id="Capa_3" data-name="Capa 3">
    <g>
      <g>
        <path class="cls-1" d="M105.61,226.73c-16.53,39.13-31.32,79-44.31,119.45,2.13,2.98,6.78.68,9.52-1.75,38.62-34.28,77.24-68.55,115.86-102.83,20.62,29.23,43.14,57.12,67.37,83.42,14.85,16.12,31.41,32.29,52.59,37.91,3.06-4.45,1.61-10.45.05-15.62-11.94-39.58-24.19-79.83-47.17-114.2-2.74-4.1-5.76-8.51-5.55-13.45.22-5.11,3.83-9.36,7.26-13.16,21.89-24.29,43.77-48.58,65.66-72.86,3.03-3.37,6.34-6.9,10.74-7.99s10,1.61,10.14,6.14c2.57-7.85,1.71-16.76-2.31-23.97-.84-1.51-1.9-3.02-3.49-3.68-1.48-.62-3.17-.39-4.75-.15-40.38,6.29-79.56,20.18-114.89,40.73,5.02-3.15,10.05-6.31,15.07-9.46-14.55-45.24-30.98-89.88-49.21-133.76-16.56,15.87-21.41,39.98-26.71,62.29-6.36,26.78-14.51,53.13-24.37,78.83-36.97-19.12-75.6-35.01-115.33-47.44-4.78-1.5-10.61-2.74-14.3.64,27.8,40.54,55.8,81.31,90.23,116.4,4.03,4.11,8.48,9.89,5.82,15"/>
        <path d="M104.32,225.97c-7.56,17.9-14.77,35.95-21.6,54.14-6.84,18.22-13.31,36.58-19.41,55.07-.78,2.38-1.56,4.76-2.33,7.14-.35,1.07-.76,2.14-1.04,3.23s.26,1.81,1.08,2.48c2.72,2.19,6.6.59,9.1-1.15,1.77-1.23,3.33-2.77,4.94-4.2,1.93-1.71,3.86-3.43,5.79-5.14,3.74-3.32,7.47-6.63,11.21-9.95,15.01-13.32,30.02-26.65,45.04-39.97,15.01-13.32,30.02-26.65,45.04-39.97l5.61-4.98-2.36-.3c13.82,19.59,28.49,38.58,43.95,56.9,7.69,9.11,15.58,18.06,23.66,26.83,7.11,7.72,14.44,15.28,22.63,21.87,9.1,7.32,19.27,13.38,30.62,16.43.67.18,1.32-.13,1.69-.69,2.38-3.61,2.27-8,1.43-12.08-.93-4.55-2.52-8.99-3.87-13.43-2.77-9.11-5.58-18.2-8.58-27.23-5.99-18.04-12.74-35.89-21.25-52.9-4.23-8.45-8.9-16.69-14.11-24.58-2.43-3.68-5.54-7.59-6.03-12.13s2.12-8.37,4.88-11.63c6.78-8,14.04-15.63,21.06-23.42s14.33-15.9,21.5-23.86c7.11-7.89,14.22-15.78,21.33-23.67,4.42-4.91,12.01-15.74,19.78-10.55,1.23.82,2.12,2.06,2.21,3.56.1,1.68,2.42,2.05,2.95.4,1.54-4.82,1.87-9.91,1.08-14.9-.38-2.42-1.06-4.77-2-7.03-.89-2.13-1.94-4.42-3.62-6.06-1.82-1.77-4.14-2.14-6.59-1.84-2.66.33-5.3.82-7.94,1.29-5.25.93-10.48,1.99-15.68,3.17-20.86,4.75-41.23,11.55-60.79,20.22-10.99,4.87-21.71,10.34-32.1,16.38l1.51,2.59c5.02-3.15,10.05-6.31,15.07-9.46.54-.34.9-1.05.69-1.69-5.69-17.68-11.66-35.27-17.92-52.75-6.23-17.41-12.73-34.72-19.52-51.92-3.84-9.73-7.77-19.43-11.78-29.09-.42-1.02-1.62-1.52-2.51-.66-12.95,12.5-18.92,29.97-23.26,47-2.42,9.49-4.5,19.05-6.96,28.53-2.73,10.53-5.75,20.99-9.03,31.36-3.72,11.75-7.8,23.38-12.21,34.88l2.2-.9c-16.93-8.75-34.2-16.82-51.77-24.21s-35.33-14.04-53.37-19.99c-4.72-1.56-9.49-3.39-14.37-4.41-4.16-.88-8.58-.87-11.94,2.05-.47.41-.59,1.3-.23,1.82,12.23,17.82,24.46,35.65,37.28,53.05,12.78,17.35,26.15,34.29,40.6,50.28,4,4.43,8.09,8.77,12.26,13.04,3.15,3.22,8.32,8.57,5.91,13.51-.84,1.73,1.74,3.25,2.59,1.51,2.19-4.49.24-9.11-2.58-12.82-3.18-4.19-7.19-7.78-10.78-11.62-7.52-8.04-14.75-16.36-21.74-24.86-14.02-17.07-27.08-34.9-39.77-52.96-7.14-10.16-14.16-20.4-21.19-30.64l-.23,1.82c2.77-2.42,6.85-1.84,10.14-1.03,4.25,1.06,8.42,2.57,12.58,3.93,8.73,2.87,17.4,5.91,26.01,9.11,17.32,6.44,34.39,13.56,51.16,21.33,9.41,4.36,18.71,8.92,27.92,13.68.92.48,1.85.03,2.2-.9,7.74-20.17,14.43-40.74,20.02-61.61,2.57-9.6,4.78-19.28,7.13-28.93,2.1-8.63,4.42-17.25,7.76-25.5,3.66-9.06,8.72-17.6,15.79-24.42l-2.51-.66c7.12,17.15,13.97,34.41,20.54,51.78s12.8,34.69,18.78,52.19c3.38,9.9,6.68,19.83,9.88,29.79l.69-1.69c-5.02,3.15-10.05,6.31-15.07,9.46-1.63,1.02-.16,3.57,1.51,2.59,17.63-10.24,36.18-18.84,55.4-25.64s39.02-11.93,59.13-14.94c1.26-.19,2.73-.43,3.93.15,1.11.53,1.84,1.64,2.44,2.66,1.31,2.23,2.25,4.66,2.88,7.17,1.33,5.27,1.12,10.8-.53,15.97l2.95.4c-.21-3.65-2.92-6.28-6.29-7.36-3.88-1.24-7.85,0-11.05,2.34-3.93,2.88-7.03,6.84-10.27,10.44-3.67,4.07-7.33,8.14-11,12.21-14.72,16.34-29.44,32.67-44.16,49.01-3.37,3.74-6.97,7.38-10.01,11.41-2.7,3.58-4.53,7.77-3.87,12.33.67,4.67,3.55,8.63,6.1,12.46,2.69,4.07,5.25,8.23,7.67,12.46,9.75,17.04,17.34,35.22,23.88,53.7,3.27,9.26,6.29,18.6,9.2,27.97,1.45,4.68,2.88,9.37,4.3,14.07,1.31,4.32,3.07,8.8,3.16,13.37.04,2.16-.39,4.18-1.59,5.99l1.69-.69c-20.15-5.42-35.82-20.25-49.69-35.11-16-17.14-31.19-35.06-45.62-53.54-8.18-10.47-16.09-21.15-23.75-32-.58-.82-1.59-.98-2.36-.3-16.44,14.6-32.89,29.19-49.33,43.79s-32.89,29.19-49.33,43.79c-4.55,4.04-9.09,8.07-13.64,12.11-1.92,1.71-3.77,3.65-6.05,4.9-1.55.85-3.62,1.64-4.9,0l.39,1.46c5.04-15.69,10.34-31.29,15.92-46.79,5.6-15.58,11.48-31.06,17.62-46.44,3.46-8.66,7-17.28,10.62-25.86.32-.75.22-1.6-.54-2.05-.63-.37-1.74-.21-2.05.54h0Z"/>
      </g>
      <g>
        <path class="cls-1" d="M183.88,106.77c-3.17-.85-6.58-.32-9.67.81-9.22,3.38-15.98,12.25-17.57,21.93s1.7,19.9,8.06,27.38c2.93,3.45,6.65,6.46,11.07,7.41,4.14.89,8.46-.11,12.41-1.63,6.3-2.43,12.16-6.29,16.26-11.66s6.31-12.32,5.28-19c-1.79-11.61-12.32-19.65-22.44-25.62-2.53-1.49-5.38-2.99-8.26-2.41"/>
        <path d="M184.28,105.33c-6.23-1.54-12.82,1.04-17.74,4.83-4.54,3.51-7.96,8.32-9.95,13.69-4.33,11.71-.72,25.18,7.3,34.41,4.18,4.8,9.79,8.27,16.35,7.84s13.11-3.51,18.3-7.33,9.32-8.87,11.46-14.98c2.02-5.78,1.93-12.09-.45-17.74-2.5-5.95-7.07-10.71-12.1-14.62-2.6-2.02-5.33-3.85-8.15-5.56-3.29-1.99-6.71-3.99-10.7-3.32-1.9.32-1.09,3.21.8,2.89,3.02-.5,5.94,1.54,8.39,3.02,2.27,1.37,4.49,2.83,6.63,4.4,4.05,2.99,7.89,6.53,10.56,10.84,2.84,4.57,4.11,9.95,3.17,15.29-.99,5.61-3.92,10.65-8.02,14.56s-9.45,6.9-14.94,8.56c-3.03.92-6.29,1.41-9.42.65-2.66-.65-5.05-2.11-7.08-3.91-8.21-7.27-12.67-19.38-10.37-30.19,1.17-5.52,4.02-10.63,8.12-14.5,4.35-4.11,10.94-7.45,17.04-5.95,1.87.46,2.67-2.43.8-2.89h0Z"/>
      </g>
      <g>
        <path class="cls-1" d="M156.58,138.18c4.53-.66,8.49-4.25,9.61-8.69.58-2.33.57-5.07,2.37-6.66,1.04-.92,2.47-1.22,3.8-1.63,4.7-1.45,8.81-4.69,11.34-8.91.56,3.64,3.48,6.8,7.06,7.64.75.18,1.54.26,2.23.62,2.24,1.17,2.34,4.53,4.32,6.09,1.63,1.29,4.09,1,5.78,2.21,1.23.88,1.83,2.39,2.73,3.61s2.54,2.24,3.88,1.53"/>
        <path d="M156.98,139.63c3.28-.54,6.25-2.38,8.29-4.99,1.02-1.31,1.81-2.8,2.27-4.4s.5-3.26,1.08-4.8c.65-1.76,2.11-2.17,3.77-2.67s3.41-1.23,4.97-2.15c3.13-1.85,5.74-4.46,7.63-7.56l-2.74-.36c.57,3.29,2.78,6.28,5.76,7.8.69.35,1.43.65,2.18.84s1.64.22,2.3.67c1.09.73,1.49,2.37,2.07,3.48.71,1.36,1.68,2.47,3.11,3.09s3.38.6,4.66,1.59c1.38,1.06,1.85,3,3.16,4.17s2.98,1.81,4.61,1.12c.75-.32,1.27-.99,1.05-1.85-.19-.71-1.1-1.36-1.85-1.05-1.5.63-2.47-1.24-3.12-2.29-.8-1.29-1.71-2.48-3.13-3.14s-3.03-.66-4.38-1.38c-1.1-.59-1.57-1.83-2.07-2.91s-1.1-2.23-2.06-3.02c-1.2-1-2.65-1.05-4.08-1.52-2.85-.94-4.82-3.5-5.33-6.4-.23-1.33-2.12-1.38-2.74-.36-1.77,2.89-4.25,5.25-7.23,6.86s-6.8,1.65-8.69,4.61c-1.7,2.66-1.22,6.07-2.87,8.79s-4.35,4.43-7.42,4.94c-1.9.31-1.09,3.2.8,2.89h0Z"/>
      </g>
      <g>
        <path class="cls-1" d="M173.74,130.34c-.22-.81.43-1.74,1.26-1.83.75.16.16,1.61-.49,1.2"/>
        <path d="M175.18,129.94c-.01-.06-.03-.11-.03-.17l.05.4c-.01-.11-.01-.22,0-.34l-.05.4c.02-.14.06-.27.11-.4l-.15.36c.06-.13.13-.25.21-.36l-.23.3c.09-.11.18-.21.29-.29l-.3.23c.1-.07.2-.13.31-.18l-.36.15c.11-.04.21-.07.33-.09l-.4.05s.03,0,.05,0l-.4-.05s.06.02.09.03l-.36-.15s.06.03.09.05l-.3-.23s.05.05.08.08l-.23-.3s.04.06.05.09l-.15-.36s.03.09.03.14l-.05-.4c0,.06,0,.13,0,.19l.05-.4c-.01.08-.03.16-.07.24l.15-.36c-.03.08-.07.15-.13.22l.23-.3s-.08.09-.12.13l.3-.23s-.08.05-.12.07l.36-.15s-.08.03-.12.03l.4-.05s-.06,0-.1,0l.4.05s-.08-.02-.11-.03l.36.15s-.05-.02-.07-.04c-.17-.11-.36-.17-.56-.18-.2-.04-.4-.04-.6.03-.2.05-.37.14-.51.27-.16.11-.29.25-.39.42-.18.35-.28.77-.15,1.16s.35.69.69.9c.13.08.29.13.43.19.03.01.06.02.09.03.13.03.3.05.43.06.01,0,.03,0,.04,0s.03,0,.04,0c.14,0,.3-.03.43-.06.03,0,.06-.02.08-.03.14-.05.3-.11.43-.19s.25-.18.36-.28c.02-.02.05-.04.07-.06.06-.07.12-.14.17-.21.06-.07.12-.15.17-.23.1-.16.17-.35.23-.52.02-.06.04-.13.05-.2.03-.18.07-.38.06-.57,0-.16-.03-.32-.06-.47,0-.03-.01-.06-.02-.09-.11-.33-.23-.53-.45-.79-.02-.02-.04-.04-.06-.06-.11-.1-.24-.21-.37-.28-.12-.06-.26-.12-.39-.16-.01,0-.03-.01-.04-.02-.02,0-.03,0-.05-.01-.05-.01-.36-.06-.41-.05-.08,0-.16.02-.24.03-.17.02-.32.04-.48.1-.2.08-.42.16-.61.28-.15.09-.28.2-.41.31-.04.03-.08.07-.12.1-.16.15-.29.34-.42.51-.07.09-.13.19-.17.29-.1.21-.2.43-.25.66-.04.18-.06.37-.08.55,0,.06,0,.11,0,.17,0,.12.02.24.04.36s.03.25.06.37c.05.2.14.37.27.51.11.16.25.29.42.39.17.11.36.17.56.18.2.04.4.04.6-.03.36-.12.71-.34.9-.69s.26-.75.15-1.16h0Z"/>
      </g>
      <g>
        <path class="cls-1" d="M188.65,125.22c.43.84.02,2-.83,2.4-.34-.57.93-1.04,1.04-.39.1.31-.24.66-.56.57s-.42-.57-.17-.78"/>
        <path d="M187.36,125.98s.03.06.04.09l-.15-.36c.06.13.09.27.11.42l-.05-.4c.02.16.02.31,0,.47l.05-.4c-.02.18-.07.35-.14.52l.15-.36c-.06.14-.14.28-.24.4l.23-.3c-.09.11-.19.22-.3.31l.3-.23c-.1.08-.2.14-.31.19l2.05.54s-.02-.04-.03-.06l.15.36s-.02-.06-.03-.1l.05.4s0-.05,0-.08l-.05.4s.01-.06.02-.09l-.15.36s.03-.07.06-.1l-.23.3s.07-.08.12-.11l-.3.23c.05-.04.11-.07.17-.1l-.36.15c.07-.03.15-.05.23-.06l-.4.05c.06,0,.11,0,.17,0l-.4-.05s.08.02.11.03l-.36-.15s.06.03.08.04l-.3-.23s.05.04.07.07l-.23-.3s.03.04.04.07l-.15-.36c.02.05.04.11.05.17l-.05-.4s0,.06,0,.1l.05-.4s-.02.08-.04.13l.15-.36s-.04.08-.07.11l.23-.3s-.06.06-.1.09l.3-.23s-.07.05-.11.06l.36-.15s-.06.02-.09.03l.4-.05s-.06,0-.1,0l.4.05s-.08-.02-.12-.03l.36.15s-.05-.03-.07-.04l.3.23s-.05-.05-.08-.08l.23.3s-.05-.08-.07-.12l.15.36s-.03-.09-.03-.14l.05.4s0-.07,0-.11l-.05.4s.02-.09.04-.13l-.15.36s.03-.05.04-.07l-.23.3s.04-.04.06-.06c.28-.25.44-.69.44-1.06s-.16-.81-.44-1.06-.66-.46-1.06-.44-.76.16-1.06.44c-.11.1-.21.24-.29.37-.09.14-.15.29-.2.44-.07.19-.09.4-.09.6.01.52.22,1.06.61,1.42.5.46,1.18.64,1.84.45s1.15-.71,1.36-1.35c.1-.33.09-.66.02-.99-.04-.19-.11-.38-.21-.55-.25-.42-.63-.71-1.1-.86-.17-.05-.36-.07-.53-.08-.19,0-.38.03-.57.06-.06.01-.11.03-.17.05-.17.06-.36.13-.51.23-.43.28-.73.65-.9,1.13s-.07,1.04.18,1.48c.18.31.54.61.9.69l.4.05c.27,0,.52-.07.76-.2.17-.08.31-.19.46-.31s.28-.22.4-.36c.34-.4.55-.76.72-1.26.04-.12.07-.24.09-.36.04-.24.08-.49.07-.73-.02-.53-.14-.96-.38-1.43-.16-.32-.56-.6-.9-.69-.36-.1-.84-.05-1.16.15s-.6.51-.69.9l-.05.4c0,.27.07.52.2.76h0Z"/>
      </g>
      <g>
        <path class="cls-1" d="M179.58,138.43c4.49.25,9.05-1.03,12.76-3.57"/>
        <path d="M179.58,139.93c4.76.24,9.57-1.1,13.52-3.78.67-.45.97-1.32.54-2.05-.39-.66-1.38-1-2.05-.54-3.55,2.41-7.72,3.58-12,3.37-.81-.04-1.5.72-1.5,1.5,0,.85.69,1.46,1.5,1.5h0Z"/>
      </g>
      <g>
        <path class="cls-1" d="M186.51,30.66c15.22,25.49,18.74,56.25,30.94,83.32"/>
        <path d="M185.21,31.41c11.94,20.1,16.64,43.25,23.96,65.2,2.05,6.14,4.33,12.21,6.98,18.12.79,1.76,3.38.23,2.59-1.51-9.54-21.26-13.65-44.45-22.44-65.99-2.43-5.97-5.21-11.78-8.5-17.33-.99-1.66-3.58-.15-2.59,1.51h0Z"/>
      </g>
      <g>
        <path class="cls-1" d="M329.34,117.93c2.02,3.71,6.36,6.02,10.57,5.62"/>
        <path d="M328.05,118.69c2.3,4.15,7.12,6.78,11.86,6.36.81-.07,1.5-.64,1.5-1.5,0-.76-.69-1.57-1.5-1.5-3.78.33-7.44-1.57-9.27-4.87-.39-.71-1.36-.94-2.05-.54s-.93,1.34-.54,2.05h0Z"/>
      </g>
      <g>
        <path class="cls-1" d="M248.75,240.89c1.89,2.62,2.99,5.71,4.07,8.76,8.01,22.59,16.02,45.18,24.03,67.78"/>
        <path d="M247.46,241.64c2.82,4.03,4.13,8.99,5.75,13.58,1.81,5.1,3.62,10.2,5.42,15.3,3.56,10.04,7.12,20.08,10.68,30.12,2.03,5.73,4.06,11.45,6.09,17.18.64,1.81,3.54,1.03,2.89-.8-7.23-20.4-14.46-40.79-21.7-61.19-1.86-5.25-3.32-11.09-6.56-15.7-1.1-1.57-3.7-.07-2.59,1.51h0Z"/>
      </g>
      <g>
        <path class="cls-1" d="M86.51,30.25c-.19-.48-.75.29-.63.79,3.35,14.15,9.07,27.74,16.85,40.03,1.86-1.45,3.47-3.22,4.76-5.2"/>
        <path d="M87.57,29.19c-1.31-1.55-3.2.17-3.19,1.72,0,1.03.45,2.16.71,3.15s.54,2.03.83,3.04c1.15,4.04,2.49,8.02,4.02,11.93,3.11,7.94,6.95,15.58,11.5,22.8.56.89,1.59.91,2.36.3,1.96-1.56,3.61-3.41,4.99-5.5,1.07-1.61-1.53-3.12-2.59-1.51-1.24,1.88-2.76,3.49-4.52,4.89l2.36.3c-3.85-6.1-7.22-12.51-10.02-19.16-1.39-3.32-2.65-6.69-3.76-10.11-.53-1.64-1.04-3.29-1.51-4.95-.24-.87-.48-1.73-.71-2.6-.11-.44-.22-.87-.33-1.31-.05-.22-.11-.44-.16-.65-.01-.64-.26-.63-.75.04l-1.46-.39.12.14c1.25,1.48,3.36-.65,2.12-2.12h0Z"/>
      </g>
      <g>
        <path class="cls-1" d="M76.43,54.18c10.69-3.89,21.55-7.29,32.55-10.19"/>
        <path d="M76.83,55.63c10.69-3.89,21.55-7.29,32.55-10.19,1.86-.49,1.07-3.39-.8-2.89-11,2.91-21.86,6.31-32.55,10.19-1.8.65-1.02,3.55.8,2.89h0Z"/>
      </g>
      <g>
        <path class="cls-1" d="M99.77,32.14c-5.74,10.69-11.49,21.38-17.23,32.06.6.41,1.51.27,1.96-.31"/>
        <path d="M98.47,31.38c-5.74,10.69-11.49,21.38-17.23,32.06-.37.69-.2,1.67.54,2.05,1.31.68,2.73.52,3.78-.54,1.36-1.37-.76-3.5-2.12-2.12-.05.12-.09.14-.14.08l.54,2.05c5.74-10.69,11.49-21.38,17.23-32.06.91-1.7-1.68-3.22-2.59-1.51h0Z"/>
      </g>
      <g>
        <path class="cls-1" d="M72.88,41.74c7.87.61,14.84,5.05,21.63,9.09,3.29,1.96,7.38,3.89,10.77,2.1"/>
        <path d="M72.88,43.24c6.16.53,11.72,3.48,16.96,6.56,4.75,2.79,10.49,7.19,16.2,4.43,1.74-.84.22-3.43-1.51-2.59-2.55,1.24-5.5-.04-7.8-1.28-2.59-1.39-5.06-3.02-7.63-4.46-5.05-2.83-10.38-5.16-16.21-5.67-1.92-.17-1.91,2.84,0,3h0Z"/>
      </g>
      <g>
        <path class="cls-1" d="M354.13,81.22c2.07-7.34,5.71-14.22,10.62-20.05"/>
        <path d="M355.57,81.62c2.02-7.09,5.5-13.73,10.24-19.39,1.23-1.47-.88-3.6-2.12-2.12-5.08,6.06-8.84,13.1-11.01,20.71-.53,1.86,2.36,2.65,2.89.8h0Z"/>
      </g>
      <g>
        <path class="cls-1" d="M363.84,86.73c5.87-3.41,12.09-6.21,18.52-8.36"/>
        <path d="M364.6,88.02c5.77-3.34,11.84-6.09,18.17-8.21,1.82-.61,1.04-3.51-.8-2.89-6.56,2.2-12.89,5.05-18.88,8.51-1.67.97-.16,3.56,1.51,2.59h0Z"/>
      </g>
      <g>
        <path class="cls-1" d="M372.16,98.18c7.9,1.35,15.9,2.16,23.91,2.42"/>
        <path d="M371.76,99.63c8.04,1.36,16.16,2.2,24.31,2.48,1.93.07,1.93-2.93,0-3-7.88-.27-15.74-1.05-23.51-2.37-1.89-.32-2.7,2.57-.8,2.89h0Z"/>
      </g>
      <g>
        <path class="cls-1" d="M331.24,248.27l.88,11c.17,2.11.34,4.23.58,6.33.46,3.96,1.2,7.89,2.12,11.77.09.38.28.85.67.85s.24-.82-.04-.55"/>
        <path d="M329.74,248.27c.54,6.77.87,13.61,1.86,20.34.24,1.66.53,3.31.86,4.95.3,1.53.5,3.24,1.08,4.68.44,1.1,1.73,1.93,2.87,1.22.95-.59,1.14-2.17.24-2.9-.38-.31-.95-.6-1.46-.39l-.13.05c-.75.32-1.27.99-1.05,1.85.19.71,1.1,1.36,1.85,1.05l.13-.05-1.46-.39-.17-1.27.9-.69c.91.55,1.22.47.91-.22-.07-.31-.14-.62-.21-.93-.14-.62-.28-1.25-.41-1.87-.23-1.09-.44-2.19-.63-3.29-.43-2.48-.76-4.98-.99-7.49-.45-4.88-.8-9.77-1.19-14.65-.15-1.91-3.15-1.93-3,0h0Z"/>
      </g>
      <g>
        <path class="cls-1" d="M314.93,276.93c6.51-2.04,12.98-4.18,19.41-6.44,4.98-1.75,10.1-3.66,13.9-7.33"/>
        <path d="M315.33,278.38c6.35-1.99,12.67-4.08,18.95-6.28,5.37-1.88,10.81-3.9,15.02-7.88,1.41-1.33-.72-3.45-2.12-2.12-4.05,3.83-9.45,5.63-14.62,7.43-5.98,2.08-11.99,4.07-18.03,5.96-1.84.58-1.05,3.47.8,2.89h0Z"/>
      </g>
      <g>
        <path class="cls-1" d="M340.65,256.64c-7.14,7.75-13.3,16.41-18.28,25.7"/>
        <path d="M339.59,255.58c-7.22,7.86-13.45,16.6-18.51,26-.91,1.7,1.67,3.22,2.59,1.51,4.94-9.18,10.99-17.71,18.04-25.4,1.3-1.42-.81-3.55-2.12-2.12h0Z"/>
      </g>
      <g>
        <path class="cls-1" d="M323.99,261.68c4.7.88,8.13,4.78,11.61,8.06s8.2,6.31,12.77,4.88"/>
        <path d="M323.59,263.12c4.87.99,8.02,5.07,11.54,8.22s8.54,6.18,13.64,4.72c1.85-.53,1.06-3.43-.8-2.89-4.84,1.39-9.19-2.43-12.41-5.55s-6.61-6.46-11.17-7.39c-1.88-.39-2.69,2.51-.8,2.89h0Z"/>
      </g>
      <g>
        <path class="cls-1" d="M15.19,345.8c-.52.74.99,1.14,1.82.81,5.28-2.13,10.56-4.27,15.85-6.4"/>
        <path d="M13.9,345.05c-.93,1.68.52,3.03,2.16,3.17.85.07,1.56-.24,2.33-.55,1.02-.41,2.05-.83,3.07-1.24,3.93-1.59,7.87-3.18,11.8-4.77.75-.3,1.28-1,1.05-1.85-.2-.71-1.09-1.35-1.85-1.05-3.02,1.22-6.04,2.44-9.05,3.66-1.51.61-3.02,1.22-4.53,1.83-.74.3-1.5.72-2.26.91-.08.02-.31.04-.36.07-.28.13-.14-.36.14.22l.2.76-.11.36c.93-1.69-1.66-3.21-2.59-1.51h0Z"/>
      </g>
      <g>
        <path class="cls-1" d="M32.49,363.58c4.48-2.72,8.75-5.81,12.74-9.22"/>
        <path d="M33.25,364.88c4.59-2.8,8.95-5.96,13.04-9.45.62-.53.54-1.58,0-2.12-.61-.61-1.5-.53-2.12,0-3.9,3.32-8.06,6.32-12.43,8.98-1.65,1-.14,3.6,1.51,2.59h0Z"/>
      </g>
      <g>
        <path class="cls-1" d="M59.73,356.94c.06,5.5.43,11,1.12,16.45.12.94,1.02,2.17,1.67,1.49"/>
        <path d="M58.23,356.94c.05,4.04.25,8.07.64,12.09.09.99.2,1.98.31,2.97.1.89.13,1.81.49,2.64.72,1.65,2.38,2.54,3.91,1.31.63-.51.53-1.59,0-2.12-.62-.62-1.49-.51-2.12,0l-.15.12.66-.39c1.08-.42.59.64.45-.08-.05-.27-.12-.5-.16-.78-.09-.7-.16-1.39-.24-2.09-.16-1.51-.3-3.03-.41-4.54-.22-3.03-.35-6.07-.39-9.12-.02-1.93-3.02-1.93-3,0h0Z"/>
      </g>
      <g>
        <path class="cls-1" d="M248.98,160.67c-1.31,3.68-2,7.68-1.17,11.49s3.37,7.39,7.02,8.75c2.86,1.07,6.03.71,9.07.34,25.85-3.15,51.7-6.31,77.56-9.46,3.12-.38,6.35-.75,9.35.2s5.69,3.63,5.6,6.77c3.52-1.11,6.03-4.8,5.78-8.48,4.28,1.26,8.93,1.22,13.18-.13-2.77-3.18-6.71-5.3-10.89-5.85,3.86-2.07,7.72-4.14,11.58-6.21-4.05-1.56-8.47-2.13-12.78-1.66,3.22-2.29,6.45-4.59,9.67-6.88-4.82-.47-9.66-.63-14.5-.47,2.19-3.33,4.02-6.9,5.44-10.62-5.92.29-9.44,6.79-14.82,9.28-3.27,1.51-7.01,1.44-10.61,1.41-29.61-.3-59.26,3.64-87.77,11.67"/>
        <path d="M247.53,160.27c-2.45,7.04-2.41,15.83,4.16,20.64,3.24,2.37,7.28,2.41,11.11,1.98,4.48-.5,8.96-1.09,13.44-1.64,18.36-2.24,36.72-4.48,55.08-6.72,4.9-.6,9.91-1.57,14.85-1.63,3.59-.05,8.71,1.44,8.73,5.87,0,.93.96,1.77,1.9,1.45,4.18-1.43,7.08-5.47,6.89-9.92l-1.9,1.45c4.58,1.3,9.42,1.26,13.98-.13,1.12-.34,1.42-1.66.66-2.51-2.99-3.35-7.1-5.59-11.55-6.23l.36,2.74c3.86-2.07,7.72-4.14,11.58-6.21,1.23-.66.77-2.32-.36-2.74-4.2-1.57-8.71-2.16-13.18-1.71l.76,2.8,9.67-6.88c1.25-.89.75-2.65-.76-2.8-4.82-.46-9.66-.62-14.5-.47l1.3,2.26c2.26-3.46,4.11-7.13,5.59-10.98.34-.88-.54-1.96-1.45-1.9-6.25.44-9.52,6.05-14.53,8.94-3.17,1.83-6.91,1.78-10.46,1.75-4.15-.04-8.29-.01-12.44.11-16.45.47-32.87,2.24-49.05,5.27-9.13,1.71-18.17,3.83-27.11,6.34-1.86.52-1.07,3.42.8,2.89,15.74-4.42,31.83-7.63,48.07-9.53,8.11-.95,16.25-1.57,24.41-1.88,4.16-.16,8.32-.23,12.48-.22,3.72,0,7.56.28,11.19-.66,3.42-.89,6.07-3.09,8.66-5.38,2.28-2.02,4.77-4.41,7.97-4.63l-1.45-1.9c-1.39,3.61-3.17,7.03-5.29,10.26-.62.95.19,2.29,1.3,2.26,4.84-.15,9.68.01,14.5.47l-.76-2.8c-3.22,2.29-6.45,4.59-9.67,6.88-1.08.77-.87,2.96.76,2.8,4.24-.43,8.39.11,12.38,1.6l-.36-2.74c-3.86,2.07-7.72,4.14-11.58,6.21-1.05.56-.95,2.55.36,2.74,4,.58,7.54,2.45,10.23,5.46l.66-2.51c-4.07,1.24-8.29,1.29-12.39.13-.91-.26-1.94.47-1.9,1.45.13,3.08-1.73,6.02-4.68,7.03l1.9,1.45c-.02-3.33-2.26-6.2-5.2-7.61-3.69-1.77-7.83-1.28-11.74-.8-9.14,1.11-18.28,2.23-27.42,3.35s-18.11,2.21-27.17,3.32c-4.53.55-9.06,1.11-13.58,1.66s-8.7,1.35-13.05,1.45c-2.15.05-4.26-.28-6.08-1.49-1.57-1.04-2.74-2.59-3.54-4.28-1.99-4.19-1.16-9.08.31-13.29.64-1.83-2.26-2.61-2.89-.8h0Z"/>
      </g>
      <g>
        <path class="cls-1" d="M20.4,142.98l4.86,12.25c-2.35-4.17-4.78-8.3-7.28-12.38-2.6,3.34-3.91,7.66-3.59,11.88-4.34-1.21-9.21-.37-12.9,2.22,3.02,1.31,6.04,2.62,9.05,3.94-2.52,2.49-4.24,5.78-4.83,9.28,2.78-1.32,5.55-2.64,8.33-3.96-1.64,3.75-2.45,7.86-2.35,11.95,2.84-1.73,5.41-3.89,7.61-6.38.49,3.28.98,6.56,1.47,9.84,3-3.44,5.58-7.26,7.67-11.32,32.39,4.82,64.61,10.8,96.57,17.92.27-5.46.53-10.92.8-16.38.05-1.09.08-2.27-.56-3.15-.55-.76-1.48-1.13-2.37-1.45-19.15-6.95-39.77-8.49-60.08-9.98-12.68-.93-25.36-1.85-38.04-2.78,1.4.79,2.79,1.57,4.19,2.36"/>
        <path d="M18.96,143.38l4.86,12.25,2.74-1.16c-2.35-4.17-4.78-8.3-7.28-12.38-.64-1.04-1.92-.88-2.59,0-2.73,3.6-4.08,8.13-3.8,12.64l1.9-1.45c-4.79-1.26-9.95-.42-14.05,2.37-.82.56-1.12,2.1,0,2.59,3.02,1.31,6.04,2.62,9.05,3.94l-.3-2.36c-2.69,2.72-4.53,6.16-5.22,9.94-.24,1.33.98,2.27,2.2,1.69,2.78-1.32,5.55-2.64,8.33-3.96l-2.05-2.05c-1.73,4.04-2.63,8.3-2.56,12.7.02,1.11,1.27,1.91,2.26,1.3,2.94-1.82,5.61-4.04,7.92-6.62l-2.51-.66c.49,3.28.98,6.56,1.47,9.84.16,1.1,1.82,1.46,2.51.66,3.08-3.56,5.74-7.44,7.9-11.63l-1.69.69c25.23,3.76,50.35,8.21,75.33,13.37,7.09,1.46,14.17,2.98,21.24,4.55.98.22,1.85-.44,1.9-1.45.21-4.3.42-8.61.63-12.91.16-3.3.99-7.37-2.67-9.05-3.45-1.58-7.3-2.56-10.95-3.55-3.89-1.05-7.83-1.92-11.79-2.66-15.93-2.95-32.18-3.81-48.32-4.99-9.55-.7-19.1-1.39-28.66-2.09-1.51-.11-2,2.09-.76,2.8,1.4.79,2.79,1.57,4.19,2.36,1.68.95,3.2-1.64,1.51-2.59-1.4-.79-2.79-1.57-4.19-2.36l-.76,2.8c16.1,1.17,32.21,2.25,48.3,3.55,15.18,1.23,30.45,3.01,45.02,7.65,1.73.55,3.8.98,5.36,1.91s.83,3.74.75,5.23c-.23,4.63-.45,9.27-.68,13.9l1.9-1.45c-24.9-5.54-49.95-10.4-75.11-14.55-7.14-1.18-14.3-2.3-21.46-3.37-.64-.1-1.37.06-1.69.69-2.04,3.96-4.52,7.65-7.43,11.02l2.51.66c-.49-3.28-.98-6.56-1.47-9.84-.17-1.11-1.81-1.44-2.51-.66-2.15,2.4-4.57,4.45-7.31,6.15l2.26,1.3c-.06-3.84.63-7.65,2.15-11.19.59-1.38-.62-2.73-2.05-2.05-2.78,1.32-5.55,2.64-8.33,3.96l2.2,1.69c.6-3.29,2.09-6.23,4.45-8.61.61-.62.61-1.96-.3-2.36-3.02-1.31-6.04-2.62-9.05-3.94v2.59c3.46-2.36,7.68-3.14,11.74-2.07.89.23,1.96-.45,1.9-1.45-.25-4.05.94-7.89,3.39-11.12h-2.59c2.5,4.08,4.93,8.21,7.28,12.38.81,1.44,3.38.46,2.74-1.16l-4.86-12.25c-.7-1.77-3.61-1-2.89.8h0Z"/>
      </g>
      <g>
        <path class="cls-1" d="M126.6,293.28c12.58-12.44,25.99-24.03,40.12-34.68,3.68,23.89.74,48.25-2.21,72.25-2.63,21.39-5.26,42.78-7.89,64.17-4.13-1.3-8.88-.37-12.21,2.39-.46-3.51-.92-7.03-1.38-10.54-3.96,3.77-7.92,7.54-11.89,11.31-1.44,1.37-2.95,2.78-4.87,3.31s-4.32-.17-5.03-2.02c3.5-6.76,6.92-13.57,10.26-20.41,2.97-6.09,5.93-12.43,6.24-19.2.21-4.57-.81-9.09-1.81-13.55-1.84-8.12-3.67-16.24-5.51-24.36-2.21-9.78-4.44-19.86-2.84-29.76"/>
        <path d="M127.66,294.34c12.5-12.34,25.8-23.87,39.82-34.45l-2.2-.9c2.66,17.49,1.75,35.29-.06,52.82s-4.22,35.4-6.4,53.09c-1.23,10.04-2.47,20.07-3.7,30.11l1.9-1.45c-4.77-1.42-9.82-.31-13.67,2.78l2.56,1.06c-.46-3.51-.92-7.03-1.38-10.54-.16-1.25-1.54-2.03-2.56-1.06-3.6,3.43-7.2,6.85-10.81,10.28-1.46,1.39-2.96,3.13-4.91,3.83-1.39.5-3.07.23-3.71-1.22v1.51c3.42-6.62,6.77-13.28,10.04-19.97,2.99-6.11,5.98-12.4,6.58-19.27s-1.65-14.46-3.22-21.4c-1.66-7.35-3.38-14.7-4.98-22.06-1.77-8.15-3.23-16.59-1.94-24.92.29-1.89-2.6-2.7-2.89-.8-1.51,9.73.34,19.41,2.47,28.9s4.55,19.47,6.6,29.25c.97,4.63,1.49,9.29.53,13.96s-2.83,8.8-4.83,12.96-4.24,8.66-6.42,12.96c-1.13,2.24-2.27,4.48-3.42,6.71-.42.82-1.32,1.97-1.32,2.92,0,.84.72,1.74,1.31,2.28,3.47,3.13,7.92.52,10.71-2.09,4.14-3.87,8.22-7.81,12.32-11.72l-2.56-1.06c.46,3.51.92,7.03,1.38,10.54.18,1.34,1.49,1.92,2.56,1.06,3.01-2.41,7.08-3.1,10.75-2.01,1.03.31,1.78-.52,1.9-1.45,2.2-17.93,4.41-35.87,6.61-53.8,2.17-17.65,4.67-35.34,5.13-53.14.26-9.99-.19-19.99-1.7-29.88-.14-.9-1.48-1.44-2.2-.9-14.23,10.74-27.74,22.39-40.42,34.92-1.38,1.36.75,3.48,2.12,2.12h0Z"/>
      </g>
      <g>
        <path class="cls-1" d="M180.43,393.74c.1-32.25,3.58-64.39,7.06-96.45,1.62-14.93,3.24-29.85,4.86-44.78,11.66,8.2,21.69,18.71,29.33,30.75.76,1.2,1.52,2.47,1.67,3.88.18,1.64-.48,3.25-1.06,4.8-5.52,14.77-4.91,31.01-7.22,46.61-2.04,13.75-6.36,27.04-10.67,40.26,7.3,3.74,12.93,10.62,15.12,18.53-9.41-2.33-18.4-6.33-26.43-11.77.07,3.79.14,7.59.21,11.38-4.77-.73-9.54-1.47-14.32-2.2"/>
        <path d="M181.93,393.74c.06-18.44,1.22-36.86,2.85-55.22,1.64-18.36,3.71-36.68,5.7-55.01,1.12-10.33,2.24-20.67,3.37-31l-2.26,1.3c6.93,4.89,13.27,10.61,18.87,16.98,2.81,3.19,5.42,6.55,7.82,10.05,1.16,1.7,2.64,3.52,3.34,5.47.78,2.2-.53,4.48-1.24,6.53-2.99,8.58-4.03,17.68-4.85,26.69-.84,9.34-1.6,18.63-3.6,27.81-2.29,10.55-5.64,20.82-8.98,31.08-.2.6.12,1.4.69,1.69,7,3.64,12.27,10.04,14.43,17.63l1.85-1.85c-9.31-2.33-18.11-6.26-26.07-11.62-.95-.64-2.28.21-2.26,1.3.07,3.79.14,7.59.21,11.38l1.9-1.45c-4.77-.73-9.54-1.47-14.32-2.2-1.89-.29-2.7,2.6-.8,2.89,4.77.73,9.54,1.47,14.32,2.2.93.14,1.92-.38,1.9-1.45-.07-3.79-.14-7.59-.21-11.38l-2.26,1.3c8.16,5.5,17.25,9.54,26.79,11.92,1.09.27,2.17-.72,1.85-1.85-2.37-8.3-8.14-15.44-15.81-19.43l.69,1.69c3.07-9.42,6.14-18.85,8.4-28.51s3.22-19,4.06-28.65c.81-9.36,1.73-18.81,4.74-27.77.73-2.16,1.88-4.36,1.83-6.69s-1.3-4.15-2.48-5.98c-2.34-3.6-4.89-7.06-7.62-10.37-6.29-7.62-13.61-14.33-21.68-20.03-1.03-.73-2.15.28-2.26,1.3-1.99,18.3-3.99,36.59-5.96,54.89s-3.82,36.7-4.93,55.11c-.62,10.4-1,20.81-1.04,31.22,0,1.93,2.99,1.93,3,0h0Z"/>
      </g>
      <g>
        <path d="M70.21,178.96c3.52,2.29,6.36,5.6,8.09,9.42,1.1,2.43,1.99,5.32,4.4,6.46,2.01.95,4.37.31,6.56-.09,11.96-2.21,25.18,3.05,36.07-2.38-9.72-3.92-19.67-7.27-29.78-10.02-8.21-2.23-16.72-4.09-25.16-3.08"/>
        <path d="M69.46,180.25c3.47,2.31,6.1,5.55,7.76,9.36,1.58,3.61,3.37,7.17,7.86,7.22,2.19.02,4.33-.69,6.49-.92s4.42-.27,6.63-.21c4.53.13,9.03.67,13.56.72,4.95.06,9.84-.57,14.33-2.75,1.29-.63.72-2.31-.36-2.74-8.84-3.56-17.86-6.66-27.02-9.26s-18.72-4.98-28.32-3.9c-1.9.21-1.92,3.22,0,3,9.52-1.08,18.89,1.32,27.98,3.92s17.87,5.63,26.56,9.13l-.36-2.74c-7.71,3.75-16.65,2.06-24.86,1.68-4.34-.2-8.45.17-12.72.9-1.9.33-3.77.27-5.05-1.34-1.08-1.36-1.62-3.13-2.34-4.69-1.86-4.07-4.91-7.49-8.63-9.96-1.61-1.07-3.12,1.53-1.51,2.59h0Z"/>
      </g>
      <g>
        <path d="M258.65,183.65l13.69,4.26c1.1.34,2.25.69,3.39.48,3.57-.67,4.17-5.9,7.35-7.67-3.47-1.86-7.69-1.3-11.58-.69-4.75.75-9.51,1.49-14.26,2.24"/>
        <path d="M258.25,185.09l9.2,2.86c1.49.46,2.99.94,4.48,1.39,1.36.42,2.76.76,4.18.48,1.89-.38,3.21-1.83,4.24-3.36s1.81-3.47,3.46-4.46c.92-.55,1.03-2.07,0-2.59-3.89-1.98-8.15-1.55-12.31-.91-4.89.75-9.78,1.54-14.68,2.3-1.9.3-1.09,3.19.8,2.89,4.42-.7,8.85-1.39,13.27-2.09,3.72-.58,7.89-1.4,11.4.39v-2.59c-1.6.95-2.64,2.46-3.59,4.01-.75,1.22-1.59,3.05-3.12,3.44-1.17.3-2.47-.29-3.57-.63l-4.25-1.32-8.73-2.71c-1.85-.57-2.64,2.32-.8,2.89h0Z"/>
      </g>
      <g>
        <path d="M126.45,296.23c.43,1.61.96,3.19,1.58,4.73.3.75.81,1.62,1.62,1.6.51,0,.94-.39,1.31-.74,9.11-8.66,19.4-16.07,30.49-21.97.98-.52,2.01-1.07,2.61-2,.62-.97.67-2.19.69-3.34.1-4.31.2-8.62.3-12.93-1.9-.46-3.72.87-5.22,2.11-11.28,9.35-22.56,18.71-33.84,28.06-.76.63-1.55,1.3-1.93,2.2s-.22,2.13.63,2.64c.44-.07.87-.14,1.31-.22"/>
        <path d="M125,296.63c.54,1.99,1.07,4.51,2.35,6.18,1.5,1.96,3.46,1.2,4.98-.23,3.41-3.2,6.96-6.26,10.67-9.1s7.54-5.47,11.5-7.92c2.01-1.24,4.06-2.43,6.13-3.57,1.79-.98,3.89-1.82,4.89-3.72,1.17-2.21.75-5.33.8-7.74.07-2.98.14-5.97.21-8.95.01-.61-.47-1.34-1.1-1.45-4.02-.71-7.14,2.88-9.95,5.21-3.4,2.82-6.79,5.63-10.19,8.45-6.79,5.63-13.62,11.23-20.38,16.9-1.36,1.14-2.63,2.52-2.55,4.41.03.87.37,1.75,1,2.36.91.88,1.91.55,3.02.36,1.9-.31,1.09-3.21-.8-2.89-.44.07-.87.14-1.31.22l1.16.15c-1.01-.75,2.8-3.47,3.14-3.76,1.67-1.38,3.33-2.76,5-4.15,3.46-2.87,6.92-5.74,10.38-8.61s6.92-5.74,10.38-8.61c1.67-1.38,3.33-2.76,5-4.15,1.35-1.12,3.34-3.35,5.3-3l-1.1-1.45c-.1,4.5-.11,9.01-.32,13.51-.04.81-.12,1.65-.69,2.27s-1.48,1-2.24,1.41c-1.82.98-3.63,2-5.4,3.05-6.97,4.15-13.58,8.91-19.73,14.19-1.68,1.44-3.32,2.94-4.94,4.45-.11.11-.5.56-.62.57.24-.02.12-.04,0-.25-.27-.45-.42-.99-.6-1.48-.42-1.14-.77-2.29-1.09-3.46-.51-1.86-3.4-1.07-2.89.8h0Z"/>
      </g>
      <g>
        <path d="M192.23,253.3c-1.04,3.47-1.71,7.04-2,10.65-.06.78-.1,1.6.23,2.31.56,1.2,1.96,1.71,3.21,2.15,11.4,3.97,21.52,11.56,28.51,21.41,1.42-.6.91-2.73.13-4.06-7.63-13.07-18.07-24.48-30.41-33.25.66.44,1.31.89,1.97,1.33"/>
        <path d="M190.79,252.9c-.58,1.96-1.05,3.95-1.4,5.97s-.75,4.07-.69,6.06c.12,3.8,3.72,4.54,6.63,5.68,6.48,2.54,12.5,6.34,17.63,11.04,2.94,2.69,5.61,5.68,7.93,8.92.49.68,1.28.95,2.05.54,3.01-1.59,1.18-5.29-.08-7.38-1.88-3.12-3.92-6.14-6.11-9.05-4.29-5.7-9.11-11-14.43-15.76-3.07-2.75-6.3-5.32-9.65-7.71l-1.51,2.59c.66.44,1.31.89,1.97,1.33,1.6,1.09,3.11-1.51,1.51-2.59-.66-.44-1.31-.89-1.97-1.33-1.61-1.09-3.07,1.48-1.51,2.59,6.63,4.73,12.69,10.23,18.06,16.34,2.69,3.06,5.2,6.28,7.52,9.63.62.9,5.84,8.14,4.69,8.75l2.05.54c-3.87-5.41-8.55-10.13-13.94-14.04-2.74-1.99-5.65-3.74-8.69-5.23-1.49-.73-3-1.39-4.54-2-1.26-.5-3.11-.79-4.13-1.73-.67-.61-.5-1.53-.43-2.35.09-1.12.23-2.24.41-3.35.36-2.25.88-4.48,1.52-6.67.55-1.86-2.35-2.65-2.89-.8h0Z"/>
      </g>
      <g>
        <path d="M133.41,376.34c-4.46,5.96-8.24,12.43-11.23,19.24-.62,1.41-1.22,2.9-1.09,4.43s1.19,3.1,2.72,3.26c.85.09,1.68-.25,2.45-.6,6.51-2.94,12.41-7.2,17.25-12.45-.34,3.2-.68,6.39-1.02,9.59-.04.41-.08.87.18,1.2.36.46,1.06.41,1.64.31,2.51-.42,5.01-.85,7.52-1.27,1.29-.22,2.67-.48,3.63-1.37,1.13-1.05,1.41-2.7,1.63-4.22,2.72-18.83,5.32-37.67,7.83-56.53-10.01-.22-19.85,5.72-29.61,3.49-.65,3.54.31,7.15.81,10.72,1.17,8.29-.17,16.93-3.81,24.47"/>
        <path d="M132.12,375.58c-2.5,3.35-4.79,6.85-6.85,10.48-1.01,1.78-1.96,3.6-2.86,5.45s-1.94,3.82-2.5,5.83c-.89,3.19.5,7.71,4.53,7.41,1.81-.14,3.64-1.25,5.22-2.08,1.74-.9,3.43-1.91,5.05-3,3.6-2.41,6.91-5.23,9.85-8.4l-2.56-1.06c-.32,3.04-.66,6.07-.97,9.11-.11,1.07-.12,2.17.77,2.93.98.83,2.2.62,3.36.43,2.84-.46,5.84-.74,8.61-1.51,2.59-.72,4.04-2.58,4.56-5.16.6-2.97.89-6.02,1.32-9.01s.88-6.22,1.32-9.33c.88-6.22,1.74-12.45,2.59-18.68.96-7.02,1.91-14.03,2.84-21.05.11-.81-.77-1.49-1.5-1.5-5-.06-9.84,1.23-14.66,2.4s-9.67,2.2-14.55,1.14c-.73-.16-1.71.21-1.85,1.05-.51,3.1-.08,6.11.44,9.18.49,2.9.78,5.8.72,8.74-.12,5.84-1.5,11.63-4.01,16.9-.83,1.73,1.76,3.26,2.59,1.51,2.55-5.37,4.06-11.15,4.37-17.09.15-2.93-.02-5.86-.44-8.76-.47-3.19-1.31-6.45-.78-9.69l-1.85,1.05c10.27,2.22,19.82-3.57,30.01-3.44l-1.5-1.5c-1.46,11.02-2.96,22.03-4.5,33.04-.75,5.41-1.52,10.81-2.29,16.21-.37,2.61-.66,5.25-1.14,7.84-.18.98-.41,2.08-1.25,2.71-.9.67-2.2.76-3.28.95-1.49.25-2.98.5-4.47.76-.71.12-1.41.25-2.12.36.33-.05-.66.08-.67.09.2.31.29.34.27.08.02-.21.04-.43.06-.64.31-3.04.64-6.07.97-9.11.14-1.31-1.73-1.96-2.56-1.06-2.87,3.09-6.07,5.85-9.6,8.17-1.75,1.15-3.58,2.21-5.45,3.15-1.4.7-3.67,2.29-4.6.24-.85-1.88.65-4.34,1.43-6.04.96-2.07,1.98-4.1,3.08-6.1,2.2-3.99,4.68-7.82,7.4-11.48,1.15-1.55-1.45-3.05-2.59-1.51h0Z"/>
      </g>
      <g>
        <path d="M181.13,381.76c-.02,4.43.29,8.86.94,13.24.08.55.2,1.14.63,1.49.41.32.97.32,1.49.3,2.81-.1,5.61-.2,8.42-.3,1.05-2.29,1.29-4.95.67-7.39,2.41,1.86,4.82,3.72,7.24,5.58,1.35,1.04,2.72,2.09,4.3,2.71,3.99,1.55,8.45.11,12.47-1.34.37-.13.76-.27,1.04-.55,1-.95.19-2.61-.65-3.71-3.29-4.33-6.59-8.66-9.88-12.99-.55-.72-1.11-1.46-1.34-2.34-.3-1.13-.03-2.32.27-3.45,2.84-10.69,7.75-21.57,5.32-32.36-10.05,1.66-20.21-1.46-29.92-4.53,1.12,9.75-1.1,19.55-1.6,29.36-.3,5.72,0,11.47.86,17.13.25-.29.49-.57.74-.86"/>
        <path d="M179.63,381.76c0,2.46.08,4.92.27,7.38.18,2.22.27,4.6.81,6.76.57,2.28,2.47,2.43,4.47,2.36,2.48-.09,4.95-.17,7.43-.26.48-.02,1.09-.26,1.3-.74,1.19-2.75,1.5-5.62.82-8.55l-2.2,1.69c2.52,1.95,5.04,3.9,7.57,5.84,2.32,1.77,4.71,3.1,7.68,3.3s5.89-.64,8.65-1.59c1.11-.38,2.4-.69,3.18-1.63.89-1.07.79-2.48.28-3.7s-1.33-2.14-2.1-3.15c-1.05-1.38-2.1-2.75-3.14-4.13-1.92-2.53-3.9-5.03-5.78-7.59-.95-1.3-1.18-2.31-.79-3.89.36-1.49.81-2.97,1.25-4.44.89-2.99,1.85-5.96,2.68-8.97,1.82-6.58,2.96-13.4,1.5-20.16-.18-.85-1.08-1.17-1.85-1.05-9.91,1.56-19.78-1.57-29.12-4.53-.85-.27-2,.48-1.9,1.45.85,7.8-.33,15.58-1.12,23.33s-.75,15.71.43,23.56c.16,1.1,1.82,1.46,2.51.66.25-.29.49-.57.74-.86,1.26-1.45-.86-3.59-2.12-2.12-.25.29-.49.57-.74.86l2.51.66c-1.16-7.73-1.07-15.48-.27-23.24.79-7.59,1.91-15.21,1.07-22.85l-1.9,1.45c9.94,3.15,20.2,6.19,30.71,4.53l-1.85-1.05c1.19,5.52.4,11.13-.96,16.54-.69,2.72-1.51,5.4-2.33,8.09s-1.76,5.29-2.28,8c-.23,1.18-.3,2.38.1,3.54.46,1.33,1.44,2.41,2.27,3.51,1.8,2.36,3.59,4.72,5.39,7.08.85,1.11,1.7,2.23,2.55,3.34.43.56,2.2,2.34,1.95,3.19-.15.5-2.64,1.02-3.16,1.18-1.36.42-2.76.8-4.18.95-3.14.32-5.54-.73-8-2.59-2.66-2-5.28-4.06-7.91-6.09-1.11-.86-2.47.55-2.2,1.69.48,2.09.33,4.26-.52,6.24l1.3-.74c-1.98.07-3.96.14-5.94.21-.74.03-1.96.31-2.67.09-.39-.12-.36-.03-.45-.52s-.15-.98-.21-1.47c-.49-3.83-.72-7.68-.71-11.54,0-1.93-3-1.93-3,0h0Z"/>
      </g>
    </g>
  </g>
</svg>