<?xml version="1.0" encoding="UTF-8"?>
<svg id="Capa_2" data-name="Capa 2" xmlns="http://www.w3.org/2000/svg" viewBox="0 0 802.08 412.5">
  <defs>
    <style>
      .cls-1 {
        fill: #bc84e7;
      }
    </style>
  </defs>
  <g id="Capa_3" data-name="Capa 3">
    <polygon class="cls-1" points="102.08 118.75 189.58 106.25 170.83 31.25 233.33 87.5 239.58 50 268.75 102.08 372.92 0 395.83 108.33 435.42 56.25 485.42 114.58 537.5 81.25 560.42 118.75 639.58 22.92 658.33 145.83 764.58 112.5 722.92 191.67 762.5 229.17 683.33 239.58 802.08 339.58 650 318.75 608.33 406.25 533.33 308.33 502.08 370.83 439.58 314.58 404.17 385.42 368.75 302.08 237.5 412.5 229.17 264.58 116.67 312.5 175 229.17 45.83 233.33 152.08 200 0 156.25 143.75 164.58 102.08 118.75"/>
  </g>
</svg>